<?xml version="1.0" standalone="no"?>
<!DOCTYPE svg PUBLIC "-//W3C//DTD SVG 20010904//EN"
 "http://www.w3.org/TR/2001/REC-SVG-20010904/DTD/svg10.dtd">
<svg version="1.0" xmlns="http://www.w3.org/2000/svg"
 width="600.000000pt" height="420.000000pt" viewBox="0 0 600.000000 420.000000"
 preserveAspectRatio="xMidYMid meet">

<g transform="translate(0.000000,420.000000) scale(0.100000,-0.100000)"
fill="#000000" stroke="none">
<path d="M5020 4192 c0 -4 5 -13 11 -19 15 -15 3 -33 -21 -33 -26 0 -33 -15
-26 -55 10 -50 30 -65 87 -65 71 0 86 10 83 58 -2 49 -9 62 -35 62 -25 0 -24
8 3 37 l21 23 -61 0 c-34 0 -62 -4 -62 -8z"/>
<path d="M5820 4190 c0 -5 -25 -7 -63 -3 -60 5 -64 4 -70 -17 -3 -12 -3 -45 0
-72 l6 -50 46 6 c25 3 79 2 120 -3 40 -5 88 -7 107 -4 l34 6 0 73 c0 72 -1 74
-25 74 -13 0 -29 -8 -34 -17 -10 -17 -12 -17 -25 0 -14 18 -96 25 -96 7z"/>
<path d="M5286 4084 c-20 -20 -20 -33 0 -41 20 -7 67 14 59 27 -3 6 0 10 7 10
9 0 9 3 -2 10 -22 14 -46 12 -64 -6z"/>
<path d="M5467 3745 c-4 -8 -2 -17 3 -20 6 -4 10 3 10 14 0 25 -6 27 -13 6z"/>
<path d="M5795 3683 c4 -10 10 -26 12 -36 7 -23 29 -16 25 9 -5 35 -11 44 -28
44 -11 0 -14 -5 -9 -17z"/>
<path d="M5977 3613 c-12 -12 -7 -50 8 -63 13 -11 15 -7 15 29 0 38 -8 50 -23
34z"/>
<path d="M2528 3407 c-44 -51 -57 -71 -58 -84 0 -28 28 -9 78 52 48 59 51 65
30 65 -13 0 -34 -14 -50 -33z"/>
<path d="M930 3360 c0 -5 5 -10 10 -10 6 0 10 5 10 10 0 6 -4 10 -10 10 -5 0
-10 -4 -10 -10z"/>
<path d="M2195 3340 c3 -5 10 -10 16 -10 5 0 9 5 9 10 0 6 -7 10 -16 10 -8 0
-12 -4 -9 -10z"/>
<path d="M2351 3219 c-11 -18 -11 -23 1 -30 20 -13 24 -11 36 16 15 34 15 35
-6 35 -9 0 -23 -10 -31 -21z"/>
<path d="M1960 3210 c0 -5 6 -10 14 -10 8 0 18 5 21 10 3 6 -3 10 -14 10 -12
0 -21 -4 -21 -10z"/>
<path d="M5991 3204 c0 -11 3 -14 6 -6 3 7 2 16 -1 19 -3 4 -6 -2 -5 -13z"/>
<path d="M1205 3170 c-3 -5 -1 -10 4 -10 6 0 11 5 11 10 0 6 -2 10 -4 10 -3 0
-8 -4 -11 -10z"/>
<path d="M5713 3163 c-7 -2 -13 -20 -13 -38 0 -24 -7 -39 -22 -49 l-22 -16 32
-33 c18 -18 32 -43 32 -55 0 -13 6 -22 15 -22 16 0 22 46 7 52 -5 2 -5 17 0
35 10 40 58 66 104 57 38 -7 48 5 39 45 -6 27 -8 29 -37 20 -18 -5 -48 -5 -72
1 -45 11 -46 11 -63 3z"/>
<path d="M1581 3151 c-19 -12 17 -31 56 -30 26 0 26 1 7 9 -12 5 -25 13 -29
19 -8 13 -15 14 -34 2z"/>
<path d="M948 3143 c7 -3 16 -2 19 1 4 3 -2 6 -13 5 -11 0 -14 -3 -6 -6z"/>
<path d="M4812 3109 c2 -6 8 -10 13 -10 5 0 11 4 13 10 2 6 -4 11 -13 11 -9 0
-15 -5 -13 -11z"/>
<path d="M867 3086 c5 -24 10 -26 54 -26 49 0 99 14 99 27 0 5 -26 8 -57 9
-32 0 -68 4 -79 8 -19 7 -21 5 -17 -18z"/>
<path d="M543 3092 c-15 -2 -23 -10 -23 -23 0 -24 12 -24 35 1 21 23 19 27
-12 22z"/>
<path d="M1203 3075 c0 -18 28 -16 35 3 2 7 -5 12 -15 12 -11 0 -20 -7 -20
-15z"/>
<path d="M440 3055 c-8 -9 -8 -15 -2 -15 12 0 26 19 19 26 -2 2 -10 -2 -17
-11z"/>
<path d="M627 3053 c-4 -3 -7 -11 -7 -17 0 -6 5 -5 12 2 6 6 9 14 7 17 -3 3
-9 2 -12 -2z"/>
<path d="M5480 3031 c0 -29 20 -43 48 -34 30 11 5 63 -30 63 -13 0 -18 -8 -18
-29z"/>
<path d="M1250 3030 c-11 -21 -6 -40 11 -40 6 0 7 5 4 10 -3 6 -3 10 2 10 4 0
19 9 33 20 l25 20 -32 0 c-22 0 -36 -6 -43 -20z"/>
<path d="M5910 3041 c0 -5 7 -14 15 -21 18 -15 42 1 31 19 -8 13 -46 15 -46 2z"/>
<path d="M920 3021 c0 -5 6 -14 14 -20 11 -9 15 -8 20 5 9 23 8 24 -14 24 -11
0 -20 -4 -20 -9z"/>
<path d="M1692 3021 c-10 -6 -7 -10 13 -15 31 -8 68 1 60 15 -8 11 -55 12 -73
0z"/>
<path d="M1870 3010 c-10 -6 -11 -12 -5 -19 7 -6 18 -3 34 10 20 17 21 19 5
19 -11 0 -26 -5 -34 -10z"/>
<path d="M3430 3005 c0 -18 19 -40 26 -32 4 4 0 15 -9 24 -9 10 -17 13 -17 8z"/>
<path d="M3707 2989 c-10 -11 -16 -24 -12 -27 8 -9 38 24 34 37 -3 7 -12 3
-22 -10z"/>
<path d="M1012 2980 c-33 -21 -35 -40 -4 -40 10 0 22 13 29 30 6 17 11 30 10
30 -1 0 -17 -9 -35 -20z"/>
<path d="M485 2976 c-37 -14 -95 -48 -95 -56 0 -4 7 -15 15 -26 16 -19 16 -19
28 1 7 11 29 37 50 58 21 20 37 36 35 36 -2 -1 -16 -6 -33 -13z"/>
<path d="M1105 2970 l-30 -6 35 -6 c38 -6 49 -3 34 10 -5 5 -22 6 -39 2z"/>
<path d="M1540 2959 c0 -5 5 -7 10 -4 6 3 10 8 10 11 0 2 -4 4 -10 4 -5 0 -10
-5 -10 -11z"/>
<path d="M2165 2950 c-4 -6 5 -10 24 -8 17 1 31 6 31 10 0 12 -48 10 -55 -2z"/>
<path d="M2334 2949 c-7 -12 15 -31 28 -23 9 6 -1 34 -12 34 -5 0 -12 -5 -16
-11z"/>
<path d="M897 2944 c-8 -8 3 -34 14 -34 5 0 9 9 9 20 0 19 -11 26 -23 14z"/>
<path d="M1187 2940 c15 -6 21 -15 17 -25 -4 -10 0 -15 10 -15 9 0 16 5 16 11
0 17 -27 39 -47 38 -15 0 -14 -2 4 -9z"/>
<path d="M3501 2942 c0 -7 -5 -10 -11 -7 -5 3 -10 2 -10 -4 0 -6 -6 -8 -14 -5
-19 7 -25 -16 -11 -43 l11 -21 23 24 c14 15 21 32 18 46 -2 13 -5 17 -6 10z"/>
<path d="M2100 2920 c0 -13 11 -13 30 0 12 8 11 10 -7 10 -13 0 -23 -4 -23
-10z"/>
<path d="M3370 2920 c0 -5 5 -10 11 -10 5 0 7 5 4 10 -3 6 -8 10 -11 10 -2 0
-4 -4 -4 -10z"/>
<path d="M3216 2911 c-3 -4 8 -20 24 -35 17 -14 30 -31 30 -36 0 -6 5 -10 11
-10 8 0 8 5 -1 15 -7 8 -10 21 -7 29 3 9 -4 21 -18 30 -28 18 -32 19 -39 7z"/>
<path d="M2957 2903 c-12 -11 -7 -24 6 -16 6 4 21 6 32 5 17 -2 17 -1 5 7 -17
12 -34 14 -43 4z"/>
<path d="M566 2878 c-15 -25 -30 -68 -23 -68 6 0 57 74 57 83 0 15 -20 6 -34
-15z"/>
<path d="M3400 2868 c0 -7 4 -19 9 -26 6 -10 10 -10 20 2 10 12 8 17 -8 26
-16 8 -21 8 -21 -2z"/>
<path d="M175 2840 l-29 -30 25 0 c41 0 64 -10 74 -32 7 -15 21 -21 52 -23 58
-4 83 -14 83 -31 0 -13 3 -13 22 0 12 9 30 16 38 16 28 0 58 51 52 88 -4 32
-5 33 -24 15 -11 -10 -24 -28 -29 -40 -10 -27 -44 -30 -76 -8 -14 10 -24 12
-28 5 -18 -30 -105 7 -105 45 0 33 -20 32 -55 -5z"/>
<path d="M601 2800 c-29 -33 -50 -66 -48 -73 3 -6 10 0 16 16 6 15 14 27 18
27 12 0 83 70 83 81 0 20 -18 7 -69 -51z"/>
<path d="M1361 2851 c-10 -6 -10 -10 -1 -16 7 -4 19 0 28 9 14 13 14 16 2 16
-8 0 -21 -4 -29 -9z"/>
<path d="M1765 2844 c-11 -8 -24 -13 -30 -10 -13 4 -51 -21 -43 -29 6 -7 95
32 103 45 9 15 -7 11 -30 -6z"/>
<path d="M1850 2849 c0 -5 5 -7 10 -4 6 3 10 8 10 11 0 2 -4 4 -10 4 -5 0 -10
-5 -10 -11z"/>
<path d="M2610 2850 c0 -5 10 -10 23 -10 18 0 19 2 7 10 -19 13 -30 13 -30 0z"/>
<path d="M3521 2851 c-19 -5 -21 -8 -10 -17 10 -8 25 -8 49 -1 31 8 33 10 15
18 -23 9 -23 9 -54 0z"/>
<path d="M833 2830 c-13 -5 -23 -16 -23 -25 0 -21 10 -19 45 10 31 25 20 32
-22 15z"/>
<path d="M1324 2793 c-8 -12 -25 -18 -58 -18 -39 0 -52 -5 -69 -26 -12 -15
-35 -35 -51 -45 l-29 -18 24 -6 c19 -5 24 -12 23 -37 l-2 -31 49 20 c60 25 67
54 14 60 -19 2 -37 -1 -40 -7 -2 -5 -4 -1 -2 10 2 15 11 21 37 23 19 2 42 9
50 17 8 7 25 16 37 19 28 9 49 34 37 46 -6 6 -14 3 -20 -7z"/>
<path d="M1980 2800 c0 -5 5 -10 10 -10 6 0 10 5 10 10 0 6 -4 10 -10 10 -5 0
-10 -4 -10 -10z"/>
<path d="M3098 2798 c12 -6 22 -15 22 -20 0 -4 7 -8 15 -8 26 0 16 18 -16 29
-40 14 -51 13 -21 -1z"/>
<path d="M3793 2804 c-8 -4 -9 -13 -3 -29 5 -13 12 -50 16 -84 7 -66 21 -76
18 -14 0 21 7 57 18 81 10 24 18 46 18 48 0 5 -52 4 -67 -2z"/>
<path d="M870 2771 c-6 -12 -7 -21 -1 -21 10 0 24 30 17 37 -2 3 -9 -5 -16
-16z"/>
<path d="M3191 2780 c-10 -5 -8 -9 4 -14 23 -8 35 -8 35 3 0 13 -25 20 -39 11z"/>
<path d="M2045 2770 c3 -5 16 -10 28 -9 21 0 21 1 2 9 -28 12 -37 12 -30 0z"/>
<path d="M5215 2771 c-8 -13 3 -68 15 -76 4 -3 18 3 30 13 l21 17 -29 28 c-19
19 -32 25 -37 18z"/>
<path d="M1042 2740 c-7 -11 -21 -20 -31 -20 -10 0 -25 -8 -32 -17 -13 -15
-12 -16 11 -9 14 5 41 10 60 13 32 5 60 25 60 45 0 17 -56 7 -68 -12z"/>
<path d="M237 2690 c-32 -28 -64 -50 -69 -50 -6 0 -8 -3 -4 -7 3 -4 -13 -27
-36 -51 -28 -29 -36 -42 -23 -38 11 4 29 10 40 12 11 2 25 10 30 17 8 11 66
37 82 37 2 0 2 -9 -2 -20 -8 -26 16 -60 54 -76 32 -13 38 -9 74 48 24 38 22
40 -18 21 -30 -14 -34 -20 -29 -42 6 -25 6 -25 -9 -6 -8 10 -13 25 -10 32 3 9
0 11 -10 7 -9 -3 -20 2 -26 15 -14 26 -14 33 2 29 13 -3 77 50 77 64 0 5 -13
8 -29 8 -24 0 -30 5 -33 25 -3 24 -4 24 -61 -25z"/>
<path d="M590 2731 c0 -5 5 -13 10 -16 6 -3 10 -2 10 4 0 5 -4 13 -10 16 -5 3
-10 2 -10 -4z"/>
<path d="M3680 2714 c0 -8 5 -12 10 -9 6 3 10 10 10 16 0 5 -4 9 -10 9 -5 0
-10 -7 -10 -16z"/>
<path d="M1345 2698 c-15 -22 -14 -23 12 -28 19 -4 28 -12 27 -23 -2 -23 7
-21 34 7 27 29 28 40 4 27 -21 -11 -42 3 -42 26 0 20 -17 15 -35 -9z"/>
<path d="M1700 2700 l-25 -20 33 11 c17 6 32 15 32 20 0 14 -13 10 -40 -11z"/>
<path d="M2300 2700 c0 -11 5 -20 11 -20 5 0 7 5 3 11 -3 6 0 15 7 20 11 7 10
9 -3 9 -11 0 -18 -8 -18 -20z"/>
<path d="M807 2692 c-20 -21 -23 -72 -5 -72 7 0 -11 -23 -40 -51 -28 -29 -52
-59 -51 -68 0 -11 3 -10 9 5 4 12 35 45 68 74 34 28 65 66 71 82 14 41 14 41
-9 35 -10 -3 -20 -1 -22 5 -2 5 -11 1 -21 -10z"/>
<path d="M1802 2699 c3 -8 20 -15 39 -17 36 -2 26 9 -20 23 -17 5 -22 4 -19
-6z"/>
<path d="M2594 2699 c-3 -5 6 -9 20 -9 31 0 34 6 6 13 -11 3 -23 1 -26 -4z"/>
<path d="M2778 2684 c-21 -13 -38 -27 -38 -30 0 -3 17 4 38 14 20 11 57 25 82
30 l45 10 -45 0 c-32 1 -56 -6 -82 -24z"/>
<path d="M2996 2686 c-3 -14 -20 -32 -36 -41 -29 -15 -70 -79 -70 -109 0 -10
-9 -13 -27 -11 -15 1 -45 -6 -67 -15 -23 -10 -35 -19 -28 -19 7 -1 27 6 43 15
36 18 51 11 23 -12 -19 -15 -19 -16 1 -9 11 4 35 11 54 15 18 5 48 22 65 38
17 17 52 43 78 59 43 27 45 30 27 41 -11 7 -28 26 -38 43 l-19 30 -6 -25z"/>
<path d="M147 2694 c-3 -4 -32 -12 -64 -19 -58 -12 -58 -12 -29 -24 34 -14 73
-2 102 30 15 17 7 29 -9 13z"/>
<path d="M1475 2684 c-19 -15 -18 -15 14 -12 19 2 36 9 39 16 5 17 -29 15 -53
-4z"/>
<path d="M3203 2693 c-7 -2 -13 -9 -13 -14 0 -13 20 -11 55 6 l30 13 -30 0
c-16 0 -36 -2 -42 -5z"/>
<path d="M441 2674 c0 -11 3 -14 6 -6 3 7 2 16 -1 19 -3 4 -6 -2 -5 -13z"/>
<path d="M700 2670 c-13 -8 -12 -10 3 -10 9 0 17 5 17 10 0 12 -1 12 -20 0z"/>
<path d="M2040 2671 c0 -5 -10 -11 -22 -14 -12 -4 -19 -9 -16 -12 3 -4 25 -1
47 6 28 8 38 15 29 21 -17 10 -38 10 -38 -1z"/>
<path d="M1 2621 l-1 -54 25 23 c25 24 25 25 7 40 -11 8 -22 22 -25 30 -3 8
-6 -9 -6 -39z"/>
<path d="M1070 2660 c-8 -5 -50 -22 -92 -36 -56 -20 -75 -31 -68 -39 6 -7 6
-15 -1 -22 -7 -7 -2 -15 15 -27 20 -12 26 -25 26 -51 0 -33 1 -34 30 -28 33 6
41 -11 18 -36 -11 -11 -10 -12 2 -6 8 5 21 17 28 26 12 18 47 15 36 -2 -11
-19 19 -8 50 17 l31 27 14 -37 c9 -25 20 -36 34 -36 18 0 75 52 149 136 l27
30 -29 11 c-28 11 -28 10 -23 -22 6 -38 -10 -53 -29 -27 -16 21 -43 23 -43 2
0 -8 -5 -24 -12 -35 -10 -17 -15 -18 -32 -7 -33 20 -94 15 -114 -9 -18 -20
-19 -20 -32 -3 -8 12 -10 26 -5 40 5 12 6 31 3 43 -3 12 4 36 16 57 24 40 24
48 1 34z m-50 -114 c-9 -28 -50 -80 -50 -64 0 14 32 93 42 106 18 21 22 -1 8
-42z m-70 40 c0 -3 -4 -8 -10 -11 -5 -3 -10 -1 -10 4 0 6 5 11 10 11 6 0 10
-2 10 -4z"/>
<path d="M3294 2646 c1 -9 12 -26 24 -39 12 -13 19 -27 15 -30 -3 -4 -1 -7 5
-7 7 0 12 9 12 19 0 11 3 26 6 34 3 9 -2 16 -13 20 -10 2 -26 8 -35 12 -11 5
-16 2 -14 -9z"/>
<path d="M591 2614 c-17 -21 -29 -39 -27 -41 2 -2 20 4 39 13 25 12 35 23 34
35 -5 32 -14 31 -46 -7z"/>
<path d="M1410 2620 c0 -5 5 -10 10 -10 6 0 10 5 10 10 0 6 -4 10 -10 10 -5 0
-10 -4 -10 -10z"/>
<path d="M1900 2620 c-8 -5 -10 -10 -5 -10 6 0 17 5 25 10 8 5 11 10 5 10 -5
0 -17 -5 -25 -10z"/>
<path d="M2781 2610 c-29 -25 -17 -25 29 0 26 14 30 19 15 19 -11 0 -31 -9
-44 -19z"/>
<path d="M2025 2610 c-3 -5 -2 -10 4 -10 5 0 13 5 16 10 3 6 2 10 -4 10 -5 0
-13 -4 -16 -10z"/>
<path d="M2429 2594 c12 -15 21 -34 21 -44 0 -14 8 -17 38 -16 30 1 36 -2 34
-16 -2 -12 4 -18 15 -18 10 0 34 -3 53 -6 33 -6 36 -4 48 30 7 20 18 36 23 36
5 0 9 4 9 10 0 5 -16 0 -36 -12 -48 -28 -84 -31 -104 -8 -10 11 -20 17 -23 14
-3 -4 -14 -4 -23 0 -16 6 -16 8 0 25 15 17 16 19 1 25 -9 3 -30 6 -47 6 l-29
0 20 -26z"/>
<path d="M501 2589 c-22 -20 -23 -38 -2 -24 11 6 35 45 28 45 -2 0 -13 -9 -26
-21z"/>
<path d="M1678 2573 c-3 -22 -1 -30 6 -23 6 6 17 10 26 10 16 0 50 29 50 44 0
3 -18 5 -39 4 -36 -3 -40 -6 -43 -35z"/>
<path d="M1785 2584 l-40 -24 36 0 c35 0 77 29 62 43 -9 10 -13 8 -58 -19z"/>
<path d="M2560 2599 c0 -5 5 -7 10 -4 6 3 10 8 10 11 0 2 -4 4 -10 4 -5 0 -10
-5 -10 -11z"/>
<path d="M3102 2580 c-18 -23 -19 -30 -8 -30 8 0 20 -8 25 -17 8 -14 10 -8 11
30 0 26 -1 47 -3 47 -2 0 -13 -13 -25 -30z"/>
<path d="M2344 2589 c-3 -5 3 -9 13 -9 16 0 15 -2 -3 -13 -55 -31 -82 -51 -92
-68 -10 -16 -9 -19 7 -19 11 0 21 9 25 23 5 22 18 31 79 56 34 13 36 39 2 39
-14 0 -28 -4 -31 -9z"/>
<path d="M3398 2593 c7 -3 16 -2 19 1 4 3 -2 6 -13 5 -11 0 -14 -3 -6 -6z"/>
<path d="M1108 2572 c-16 -9 -28 -25 -28 -36 0 -11 1 -17 3 -15 1 2 15 19 31
37 34 36 33 39 -6 14z"/>
<path d="M2245 2571 c-6 -5 -27 -14 -47 -21 -43 -13 -51 -21 -42 -45 6 -14 11
-12 38 13 17 16 45 37 61 45 17 9 23 16 15 17 -9 0 -20 -4 -25 -9z"/>
<path d="M3290 2565 c7 -8 16 -12 21 -9 13 8 1 24 -18 24 -13 0 -13 -3 -3 -15z"/>
<path d="M837 2552 c-10 -10 -17 -30 -17 -45 0 -17 -9 -32 -25 -43 -23 -15
-24 -18 -10 -34 17 -19 19 -38 6 -59 -13 -20 -47 3 -71 49 -11 21 -24 41 -29
44 -11 7 -83 -133 -75 -145 12 -19 23 -7 29 34 10 58 24 73 42 47 8 -12 12
-28 9 -36 -4 -12 -1 -14 14 -9 15 5 20 2 20 -13 0 -11 -6 -23 -12 -25 -13 -5
59 2 78 8 6 2 14 27 17 56 4 30 18 76 32 102 37 71 32 113 -8 69z"/>
<path d="M3188 2541 c-6 -39 19 -46 62 -18 l33 21 -34 12 c-50 18 -56 17 -61
-15z"/>
<path d="M3480 2549 c-35 -18 -33 -24 7 -13 12 3 24 12 27 20 3 8 4 14 3 13
-1 -1 -18 -9 -37 -20z"/>
<path d="M2060 2552 c0 -13 53 -23 65 -11 5 5 1 9 -12 9 -12 0 -28 3 -37 6 -9
3 -16 2 -16 -4z"/>
<path d="M3580 2540 c0 -15 -5 -31 -11 -37 -8 -8 -5 -14 11 -23 25 -13 42 -4
20 10 -8 6 -10 10 -4 10 5 0 15 -5 22 -12 9 -9 15 -9 24 0 9 9 7 12 -10 12
-16 0 -27 10 -37 33 -13 30 -14 31 -15 7z"/>
<path d="M186 2527 c-7 -29 -61 -73 -71 -57 -3 5 -1 20 5 32 7 14 -5 6 -30
-20 -22 -23 -52 -49 -65 -58 -15 -10 -25 -26 -25 -40 l0 -23 36 24 c20 14 42
25 49 25 7 0 16 11 19 24 5 19 11 24 28 21 12 -3 25 -10 29 -16 5 -8 8 -8 14
0 5 8 18 4 43 -15 30 -23 34 -25 28 -8 -4 10 -14 39 -22 64 -20 65 -30 77 -38
47z"/>
<path d="M2403 2524 c-12 -27 -2 -32 17 -9 8 10 10 19 4 25 -5 5 -14 -1 -21
-16z"/>
<path d="M635 2523 c-16 -9 -38 -23 -49 -32 -12 -10 -37 -16 -71 -16 -52 0
-53 0 -49 25 5 23 3 25 -35 25 -44 0 -54 -9 -21 -18 35 -9 22 -34 -29 -55 -54
-24 -87 -62 -68 -81 8 -8 8 -11 -2 -11 -11 0 -11 -3 0 -17 11 -13 11 -17 2
-20 -7 -3 -13 -16 -13 -29 0 -14 -4 -22 -10 -19 -5 3 -10 -3 -10 -14 0 -10 -3
-26 -6 -35 -4 -10 -1 -16 9 -16 8 0 20 -7 27 -15 11 -13 15 -13 29 -2 9 8 36
22 60 31 39 15 46 15 59 2 22 -22 9 -41 -67 -96 -61 -45 -72 -58 -91 -110
l-22 -59 31 -39 c18 -21 34 -55 38 -75 5 -31 8 -35 20 -25 8 6 21 24 29 40 8
16 23 28 34 28 11 0 20 5 20 10 0 6 7 10 15 10 8 0 12 -6 9 -14 -3 -8 -2 -22
3 -30 7 -12 14 -5 32 29 13 25 28 45 34 45 6 0 19 7 29 17 17 15 18 15 18 -1
0 -15 6 -16 33 -11 39 9 49 14 43 24 -8 13 57 69 88 77 36 9 50 -11 29 -42
-14 -22 -11 -44 7 -44 5 0 19 14 31 32 13 17 18 28 11 24 -18 -11 -15 12 8 60
43 88 94 99 60 13 -23 -58 -24 -63 -9 -53 8 5 8 1 0 -14 -16 -30 -14 -33 14
-20 22 10 65 93 89 175 4 11 13 27 21 33 22 18 18 28 -9 26 -21 -1 -25 -7 -30
-46 -9 -62 -19 -78 -41 -60 -16 13 -16 51 1 125 4 18 3 18 -7 -1 -6 -12 -21
-27 -33 -33 -12 -7 -28 -26 -35 -43 -15 -34 -95 -90 -117 -81 -8 3 -14 0 -14
-6 0 -6 -7 -11 -15 -11 -9 0 -18 -6 -21 -14 -3 -8 -12 -12 -20 -9 -10 3 -14
-2 -14 -18 -1 -13 -7 -35 -16 -49 -14 -24 -14 -23 -8 20 4 24 11 52 17 61 7
12 8 25 1 39 -10 22 -10 22 -44 -14 -51 -54 -77 -46 -64 20 5 28 14 39 38 50
17 7 27 14 21 14 -5 0 4 7 21 14 20 9 39 29 53 58 26 55 26 56 -4 56 -27 0
-31 -8 -13 -26 20 -20 4 -22 -44 -4 l-47 17 -31 -30 c-33 -32 -38 -22 -19 34
14 40 8 47 -25 26 -49 -32 -51 -9 -3 38 33 32 58 47 80 49 29 3 32 6 32 36 0
19 6 37 15 42 57 33 70 61 15 33z m-125 -68 c15 -19 2 -38 -39 -54 -23 -10
-27 -17 -23 -41 3 -24 -1 -32 -27 -48 -17 -10 -28 -21 -25 -25 3 -3 -3 -14
-14 -25 -14 -14 -23 -17 -31 -9 -7 7 -12 5 -17 -6 -10 -27 -24 -19 -24 14 0
36 13 64 48 102 19 20 28 24 34 15 6 -10 8 -9 8 3 0 20 64 89 83 89 8 0 20 -7
27 -15z m40 -235 c0 -5 -5 -10 -11 -10 -5 0 -7 5 -4 10 3 6 8 10 11 10 2 0 4
-4 4 -10z m75 0 c-3 -5 -10 -10 -16 -10 -5 0 -9 5 -9 10 0 6 7 10 16 10 8 0
12 -4 9 -10z m-135 -59 c-13 -25 -7 -26 26 -5 13 9 26 15 28 13 6 -6 -104
-189 -114 -189 -5 0 -16 -12 -25 -27 l-16 -28 6 29 c4 17 14 46 23 65 8 20 19
45 24 56 8 19 7 19 -6 1 -15 -18 -66 -49 -66 -40 0 3 5 15 11 26 8 15 8 22 -1
28 -9 5 -9 9 -1 14 6 4 11 2 11 -3 0 -6 22 12 50 41 49 51 72 60 50 19z"/>
<path d="M2045 2520 c-15 -7 -9 -9 25 -9 33 -1 41 2 30 9 -18 12 -28 12 -55 0z"/>
<path d="M23 2508 c-13 -6 -23 -17 -23 -25 0 -11 5 -10 25 3 14 9 25 20 25 25
0 11 1 11 -27 -3z"/>
<path d="M1720 2506 c0 -16 -21 -26 -56 -26 -35 0 -21 -24 35 -58 l47 -29 38
19 c28 14 41 17 46 8 4 -7 12 0 20 20 7 17 11 33 8 35 -10 10 -47 -8 -51 -26
-3 -11 -14 -19 -25 -19 -11 0 -26 -2 -34 -5 -7 -3 -19 -1 -26 3 -10 7 -9 15 5
40 10 18 22 32 26 32 5 0 5 5 2 10 -9 15 -35 12 -35 -4z"/>
<path d="M1970 2511 c0 -5 9 -7 20 -4 11 3 20 7 20 9 0 2 -9 4 -20 4 -11 0
-20 -4 -20 -9z"/>
<path d="M2973 2492 c-15 -16 -37 -32 -48 -36 -13 -6 -16 -10 -7 -13 7 -3 19
1 27 7 12 10 15 9 15 -8 0 -20 -56 -56 -72 -46 -5 3 4 -14 19 -38 22 -34 89
-103 122 -125 14 -10 -11 -11 -43 -2 -52 14 -58 3 -7 -12 23 -7 40 -17 38 -23
-2 -6 5 -20 17 -31 17 -17 46 -66 46 -80 0 -2 -10 -1 -22 2 -20 3 -19 2 5 -12
43 -25 48 -9 16 55 -31 62 -39 97 -15 64 13 -17 14 -14 4 23 -6 24 -14 40 -19
37 -5 -3 -25 4 -43 15 -62 39 -114 128 -68 119 9 -2 22 3 28 11 13 17 34 7 34
-18 0 -15 57 -68 64 -59 19 25 36 54 36 62 0 6 -7 0 -16 -12 -19 -28 -34 -28
-34 -1 0 11 -4 17 -10 14 -5 -3 -10 -1 -10 5 0 6 10 15 23 19 19 8 20 10 5 16
-22 9 -14 25 13 25 10 0 19 5 19 11 0 7 -7 8 -17 4 -10 -4 -27 -10 -38 -13
-11 -3 -26 -13 -33 -21 -10 -14 -11 -14 -5 3 5 15 3 17 -8 11 -12 -8 -12 -6 0
8 12 15 25 67 16 67 -2 0 -16 -13 -32 -28z"/>
<path d="M5350 2510 c-11 -7 -12 -12 -3 -21 13 -13 33 -4 33 17 0 16 -9 18
-30 4z"/>
<path d="M3310 2496 c0 -20 12 -26 39 -19 l23 6 -23 13 c-31 17 -39 17 -39 0z"/>
<path d="M5722 2468 l3 -33 52 2 c58 2 93 16 93 38 0 11 -11 15 -42 13 -24 -1
-58 1 -76 6 -33 8 -33 8 -30 -26z"/>
<path d="M2345 2470 c-13 -6 -15 -9 -5 -9 8 0 22 4 30 9 18 12 2 12 -25 0z"/>
<path d="M2060 2460 c-8 -5 -12 -12 -9 -15 4 -3 12 1 19 10 14 17 11 19 -10 5z"/>
<path d="M2460 2450 c12 -23 12 -24 -3 -11 -15 12 -17 11 -17 -3 0 -19 43 -49
65 -44 13 2 8 12 -21 43 -25 28 -33 32 -24 15z"/>
<path d="M3383 2453 c-3 -10 -17 -30 -31 -45 l-26 -28 28 0 c22 0 27 -4 22
-17 -12 -29 13 -30 72 -1 31 15 63 28 70 28 7 0 10 5 7 11 -4 6 -14 8 -22 4
-13 -4 -13 -3 -4 9 9 11 6 15 -15 20 -22 6 -32 2 -50 -21 -13 -15 -23 -24 -24
-19 0 5 8 18 17 29 17 18 17 19 -2 33 -25 18 -34 18 -42 -3z"/>
<path d="M2135 2440 c-3 -5 -1 -10 4 -10 6 0 11 5 11 10 0 6 -2 10 -4 10 -3 0
-8 -4 -11 -10z"/>
<path d="M2165 2439 c-11 -17 1 -21 15 -4 8 9 8 15 2 15 -6 0 -14 -5 -17 -11z"/>
<path d="M5655 2442 c-14 -10 -55 -88 -55 -104 0 -16 87 -12 108 4 16 14 6 77
-16 98 -13 13 -14 13 -6 0 6 -12 5 -13 -7 -3 -8 6 -19 9 -24 5z"/>
<path d="M2703 2433 c-13 -2 -23 -7 -23 -10 0 -2 10 -13 23 -24 l22 -19 -21
-18 c-11 -9 -19 -22 -17 -27 4 -12 -53 -39 -81 -40 -22 0 -35 -25 -14 -26 39
-2 105 -6 121 -8 12 0 17 -7 15 -18 -2 -10 6 -26 17 -35 12 -11 16 -21 10 -25
-20 -16 -15 -40 12 -53 16 -7 23 -15 16 -17 -22 -8 -14 -21 16 -25 27 -4 29
-3 19 16 -8 15 -7 22 7 32 17 13 17 14 1 20 -11 4 -22 1 -28 -7 -8 -11 -9 -11
-5 3 3 9 0 22 -8 28 -7 6 -19 25 -26 43 -7 18 -23 46 -36 63 -23 31 -22 47 3
37 8 -3 30 -2 49 1 28 6 35 12 35 29 0 13 6 29 13 36 10 10 1 11 -46 6 l-58
-7 5 26 c3 14 4 25 3 25 -1 -1 -12 -4 -24 -6z m83 -68 c-25 -19 -36 -19 -36 0
0 10 10 15 28 15 26 -1 26 -1 8 -15z"/>
<path d="M3165 2420 c-11 -4 -31 -6 -45 -2 -22 5 -24 4 -11 -11 19 -23 58 -21
71 3 6 11 9 20 8 19 -2 0 -12 -4 -23 -9z"/>
<path d="M1302 2390 l-32 -30 35 0 c32 0 35 2 35 30 0 17 -1 30 -2 30 -2 0
-18 -14 -36 -30z"/>
<path d="M1450 2410 c-8 -5 -12 -12 -9 -15 4 -3 12 1 19 10 14 17 11 19 -10 5z"/>
<path d="M2260 2410 c0 -5 12 -10 28 -9 24 0 25 1 7 9 -27 12 -35 12 -35 0z"/>
<path d="M2850 2410 c-13 -8 -13 -10 2 -10 9 0 20 5 23 10 8 13 -5 13 -25 0z"/>
<path d="M1551 2406 c2 -2 20 -11 39 -20 l35 -17 -25 20 c-14 11 -31 21 -39
21 -8 0 -12 -2 -10 -4z"/>
<path d="M3276 2395 c-16 -12 -17 -15 -4 -15 9 0 18 7 22 15 7 18 6 18 -18 0z"/>
<path d="M856 2369 c-16 -79 1 -103 24 -33 10 30 10 39 -2 51 -13 13 -16 11
-22 -18z"/>
<path d="M2060 2390 c-8 -5 -17 -7 -20 -5 -3 2 -11 -5 -18 -15 -11 -18 -9 -19
21 -13 39 7 40 8 35 27 -2 11 -7 13 -18 6z"/>
<path d="M2150 2370 c-12 -16 -20 -30 -18 -31 2 0 16 -2 32 -4 39 -5 54 -21
28 -29 -11 -4 -23 -13 -25 -21 -7 -17 -47 -8 -63 14 -10 13 -13 13 -28 -1 -14
-15 -19 -15 -53 2 -35 17 -38 17 -70 -1 -19 -11 -36 -19 -39 -19 -5 0 1 42 13
85 4 16 1 15 -16 -7 -11 -14 -21 -36 -21 -47 0 -16 -6 -21 -25 -21 -14 0 -29
-8 -35 -19 -14 -26 -13 -38 2 -23 7 7 27 12 44 12 18 0 44 4 57 9 15 6 37 6
54 1 15 -4 23 -9 16 -9 -6 -1 -19 -9 -28 -18 -16 -16 -16 -17 5 -25 19 -7 20
-10 9 -24 -7 -9 -14 -32 -15 -51 l-1 -34 33 32 c18 17 35 42 38 54 11 42 146
86 159 51 4 -9 -2 -24 -15 -36 -24 -22 -18 -26 13 -10 17 10 19 7 19 -23 0
-23 -8 -41 -25 -57 -14 -13 -25 -31 -25 -41 0 -16 4 -15 25 6 13 14 29 25 35
25 5 0 10 18 10 39 0 34 4 42 36 60 19 12 41 21 48 21 8 0 19 7 26 15 16 19
41 20 34 1 -3 -8 3 -16 16 -19 16 -4 21 -12 18 -32 -4 -33 -22 -34 -26 -1 l-3
24 -34 -21 c-26 -17 -34 -28 -32 -49 0 -15 5 -24 9 -22 4 3 8 2 8 -3 0 -4 11
-8 24 -8 13 0 22 3 20 7 -2 4 1 10 7 14 14 8 29 -14 22 -33 -3 -8 3 -13 17
-13 11 0 18 4 15 10 -3 6 1 7 9 4 20 -8 20 0 0 30 -10 16 -12 26 -4 31 6 3 8
11 5 16 -14 22 30 19 77 -5 51 -27 66 -28 54 -4 -32 63 -86 128 -105 128 -13
0 -13 -2 -3 -9 10 -6 5 -11 -19 -20 -22 -8 -36 -8 -43 -1 -7 7 -6 10 2 11 26
3 31 4 38 12 4 4 -5 7 -21 7 -15 0 -33 7 -39 15 -6 8 -26 18 -43 21 -30 6 -33
4 -33 -19 0 -21 -4 -24 -22 -19 -14 3 -19 1 -14 -6 9 -15 -11 -52 -27 -52 -7
0 -13 16 -13 39 -1 27 2 38 10 35 6 -2 20 2 30 9 17 13 15 15 -28 26 -36 9
-46 16 -42 27 3 8 2 12 -4 9 -6 -3 -10 -1 -10 4 0 22 -29 10 -50 -19z"/>
<path d="M3198 2393 c7 -3 16 -2 19 1 4 3 -2 6 -13 5 -11 0 -14 -3 -6 -6z"/>
<path d="M3550 2385 c0 -10 10 -15 29 -15 16 0 31 6 35 15 4 12 -3 15 -29 15
-24 0 -35 -5 -35 -15z"/>
<path d="M86 2367 c3 -10 9 -15 12 -12 3 3 0 11 -7 18 -10 9 -11 8 -5 -6z"/>
<path d="M247 2373 c-14 -14 -7 -71 9 -77 20 -8 21 -8 29 27 5 17 3 27 -4 27
-6 0 -11 7 -11 15 0 16 -12 20 -23 8z"/>
<path d="M4377 2372 c-2 -4 -4 -44 -6 -90 -3 -81 -2 -83 18 -73 11 6 23 16 27
23 11 17 5 90 -7 105 -6 7 -8 16 -5 22 3 5 -1 11 -9 15 -8 3 -16 2 -18 -2z"/>
<path d="M1020 2359 c0 -16 17 -18 35 -5 17 13 17 14 -8 14 -15 0 -27 -4 -27
-9z"/>
<path d="M1650 2366 c0 -9 53 -55 63 -56 15 0 3 53 -13 58 -13 5 -13 3 -1 -12
12 -15 12 -16 -5 -10 -10 4 -25 11 -31 17 -7 5 -13 6 -13 3z"/>
<path d="M5456 2355 c-9 -24 -7 -38 8 -58 13 -17 16 -18 40 -2 27 18 25 45 -5
45 -10 0 -22 7 -27 16 -8 15 -10 15 -16 -1z"/>
<path d="M136 2344 c-4 -9 -13 -14 -21 -10 -19 7 -19 -3 -1 -23 24 -26 23 -93
-2 -133 -25 -41 -27 -52 -8 -45 7 3 18 1 25 -6 7 -7 10 -2 10 19 0 16 3 71 6
122 6 90 4 109 -9 76z"/>
<path d="M1449 2341 c7 -12 17 -18 27 -14 17 6 17 6 -14 22 -22 12 -23 11 -13
-8z"/>
<path d="M1807 2353 c-4 -3 -7 -14 -7 -24 0 -11 -11 -19 -35 -23 -19 -4 -35
-11 -35 -16 0 -5 -9 -12 -21 -15 -16 -6 -18 -10 -9 -18 9 -9 14 -9 17 -1 2 7
17 9 43 4 46 -8 50 -6 50 32 0 16 5 38 10 49 10 18 1 27 -13 12z"/>
<path d="M3142 2337 c4 -21 0 -27 -19 -31 -12 -4 -23 -11 -23 -16 0 -17 24
-11 67 19 33 22 39 30 25 34 -9 2 -26 8 -36 13 -16 6 -18 4 -14 -19z"/>
<path d="M898 2321 c-14 -17 -15 -21 -2 -32 8 -6 15 -8 15 -3 3 21 6 54 5 54
-1 0 -9 -9 -18 -19z"/>
<path d="M4720 2305 c-13 -14 -20 -28 -17 -32 4 -3 8 -4 10 -2 1 2 13 16 26
32 31 34 13 36 -19 2z"/>
<path d="M1320 2305 c-14 -8 -34 -15 -45 -15 -18 0 -17 -2 5 -13 22 -11 29
-11 53 7 44 32 34 48 -13 21z"/>
<path d="M1518 2315 c-3 -3 -25 -8 -48 -11 -24 -3 -52 -10 -63 -15 -10 -6 -24
-8 -31 -6 -8 3 -13 -5 -13 -25 0 -29 1 -29 41 -22 23 4 56 7 73 6 44 -3 112
33 106 56 -4 17 -53 29 -65 17z"/>
<path d="M2800 2301 c0 -5 5 -13 10 -16 6 -3 10 -2 10 4 0 5 -4 13 -10 16 -5
3 -10 2 -10 -4z"/>
<path d="M3250 2297 c0 -9 -11 -24 -23 -34 l-24 -18 23 -18 c23 -17 26 -17 97
16 100 46 104 57 23 57 -35 0 -71 3 -80 6 -10 4 -16 1 -16 -9z"/>
<path d="M4158 2300 c-73 -13 -95 -55 -97 -179 -1 -72 19 -141 41 -141 8 0 68
28 77 36 2 2 -7 12 -20 23 -19 16 -24 30 -27 89 -4 61 -1 73 17 91 27 27 78
27 106 1 18 -17 27 -19 48 -11 32 12 34 22 7 46 -11 10 -20 15 -20 10 0 -4 -8
2 -17 13 -21 23 -63 32 -115 22z"/>
<path d="M38 2282 c-6 -21 17 -48 25 -29 3 7 -1 21 -8 30 -12 16 -13 16 -17
-1z"/>
<path d="M1140 2283 c0 -14 17 -15 65 -4 28 7 26 8 -17 12 -34 3 -48 1 -48 -8z"/>
<path d="M3845 2290 c-11 -5 -16 -9 -11 -9 5 -1 1 -10 -9 -21 -10 -11 -21 -17
-26 -15 -9 6 -3 -104 6 -113 4 -4 6 14 4 40 -5 54 0 58 62 58 37 0 39 1 37 29
-1 16 -6 27 -10 25 -4 -3 -8 0 -8 5 0 13 -17 13 -45 1z"/>
<path d="M4553 2281 c-11 -17 -8 -19 21 -23 23 -2 39 3 56 19 l25 23 -45 0
c-34 0 -48 -5 -57 -19z"/>
<path d="M5920 2268 c-11 -18 -20 -36 -20 -39 0 -9 79 -21 91 -14 5 4 9 24 9
46 0 37 -2 39 -30 39 -23 0 -35 -7 -50 -32z"/>
<path d="M822 2258 c-5 -7 -19 -32 -31 -56 l-22 -43 32 23 c28 21 49 54 49 79
0 13 -16 11 -28 -3z"/>
<path d="M5450 2249 c0 -5 -4 -8 -9 -4 -16 9 -24 -15 -10 -31 12 -14 14 -14
26 2 15 21 17 44 3 44 -5 0 -10 -5 -10 -11z"/>
<path d="M1231 2220 c-24 -11 -49 -20 -56 -20 -7 0 -33 -11 -56 -25 -24 -14
-57 -25 -72 -25 -23 0 -26 -3 -19 -17 11 -18 -12 -66 -48 -105 -11 -12 -20
-30 -20 -39 0 -10 -4 -21 -10 -24 -13 -8 -13 -25 1 -25 16 0 49 44 38 51 -22
13 86 125 129 134 29 5 92 38 92 47 0 5 4 7 9 4 8 -5 40 25 55 52 9 15 9 15
-43 -8z"/>
<path d="M5780 2230 c-13 -9 -13 -12 3 -21 9 -6 15 -14 12 -20 -4 -5 1 -9 9
-9 17 0 20 17 10 44 -7 19 -13 20 -34 6z"/>
<path d="M1590 2212 c0 -5 7 -13 16 -16 10 -4 14 -1 12 6 -5 15 -28 23 -28 10z"/>
<path d="M1848 2192 c4 -20 1 -22 -19 -18 -51 11 -92 11 -96 -1 -3 -8 4 -13
18 -13 27 0 99 -21 99 -29 0 -3 -5 -13 -10 -21 -6 -10 -10 -11 -10 -2 0 6 -4
12 -10 12 -5 0 -10 -6 -10 -14 0 -8 15 -17 37 -21 31 -6 39 -3 55 17 29 37 23
51 -13 32 -24 -12 -30 -12 -27 -2 3 7 17 19 31 26 17 8 27 21 27 35 0 19 -6
22 -38 22 -35 1 -38 -1 -34 -23z"/>
<path d="M1388 2203 c7 -3 16 -2 19 1 4 3 -2 6 -13 5 -11 0 -14 -3 -6 -6z"/>
<path d="M2860 2186 c0 -9 5 -16 10 -16 6 0 10 4 10 9 0 6 -4 13 -10 16 -5 3
-10 -1 -10 -9z"/>
<path d="M3870 2147 c0 -37 4 -46 25 -55 37 -17 38 -16 32 22 -5 30 -3 35 19
40 40 10 22 31 -29 34 l-47 3 0 -44z"/>
<path d="M1360 2172 c0 -18 15 -22 46 -12 16 4 22 9 14 9 -8 1 -25 4 -37 7
-13 4 -23 2 -23 -4z"/>
<path d="M2940 2161 c10 -21 30 -37 30 -26 0 14 -21 45 -31 45 -6 0 -6 -7 1
-19z"/>
<path d="M3570 2144 c42 -69 50 -80 50 -64 0 29 -12 60 -21 54 -5 -3 -9 2 -9
10 0 8 -10 20 -22 27 -21 11 -21 11 2 -27z"/>
<path d="M39 2158 c-17 -5 -29 -18 -32 -33 -2 -14 -3 -25 -2 -25 6 0 68 61 64
64 -2 2 -16 -1 -30 -6z"/>
<path d="M192 2150 c-8 -14 -9 -26 -3 -37 7 -14 11 -12 25 15 19 37 20 42 3
42 -7 0 -18 -9 -25 -20z"/>
<path d="M2108 2163 c-10 -2 -18 -12 -18 -20 0 -14 3 -14 20 2 17 15 26 28 18
24 -2 -1 -11 -3 -20 -6z"/>
<path d="M2872 2162 c-16 -5 -15 -22 2 -22 7 0 24 -8 37 -18 23 -18 59 -25 59
-12 0 4 -11 17 -25 30 -25 23 -49 30 -73 22z"/>
<path d="M3753 2150 c-11 -16 -10 -18 2 -14 8 4 15 12 15 20 0 19 -3 18 -17
-6z"/>
<path d="M1285 2140 c-14 -15 -15 -20 -4 -20 19 1 77 28 62 29 -6 1 -18 3 -25
6 -8 3 -23 -3 -33 -15z"/>
<path d="M2546 2129 c28 -30 57 -39 48 -16 -2 7 -21 20 -41 29 l-35 17 28 -30z"/>
<path d="M5655 2138 c-11 -27 -2 -73 15 -73 10 0 16 12 18 39 2 23 -1 36 -6
32 -6 -3 -12 0 -15 6 -3 9 -7 8 -12 -4z"/>
<path d="M2280 2130 c-20 -12 -5 -24 16 -12 9 5 12 12 7 15 -5 3 -15 2 -23 -3z"/>
<path d="M2627 2119 c12 -12 25 -20 28 -17 3 3 -7 13 -22 23 l-28 17 22 -23z"/>
<path d="M3948 2088 l-3 -53 -47 -3 c-47 -3 -48 -4 -48 -38 l0 -34 58 0 c35 0
66 6 79 15 25 17 43 71 43 128 0 37 -1 37 -39 37 l-40 0 -3 -52z"/>
<path d="M4774 2125 c-3 -8 -3 -19 1 -25 10 -16 45 7 39 25 -8 19 -33 19 -40
0z"/>
<path d="M5506 2132 c-2 -4 4 -21 14 -37 17 -26 20 -27 26 -11 11 29 -25 72
-40 48z"/>
<path d="M1700 2105 c-8 -9 -8 -15 -2 -15 12 0 26 19 19 26 -2 2 -10 -2 -17
-11z"/>
<path d="M4190 2110 c-8 -5 -11 -10 -6 -10 6 0 1 -7 -10 -15 -18 -15 -18 -15
-1 -29 11 -8 26 -12 35 -8 12 4 13 7 3 10 -8 3 0 10 19 18 27 12 30 16 20 29
-14 17 -38 19 -60 5z"/>
<path d="M1478 2103 c31 -6 28 -14 -19 -46 -28 -21 -47 -27 -64 -23 -18 5 -27
1 -35 -14 -10 -18 -8 -19 22 -13 18 3 40 12 49 19 8 8 26 14 38 14 14 0 25 7
28 20 3 11 14 20 24 20 10 0 21 5 25 12 5 8 0 9 -14 6 -12 -4 -22 -2 -22 3 0
5 -12 8 -27 8 -24 -2 -25 -2 -5 -6z"/>
<path d="M2610 2090 c0 -5 5 -10 10 -10 6 0 10 5 10 10 0 6 -4 10 -10 10 -5 0
-10 -4 -10 -10z"/>
<path d="M3466 2087 c3 -10 9 -15 12 -12 3 3 0 11 -7 18 -10 9 -11 8 -5 -6z"/>
<path d="M3555 2072 c2 -29 29 -79 54 -99 8 -7 32 -13 53 -13 36 0 37 1 36 35
-1 25 -6 35 -17 35 -9 0 -28 6 -43 14 -18 10 -29 11 -37 3 -7 -7 -13 -3 -20
15 -14 37 -29 43 -26 10z m90 -52 c3 -5 -1 -10 -10 -10 -9 0 -13 5 -10 10 3 6
8 10 10 10 2 0 7 -4 10 -10z"/>
<path d="M1241 2081 c-8 -5 -9 -11 -3 -15 5 -3 15 1 22 9 14 16 3 20 -19 6z"/>
<path d="M4436 2074 c-9 -8 -13 -21 -9 -27 4 -7 8 -6 11 3 3 8 9 21 15 28 14
17 1 15 -17 -4z"/>
<path d="M4500 2062 c12 -18 25 -30 30 -27 4 3 11 -5 15 -18 8 -21 8 -21 12 5
3 20 9 26 21 22 15 -5 15 -4 -1 6 -10 6 -28 10 -40 8 -12 -2 -30 6 -40 17 -13
14 -12 10 3 -13z"/>
<path d="M1404 2065 c-15 -11 -16 -14 -3 -15 8 0 24 7 35 15 15 11 16 14 3 15
-8 0 -24 -7 -35 -15z"/>
<path d="M2010 2065 c-7 -8 -19 -15 -26 -15 -8 0 -14 -10 -14 -22 0 -15 -3
-19 -8 -11 -5 8 -16 1 -36 -23 -28 -35 -31 -72 -5 -65 8 2 32 5 54 7 22 2 42
3 45 3 2 1 -6 8 -18 17 -29 20 -28 27 8 80 27 41 28 62 0 29z m-50 -99 c0 -16
-27 -29 -41 -20 -13 8 9 34 27 34 8 0 14 -6 14 -14z"/>
<path d="M2847 2069 c7 -7 15 -10 18 -7 3 3 -2 9 -12 12 -14 6 -15 5 -6 -5z"/>
<path d="M2105 2039 l-40 -30 39 3 c34 3 39 6 42 31 1 15 2 27 1 27 -1 0 -20
-14 -42 -31z"/>
<path d="M2325 2060 c-3 -5 -20 -10 -36 -10 -25 0 -29 -3 -24 -19 4 -14 -3
-21 -37 -34 -24 -9 -67 -22 -97 -28 -48 -10 -53 -13 -37 -24 14 -11 22 -10 45
1 25 12 66 19 146 24 20 1 20 1 1 15 -16 12 -17 17 -6 30 7 8 26 19 43 23 17
4 32 13 35 20 4 14 -24 16 -33 2z"/>
<path d="M2205 2052 c-49 -6 -54 -22 -8 -22 23 0 44 4 48 9 8 13 -5 17 -40 13z"/>
<path d="M2716 2038 c8 -27 32 -56 58 -70 16 -9 18 -7 13 6 -8 21 -2 20 43 -5
23 -13 45 -19 56 -15 14 5 6 12 -34 31 -29 13 -67 36 -86 50 -42 32 -60 33
-50 3z"/>
<path d="M1513 2031 c-43 -21 -47 -36 -19 -66 25 -27 40 -33 34 -13 -3 7 6 28
19 47 37 54 28 63 -34 32z"/>
<path d="M1846 2035 c-3 -8 -1 -15 3 -15 5 0 11 7 15 15 3 8 1 15 -3 15 -5 0
-11 -7 -15 -15z"/>
<path d="M2913 2039 c9 -5 17 -17 17 -25 0 -23 80 -49 87 -27 2 6 -22 23 -53
37 -57 26 -84 34 -51 15z"/>
<path d="M2538 2029 c-3 -8 -1 -23 4 -33 9 -16 7 -18 -10 -14 -30 8 -35 -17
-6 -31 18 -8 24 -8 24 1 0 6 8 20 17 30 16 18 16 20 -4 39 -16 16 -22 18 -25
8z"/>
<path d="M1028 2011 c-18 -12 -24 -21 -18 -31 7 -11 14 -8 39 12 16 14 27 29
24 32 -9 8 -14 7 -45 -13z"/>
<path d="M1785 2020 c3 -5 8 -10 11 -10 2 0 4 5 4 10 0 6 -5 10 -11 10 -5 0
-7 -4 -4 -10z"/>
<path d="M4033 2000 c-13 -33 -66 -70 -103 -70 -14 0 -31 -9 -38 -20 -14 -22
-72 -29 -72 -7 0 6 -13 25 -30 40 -16 16 -30 37 -30 48 0 10 -6 19 -14 19 -12
0 -12 -7 -1 -43 7 -24 15 -61 17 -83 3 -34 0 -39 -19 -42 -16 -2 -23 2 -23 13
0 11 -7 15 -22 13 -17 -2 -31 7 -51 35 -16 22 -30 37 -33 34 -2 -2 7 -30 21
-61 21 -48 32 -60 68 -76 55 -25 72 -25 110 2 18 13 34 23 37 24 21 3 39 18
33 27 -3 5 -1 7 5 3 5 -3 24 5 40 19 16 14 34 25 39 25 5 0 25 12 44 26 19 14
40 29 48 34 13 7 13 12 0 38 l-15 31 -11 -29z m-253 -194 c0 -11 -19 -15 -25
-6 -3 5 1 10 9 10 9 0 16 -2 16 -4z"/>
<path d="M35 1994 c-12 -19 -14 -29 -6 -37 7 -7 5 -20 -9 -42 -14 -23 -19 -48
-18 -103 1 -88 14 -106 57 -74 l28 20 -8 -41 c-4 -23 -12 -55 -18 -72 -10 -28
-10 -29 4 -10 9 11 20 38 26 60 6 22 17 62 25 89 20 68 18 73 -14 43 -15 -15
-31 -27 -34 -27 -3 0 -9 23 -13 51 -6 39 -4 54 9 68 20 22 21 45 2 38 -12 -5
-13 1 -9 29 7 41 1 43 -22 8z"/>
<path d="M153 2003 c-3 -10 -13 -27 -22 -38 -15 -19 -15 -19 3 -5 18 14 19 13
13 -27 -4 -23 -10 -50 -13 -60 -4 -11 4 -6 20 12 26 31 34 79 16 90 -6 4 -8
15 -5 26 8 24 -3 25 -12 2z"/>
<path d="M2622 1993 c23 -29 51 -76 40 -69 -10 6 -46 -34 -38 -42 10 -9 76
-11 76 -2 0 6 9 14 20 18 19 7 17 10 -18 32 -22 14 -38 30 -35 36 2 6 -7 18
-21 28 -33 21 -43 20 -24 -1z"/>
<path d="M2011 1991 c-11 -7 -10 -11 7 -20 23 -12 52 -15 52 -5 0 7 -31 33
-40 34 -3 0 -11 -4 -19 -9z"/>
<path d="M3030 1981 c0 -17 6 -21 35 -21 24 0 35 5 35 15 0 8 -6 15 -12 15 -7
0 -23 3 -35 6 -19 5 -23 2 -23 -15z"/>
<path d="M3539 1964 c12 -23 31 -50 43 -60 13 -13 9 -2 -12 31 -45 68 -56 78
-31 29z"/>
<path d="M1810 1980 c-8 -5 -12 -11 -9 -14 3 -3 14 1 25 9 21 16 8 20 -16 5z"/>
<path d="M1039 1957 c-20 -12 -34 -26 -33 -32 8 -25 -46 -45 -133 -49 -101 -5
-93 -4 -92 -13 4 -27 -8 -47 -66 -106 -36 -37 -68 -67 -71 -67 -16 0 -55 -57
-50 -73 2 -10 2 -16 -1 -13 -4 3 -11 -3 -17 -14 -6 -11 -33 -56 -61 -100 -54
-86 -86 -106 -80 -47 12 106 23 130 85 195 40 42 60 78 60 108 0 30 -18 11
-80 -83 -76 -114 -95 -153 -163 -328 -22 -56 -87 -99 -87 -57 0 19 67 163 103
222 12 19 23 44 24 55 2 11 24 50 48 86 25 36 45 74 45 84 0 10 16 33 35 51
23 21 35 41 35 58 0 33 -13 33 -28 0 -7 -14 -16 -22 -22 -19 -5 3 -14 -11 -20
-32 -21 -73 -75 -168 -97 -171 -12 -2 -24 -13 -27 -26 -3 -13 -32 -45 -63 -72
-32 -26 -66 -56 -76 -66 -22 -23 -44 -14 -25 10 16 21 91 102 139 151 25 25
38 49 43 78 3 23 9 49 13 59 10 27 -15 7 -37 -29 -17 -27 -17 -32 -4 -42 13
-9 10 -16 -19 -45 -18 -19 -44 -37 -58 -38 -13 -2 -26 -9 -28 -15 -2 -7 -22
-28 -43 -48 -21 -21 -40 -46 -41 -58 -1 -13 -8 -21 -19 -21 -20 0 -32 16 -18
25 5 3 10 16 10 28 0 15 -8 6 -24 -28 -13 -27 -33 -55 -44 -62 -18 -11 -20
-10 -17 12 3 33 -7 32 -22 -2 -16 -34 -17 -120 -1 -125 7 -3 11 -29 10 -74 -1
-55 1 -64 9 -44 5 13 15 27 21 31 6 4 11 41 13 83 1 42 5 79 9 83 7 7 35 -26
36 -42 0 -6 9 -16 19 -22 18 -11 20 -8 32 38 7 27 22 57 32 67 20 17 20 16 13
-28 -4 -25 -11 -49 -17 -54 -35 -36 34 -111 92 -101 18 3 36 8 41 11 16 10 8
-29 -13 -62 -25 -41 -27 -42 -22 -6 3 15 1 23 -4 17 -16 -20 -61 -10 -100 22
-56 47 -77 62 -87 63 -5 0 -4 -6 1 -12 5 -7 10 -42 12 -78 1 -45 7 -69 18 -77
8 -7 13 -19 10 -28 -8 -19 -27 -20 -27 0 0 10 -10 15 -30 15 -19 0 -30 -5 -30
-14 0 -8 -5 -18 -12 -22 -7 -5 -9 -2 -6 7 3 8 0 28 -7 44 -12 29 -12 28 -19
-35 -4 -36 -6 -181 -4 -324 l3 -258 203 199 c111 110 202 205 202 211 0 7 26
41 58 76 31 35 75 86 97 113 42 53 150 136 225 173 74 37 110 68 110 96 l0 25
-42 -33 c-24 -18 -58 -46 -76 -62 -24 -22 -35 -27 -43 -19 -12 12 25 56 137
164 29 28 54 59 57 70 7 25 -5 24 -28 -1 -10 -11 -24 -20 -30 -20 -7 0 -15 -7
-19 -15 -3 -8 -12 -15 -20 -15 -8 0 -17 -8 -20 -17 -4 -14 -4 -14 -3 2 2 29
-3 30 -53 18 -25 -7 -57 -14 -72 -18 -16 -3 -28 -12 -28 -19 0 -11 -20 -26
-35 -26 -10 0 6 44 25 67 l21 27 -21 8 c-31 12 -21 30 34 57 37 18 72 26 145
31 76 5 106 12 146 32 27 15 53 24 57 22 11 -7 69 25 63 35 -7 12 66 76 115
101 22 11 40 21 40 23 0 1 -51 2 -114 2 l-114 0 -60 -57 c-33 -32 -65 -58 -71
-58 -6 0 -11 -8 -12 -17 0 -10 -3 -13 -5 -6 -4 8 -22 0 -53 -22 -51 -37 -61
-41 -61 -25 0 6 11 15 25 22 13 6 29 24 34 40 8 22 7 27 -2 22 -34 -20 -107
-73 -147 -108 -59 -50 -97 -70 -106 -55 -9 16 78 92 211 185 61 42 124 92 141
110 18 19 39 34 48 34 24 0 114 62 119 82 8 27 -5 28 -44 5z m-155 -132 c-6
-14 -35 -35 -48 -35 -13 0 -5 24 12 36 23 18 43 17 36 -1z m201 -34 c9 -15
-61 -63 -85 -59 l-22 3 21 27 c12 15 31 29 44 31 12 2 25 5 29 6 4 0 9 -3 13
-8z m-218 -163 c-3 -8 -6 -5 -6 6 -1 11 2 17 5 13 3 -3 4 -12 1 -19z m-579
-176 c3 -9 -2 -13 -14 -10 -9 1 -19 9 -22 16 -3 9 2 13 14 10 9 -1 19 -9 22
-16z m388 -89 c-16 -13 -33 -22 -39 -20 -7 2 -20 -6 -30 -17 -18 -21 -18 -20
-3 10 17 35 33 50 61 56 35 8 39 -4 11 -29z m-262 -7 c-9 -15 -19 -24 -22 -22
-2 3 3 17 12 32 10 14 20 23 23 21 2 -3 -3 -17 -13 -31z m54 -28 c-3 -24 -8
-52 -12 -63 -4 -11 13 4 39 33 50 56 65 63 65 33 0 -11 5 -23 11 -27 7 -4 7
-9 2 -13 -5 -3 -27 -37 -48 -76 -21 -38 -59 -101 -84 -138 -52 -77 -53 -80
-72 -122 -8 -16 -30 -56 -50 -89 l-37 -58 -7 31 c-3 17 -4 35 0 41 14 23 -6 6
-70 -57 -37 -38 -64 -62 -60 -55 4 8 8 52 9 98 1 48 6 88 12 92 6 4 14 19 18
35 8 32 26 36 26 6 0 -11 4 -19 8 -17 18 7 81 86 107 133 l28 50 -27 -24 c-35
-33 -42 -22 -12 20 13 19 44 66 67 104 72 118 94 134 87 63z"/>
<path d="M205 914 c-19 -20 -48 -74 -42 -80 2 -3 21 18 41 46 34 48 35 68 1
34z"/>
<path d="M1219 1960 c-8 -5 -28 -11 -45 -13 -23 -3 -31 -11 -40 -38 -6 -19
-19 -35 -28 -37 -9 -2 -16 -8 -16 -13 0 -5 10 -7 23 -4 22 6 126 -7 158 -19
10 -5 20 4 31 26 10 18 27 49 40 68 l22 35 -34 -28 c-43 -35 -98 -60 -111 -51
-6 3 -24 0 -40 -6 -64 -27 -44 15 30 62 40 25 49 41 10 18z"/>
<path d="M1410 1913 c-14 -15 -32 -40 -40 -55 -10 -21 -21 -28 -42 -28 -15 0
-28 -4 -28 -8 0 -4 18 -7 40 -5 22 1 40 -2 40 -8 0 -7 68 29 89 47 2 2 -3 12
-11 21 -9 10 -18 28 -20 41 l-3 24 -25 -29z"/>
<path d="M2520 1920 c19 -13 30 -13 30 0 0 6 -10 10 -22 10 -19 0 -20 -2 -8
-10z"/>
<path d="M2865 1920 c4 -6 11 -8 16 -5 14 9 11 15 -7 15 -8 0 -12 -5 -9 -10z"/>
<path d="M229 1907 c-9 -7 -20 -33 -24 -57 -7 -45 -7 -45 13 -27 32 29 45 13
37 -47 -3 -28 -3 -48 1 -44 3 4 15 3 26 -3 18 -10 19 -8 14 18 -3 15 -10 56
-15 91 -13 85 -20 94 -52 69z"/>
<path d="M1550 1895 c-7 -9 -8 -15 -2 -15 5 0 12 7 16 15 3 8 4 15 2 15 -2 0
-9 -7 -16 -15z"/>
<path d="M1777 1891 c-51 -19 -87 -44 -49 -34 30 7 42 -25 17 -43 -26 -20 -53
-17 -57 4 -3 18 -5 18 -48 -1 -40 -18 -42 -21 -23 -28 12 -4 24 -20 27 -37 8
-35 34 -38 49 -5 13 29 35 30 47 1 8 -22 9 -22 9 5 1 35 40 97 83 131 27 21
29 26 13 25 -11 0 -42 -9 -68 -18z"/>
<path d="M2798 1903 c7 -3 16 -2 19 1 4 3 -2 6 -13 5 -11 0 -14 -3 -6 -6z"/>
<path d="M2245 1880 c-3 -5 -1 -10 6 -10 8 0 8 -4 -1 -15 -7 -8 -21 -15 -31
-15 -22 0 -99 -39 -99 -50 0 -12 54 -19 67 -9 21 18 140 3 188 -23 34 -19 115
-37 121 -27 3 5 -4 9 -16 9 -29 0 -90 33 -119 64 l-24 26 39 1 39 1 -40 9
c-21 5 -49 18 -60 29 -23 21 -60 26 -70 10z"/>
<path d="M1911 1856 c-14 -17 -4 -26 31 -26 34 0 36 13 4 28 -19 8 -27 8 -35
-2z"/>
<path d="M1990 1840 c0 -5 5 -10 10 -10 6 0 10 5 10 10 0 6 -4 10 -10 10 -5 0
-10 -4 -10 -10z"/>
<path d="M2460 1823 c54 -18 82 -18 118 2 25 13 21 14 -68 14 l-95 -1 45 -15z"/>
<path d="M1858 1785 c-30 -33 -38 -50 -38 -81 0 -22 4 -34 8 -27 11 18 103 56
133 55 25 -1 26 0 15 39 -11 42 -20 46 -50 24 -28 -21 -35 -19 -30 10 2 14 3
25 2 24 -2 0 -20 -20 -40 -44z"/>
<path d="M590 1804 c0 -8 5 -12 10 -9 6 3 10 10 10 16 0 5 -4 9 -10 9 -5 0
-10 -7 -10 -16z"/>
<path d="M1546 1798 c-3 -7 -12 -39 -22 -71 -20 -66 -55 -103 -64 -66 -4 15
-12 1 -29 -52 -13 -41 -26 -80 -29 -87 -4 -11 5 -12 44 -7 66 10 83 20 77 45
-6 24 -6 24 -44 5 -26 -14 -30 -14 -35 0 -8 20 16 55 64 94 33 26 41 28 46 15
3 -9 4 -20 0 -25 -8 -14 10 -11 32 6 12 9 14 14 5 15 -7 0 -11 6 -8 15 4 8 2
17 -3 20 -14 8 -12 72 1 81 8 4 7 9 -2 15 -19 12 -29 11 -33 -3z"/>
<path d="M1286 1760 c-51 -27 -64 -39 -51 -44 9 -3 21 -4 26 0 5 3 9 -1 9 -9
0 -14 -52 -58 -137 -115 -19 -12 -31 -27 -28 -33 4 -5 11 -7 16 -4 14 9 11 -3
-8 -33 l-18 -27 35 22 c19 11 53 26 75 33 42 13 85 46 85 65 0 11 41 55 51 55
3 0 5 -8 4 -19 -1 -23 -117 -154 -124 -142 -3 5 -35 -18 -71 -50 -51 -47 -62
-62 -51 -69 10 -5 19 -4 25 4 20 23 103 86 114 86 6 0 17 10 23 23 6 12 37 53
68 91 31 38 56 74 56 80 0 6 8 10 16 8 20 -3 34 14 43 51 l6 27 -52 -29 c-29
-17 -68 -33 -86 -36 l-33 -5 17 27 c10 16 31 40 48 55 41 37 25 33 -58 -12z"/>
<path d="M3540 1775 c0 -5 10 -19 21 -32 21 -22 21 -23 3 -29 -10 -3 -32 -12
-49 -19 -16 -8 -42 -17 -58 -20 -15 -4 -30 -11 -33 -16 -3 -5 -16 -9 -29 -9
-13 0 -27 -4 -30 -10 -3 -5 -15 -10 -26 -10 -10 0 -19 -4 -19 -8 0 -5 -6 -9
-12 -9 -43 -1 -218 -135 -218 -166 0 -9 -6 -20 -13 -24 -7 -4 -24 -23 -39 -41
-23 -27 -26 -37 -18 -58 6 -14 10 -40 10 -58 l0 -33 43 8 c39 8 44 6 62 -18
57 -77 149 -136 116 -76 -5 10 -20 41 -32 68 -12 28 -24 52 -25 54 -2 2 -12
-7 -23 -20 -11 -13 -23 -21 -27 -17 -4 4 -1 14 6 23 11 13 9 15 -13 15 -14 0
-29 5 -32 10 -3 6 -1 10 5 10 6 0 2 14 -10 30 -12 17 -17 30 -11 30 6 0 8 8 4
18 -5 13 0 11 20 -7 l26 -24 5 24 c23 109 31 136 48 153 28 26 37 9 28 -49 -5
-27 -9 -66 -9 -86 l-1 -36 53 5 c40 3 59 11 84 34 l31 30 31 -18 c17 -10 31
-22 31 -27 0 -5 7 -7 14 -4 16 6 53 -26 96 -81 25 -33 79 -56 106 -45 18 7 18
23 1 23 -21 0 -123 102 -142 143 -17 37 -40 53 -28 20 6 -16 4 -16 -9 -5 -23
18 -16 88 12 114 23 22 19 38 -9 31 -24 -6 -87 57 -68 69 19 12 32 9 71 -17
36 -25 73 -34 61 -16 -6 11 74 89 112 109 21 12 27 11 42 -2 10 -9 28 -16 40
-16 l22 0 -21 30 c-12 16 -19 33 -17 37 3 5 -9 8 -26 9 -18 1 -44 4 -59 8 -17
4 -28 2 -28 -4 0 -14 -43 -13 -58 2 -7 7 -12 8 -12 3z m-183 -200 c3 -9 2 -19
-1 -23 -8 -8 -38 10 -44 26 -6 18 38 14 45 -3z m17 -69 c36 -32 66 -62 66 -68
0 -17 -44 -4 -63 19 -29 36 -86 67 -100 55 -7 -6 -19 -7 -26 -3 -11 7 -9 11 5
20 16 9 17 12 5 20 -11 7 -10 10 5 14 32 8 40 4 108 -57z m-243 -83 c-10 -17
-10 -16 -11 3 0 23 13 41 18 25 2 -6 -1 -18 -7 -28z"/>
<path d="M3770 1748 c0 -9 5 -20 11 -23 17 -11 20 0 4 21 -13 17 -14 17 -15 2z"/>
<path d="M152 1701 c-16 -46 -15 -59 4 -39 9 9 14 27 12 44 l-3 29 -13 -34z"/>
<path d="M5894 1719 c-10 -17 17 -29 33 -14 7 8 13 16 13 19 0 11 -39 6 -46
-5z"/>
<path d="M218 1703 c-11 -12 -14 -23 -9 -32 7 -11 11 -9 21 8 16 31 8 46 -12
24z"/>
<path d="M7 1703 c-4 -3 -7 -16 -6 -27 0 -19 1 -19 10 3 10 24 8 36 -4 24z"/>
<path d="M1742 1664 c-2 -20 -8 -46 -14 -58 -8 -17 -4 -15 20 7 27 26 29 31
19 58 -15 39 -22 37 -25 -7z"/>
<path d="M1660 1651 c0 -17 -61 -81 -93 -98 -21 -11 -26 -17 -17 -23 15 -10
64 6 81 26 6 8 20 14 30 14 15 0 19 8 19 39 0 22 -4 43 -10 46 -5 3 -10 2 -10
-4z"/>
<path d="M32 1587 c-7 -16 -16 -25 -22 -22 -5 3 -10 0 -10 -8 0 -19 40 -30 46
-12 3 7 4 26 2 42 l-4 28 -12 -28z"/>
<path d="M1010 1550 c-13 -9 -13 -10 0 -10 8 0 22 5 30 10 13 9 13 10 0 10 -8
0 -22 -5 -30 -10z"/>
<path d="M770 1526 l-55 -11 49 -3 c35 -2 54 1 65 12 17 18 17 18 -59 2z"/>
<path d="M5725 1520 c-3 -5 3 -10 15 -10 12 0 18 5 15 10 -3 6 -10 10 -15 10
-5 0 -12 -4 -15 -10z"/>
<path d="M5980 1505 c0 -8 5 -15 10 -15 6 0 10 7 10 15 0 8 -4 15 -10 15 -5 0
-10 -7 -10 -15z"/>
<path d="M734 1484 c-18 -14 -18 -14 6 -3 31 14 36 19 24 19 -6 0 -19 -7 -30
-16z"/>
<path d="M1307 1475 c-31 -29 -33 -35 -12 -35 8 0 21 14 30 30 19 37 17 37
-18 5z"/>
<path d="M4574 1485 c-7 -17 1 -45 13 -45 5 0 14 9 20 20 11 16 10 21 -7 30
-16 9 -22 8 -26 -5z"/>
<path d="M978 1398 c-45 -50 -63 -78 -49 -78 12 0 41 28 41 40 0 5 14 25 31
45 44 50 25 44 -23 -7z"/>
<path d="M5410 1400 c-13 -8 -13 -10 2 -10 9 0 20 5 23 10 8 13 -5 13 -25 0z"/>
<path d="M5931 1360 c-44 -38 -32 -57 16 -25 20 14 40 25 44 25 5 0 9 7 9 15
0 24 -32 17 -69 -15z"/>
<path d="M1068 1333 c-16 -18 -48 -77 -48 -88 0 -18 20 0 29 27 6 17 19 40 28
50 9 10 14 20 11 23 -3 3 -12 -3 -20 -12z"/>
<path d="M5562 1275 c-18 -67 -16 -78 11 -70 12 4 35 19 50 34 27 26 27 28 10
48 -10 11 -27 23 -38 27 -18 5 -23 0 -33 -39z"/>
<path d="M5152 1303 c-10 -4 -52 -76 -52 -89 0 -8 73 -15 93 -10 30 7 57 83
35 97 -14 9 -55 11 -76 2z"/>
<path d="M2911 1234 c0 -11 3 -14 6 -6 3 7 2 16 -1 19 -3 4 -6 -2 -5 -13z"/>
<path d="M743 1187 c-54 -33 -78 -54 -70 -59 9 -6 9 -12 -1 -28 -14 -23 -12
-24 21 -9 14 6 30 22 36 35 10 23 31 33 31 15 0 -23 33 -18 65 10 41 37 44 49
10 49 -27 0 -32 9 -13 28 20 20 7 13 -79 -41z"/>
<path d="M2865 1179 c-33 -40 -72 -114 -53 -103 7 4 19 16 26 26 7 10 21 18
31 18 13 0 20 12 28 45 12 53 4 56 -32 14z"/>
<path d="M920 1144 c-104 -85 -118 -101 -109 -115 6 -11 11 -11 21 -1 6 6 19
12 28 12 9 0 23 11 30 25 7 14 17 25 22 25 4 0 8 6 8 14 0 7 11 21 25 30 25
16 52 56 38 55 -4 0 -33 -20 -63 -45z"/>
<path d="M5410 1120 c0 -5 5 -10 10 -10 6 0 10 5 10 10 0 6 -4 10 -10 10 -5 0
-10 -4 -10 -10z"/>
<path d="M5949 1110 l-24 -20 24 -20 c32 -27 45 -21 49 23 4 43 -12 49 -49 17z"/>
<path d="M5642 1077 c-12 -13 -22 -30 -22 -38 0 -12 2 -12 10 1 8 13 10 13 10
1 0 -22 16 -1 24 32 8 33 5 33 -22 4z"/>
<path d="M639 989 c-46 -39 -86 -73 -89 -76 -2 -2 4 -1 15 3 11 4 22 10 25 14
10 12 100 50 121 50 11 0 29 -4 39 -10 15 -8 17 -7 12 13 -3 12 -13 34 -22 49
l-17 28 -84 -71z"/>
<path d="M5028 975 c-18 -24 -24 -65 -10 -65 22 1 33 20 30 53 l-3 35 -17 -23z"/>
<path d="M5730 900 c-13 -8 -12 -10 3 -10 9 0 17 5 17 10 0 12 -1 12 -20 0z"/>
<path d="M5770 824 c-25 -13 -54 -23 -65 -24 -23 0 -94 -54 -84 -64 10 -10 97
-24 108 -17 5 4 15 19 20 34 8 22 15 26 27 19 23 -13 62 24 56 55 -5 27 -4 27
-62 -3z"/>
<path d="M5493 826 c-18 -6 -35 -16 -38 -24 -3 -10 1 -12 16 -7 13 4 25 2 29
-5 5 -9 13 -7 29 6 37 32 19 47 -36 30z"/>
<path d="M5992 754 c-1 -17 -9 -37 -18 -45 -9 -7 -29 -33 -46 -57 -29 -42 -29
-44 -12 -63 21 -24 36 -24 63 -1 20 16 22 25 19 107 -2 50 -5 76 -6 59z"/>
<path d="M4115 760 c4 -6 11 -8 16 -5 14 9 11 15 -7 15 -8 0 -12 -5 -9 -10z"/>
<path d="M4182 742 c-10 -7 -8 -13 7 -26 24 -22 61 -13 61 15 0 14 -7 19 -27
19 -16 0 -34 -4 -41 -8z"/>
<path d="M5846 718 c-24 -34 -19 -44 9 -18 14 13 25 27 25 32 0 16 -19 8 -34
-14z"/>
<path d="M1637 675 c7 -20 62 -75 74 -75 19 0 8 29 -22 59 -33 33 -63 42 -52
16z"/>
<path d="M4658 666 c-23 -17 -23 -32 -1 -40 20 -8 59 27 49 43 -9 15 -27 13
-48 -3z"/>
<path d="M5415 669 c-8 -12 -6 -15 22 -23 18 -6 20 -4 16 14 -6 21 -28 27 -38
9z"/>
<path d="M5510 645 c-7 -8 -19 -15 -26 -15 -8 0 -14 -9 -14 -20 0 -18 3 -18
28 -8 37 16 56 34 48 47 -10 15 -21 14 -36 -4z"/>
<path d="M5620 635 c0 -11 8 -13 33 -8 50 9 56 23 9 23 -30 0 -42 -4 -42 -15z"/>
<path d="M4432 569 c-38 -47 -26 -62 28 -34 35 18 35 20 12 43 -17 17 -18 16
-40 -9z"/>
<path d="M2807 563 c-4 -3 -7 -15 -7 -25 0 -13 7 -18 25 -18 29 0 32 12 9 34
-18 18 -18 18 -27 9z"/>
<path d="M3190 539 c-30 -5 -77 -7 -105 -5 -31 3 -40 2 -25 -3 25 -7 25 -7 3
-13 -13 -3 -26 -2 -29 3 -10 17 -24 9 -24 -15 0 -19 -4 -22 -25 -18 -16 3 -25
11 -25 24 0 14 -5 18 -17 14 -10 -3 -37 -10 -60 -16 -23 -6 -45 -15 -48 -20
-3 -5 -23 -8 -45 -7 -31 1 -40 6 -40 19 0 10 -4 18 -10 18 -5 0 -10 -10 -10
-22 0 -18 -2 -20 -10 -8 -7 12 -15 13 -40 3 -25 -9 -30 -9 -30 3 0 9 -11 14
-30 14 -21 0 -30 -5 -30 -16 0 -8 -4 -13 -9 -10 -5 4 -13 -6 -18 -21 -9 -27
-10 -27 -21 -7 -18 34 -4 64 29 64 16 0 29 3 29 8 0 4 -18 6 -40 4 -31 -3 -40
-8 -40 -23 0 -10 -7 -19 -15 -19 -9 0 -15 -9 -15 -25 0 -14 -4 -25 -10 -25 -5
0 -10 8 -10 18 0 19 -18 42 -33 42 -5 0 -7 -7 -3 -15 3 -9 0 -15 -9 -15 -8 0
-15 5 -15 11 0 5 -5 7 -10 4 -6 -4 -8 -10 -5 -15 9 -14 -18 -18 -75 -10 -30 4
-56 3 -58 -1 -7 -19 -22 -8 -22 16 0 26 -14 33 -26 13 -5 -8 -17 0 -36 22 -18
22 -28 29 -28 18 0 -8 -7 -21 -15 -28 -13 -10 -15 -9 -15 9 0 17 -4 21 -19 16
-11 -3 -22 -1 -26 4 -3 6 -30 9 -63 6 -31 -2 -61 -4 -66 -5 -4 0 -6 -6 -3 -14
3 -8 -1 -17 -10 -20 -18 -7 -35 2 -27 15 3 5 2 8 -3 7 -4 -1 -19 4 -32 11 -23
13 -23 12 -17 -12 5 -22 3 -24 -16 -19 -18 4 -20 2 -16 -16 6 -23 -7 -31 -15
-9 -3 7 -9 0 -16 -16 -6 -15 -16 -34 -23 -41 -11 -11 -16 -10 -29 11 l-16 25
-7 -46 c-5 -28 -12 -46 -21 -46 -7 0 -15 -7 -19 -15 -3 -8 -12 -15 -20 -15 -9
0 -18 -10 -21 -23 -4 -13 -24 -39 -46 -58 -21 -18 -39 -37 -39 -41 0 -5 278
-7 618 -5 552 2 622 4 667 20 28 9 67 17 88 17 38 0 158 35 167 49 3 5 12 11
20 15 8 3 5 4 -7 2 -27 -5 -31 15 -8 34 8 7 15 21 15 31 0 10 9 23 20 29 28
15 209 70 229 70 10 0 25 6 36 13 16 12 11 15 -46 20 -48 4 -68 11 -80 26 -10
12 -19 20 -21 20 -1 -1 -28 -5 -58 -10z m-1150 -29 c0 -5 -2 -10 -4 -10 -3 0
-8 5 -11 10 -3 6 -1 10 4 10 6 0 11 -4 11 -10z m125 -30 c3 -5 2 -10 -4 -10
-5 0 -13 5 -16 10 -3 6 -2 10 4 10 5 0 13 -4 16 -10z m470 0 c-3 -5 -10 -10
-16 -10 -5 0 -9 5 -9 10 0 6 7 10 16 10 8 0 12 -4 9 -10z"/>
<path d="M4984 525 c-3 -8 -3 -19 1 -25 9 -14 35 6 35 26 0 19 -29 18 -36 -1z"/>
<path d="M5630 530 c0 -5 5 -10 10 -10 6 0 10 5 10 10 0 6 -4 10 -10 10 -5 0
-10 -4 -10 -10z"/>
<path d="M3780 493 c0 -17 24 -33 48 -33 38 0 24 34 -16 38 -17 2 -32 -1 -32
-5z"/>
<path d="M5280 473 c-8 -4 -21 -12 -28 -20 -8 -7 -22 -11 -33 -8 -25 8 -61
-18 -87 -64 -12 -21 -22 -42 -22 -45 0 -4 26 -6 58 -4 55 3 58 4 75 41 11 20
34 49 53 63 43 33 33 56 -16 37z"/>
<path d="M5828 392 c-19 -50 -11 -73 16 -47 24 24 31 64 15 81 -12 12 -17 7
-31 -34z"/>
<path d="M5742 410 c-28 -30 -25 -64 6 -68 27 -4 34 12 24 57 l-8 35 -22 -24z"/>
<path d="M4960 410 c-8 -5 -12 -11 -9 -14 2 -3 11 -1 19 4 8 5 12 11 9 14 -2
3 -11 1 -19 -4z"/>
<path d="M5967 392 c-21 -23 -22 -42 -2 -42 9 0 20 -10 25 -22 7 -18 9 -12 9
30 1 56 -6 63 -32 34z"/>
<path d="M4876 367 c-10 -7 -16 -17 -15 -22 2 -6 -7 -29 -19 -52 -12 -23 -22
-45 -22 -48 0 -11 22 -4 53 18 55 38 55 39 37 79 -15 33 -19 36 -34 25z"/>
<path d="M5638 332 c-26 -16 -38 -42 -20 -42 9 0 33 25 46 48 9 16 7 15 -26
-6z"/>
<path d="M3280 310 c-13 -9 -13 -10 0 -10 8 0 22 5 30 10 13 9 13 10 0 10 -8
0 -22 -5 -30 -10z"/>
<path d="M5534 287 c-9 -24 6 -44 18 -22 7 11 6 21 -1 28 -7 7 -12 6 -17 -6z"/>
<path d="M5425 260 c-10 -11 -13 -20 -7 -20 6 0 16 9 22 20 6 11 9 20 7 20 -2
0 -12 -9 -22 -20z"/>
<path d="M5240 245 c-7 -9 -11 -18 -8 -20 3 -3 11 1 18 10 7 9 11 18 8 20 -3
3 -11 -1 -18 -10z"/>
<path d="M4340 230 c-6 -11 -9 -20 -8 -21 2 -1 20 -2 41 -3 29 -2 40 2 48 17
10 17 8 18 -20 12 -20 -4 -31 -3 -31 4 0 18 -19 12 -30 -9z"/>
<path d="M5830 220 l-35 -19 66 -1 c49 0 68 4 72 14 12 31 -52 34 -103 6z"/>
<path d="M5436 215 c-4 -11 1 -15 19 -15 18 0 23 4 19 15 -4 8 -12 15 -19 15
-7 0 -15 -7 -19 -15z"/>
<path d="M3170 210 c0 -5 5 -10 10 -10 6 0 10 5 10 10 0 6 -4 10 -10 10 -5 0
-10 -4 -10 -10z"/>
<path d="M2272 110 c0 -41 2 -47 7 -25 9 43 38 45 44 3 l5 -33 -2 35 c-1 28
-5 35 -21 35 -11 0 -23 9 -27 20 -3 11 -6 -4 -6 -35z"/>
<path d="M2932 110 c0 -30 2 -47 5 -37 2 9 7 17 10 17 4 0 16 -8 27 -17 l21
-18 -20 23 c-19 23 -19 24 0 38 10 8 14 14 8 14 -6 0 -17 -7 -24 -17 -13 -15
-15 -13 -20 18 -5 27 -6 23 -7 -21z"/>
<path d="M2432 109 c2 -33 7 -44 21 -45 12 -1 13 -1 2 3 -16 5 -21 49 -6 55 5
2 2 9 -6 16 -12 12 -14 8 -11 -29z"/>
<path d="M2482 110 c2 -34 7 -45 21 -46 12 -1 13 -1 2 3 -22 7 -20 53 3 54 13
0 14 2 2 6 -8 3 -18 11 -23 17 -4 6 -6 -9 -5 -34z"/>
<path d="M2732 115 c0 -23 3 -30 5 -17 2 12 12 22 21 23 14 0 14 2 2 6 -8 3
-18 11 -22 17 -4 6 -7 -7 -6 -29z"/>
<path d="M3478 143 c26 -5 29 -19 5 -27 -14 -4 -14 -4 2 -3 29 3 25 32 -5 34
-22 1 -22 1 -2 -4z"/>
<path d="M3548 143 c6 -2 18 -2 25 0 6 3 1 5 -13 5 -14 0 -19 -2 -12 -5z"/>
<path d="M3617 143 c-21 -21 9 -63 34 -47 5 3 9 0 9 -6 0 -6 -10 -15 -22 -20
-14 -5 -17 -9 -7 -9 23 -1 39 20 39 50 0 31 -34 51 -53 32z m39 -14 c10 -17
-13 -36 -27 -22 -12 12 -4 33 11 33 5 0 12 -5 16 -11z"/>
<path d="M3718 140 c28 -12 28 -18 -5 -52 l-27 -28 35 1 c25 1 28 3 11 6 l-24
5 22 24 c19 19 21 26 10 39 -7 8 -20 15 -29 14 -11 0 -9 -3 7 -9z"/>
<path d="M3791 128 c-13 -21 -13 -22 2 -9 15 12 17 11 17 -9 0 -17 -4 -21 -20
-17 -11 3 -20 1 -20 -4 0 -5 9 -9 20 -9 11 0 20 -6 20 -12 0 -10 2 -10 8 -1 9
14 3 83 -7 83 -3 0 -12 -10 -20 -22z"/>
<path d="M3868 143 c6 -2 18 -2 25 0 6 3 1 5 -13 5 -14 0 -19 -2 -12 -5z"/>
<path d="M3942 138 c-28 -28 -3 -85 32 -72 13 5 16 16 14 43 -3 38 -24 51 -46
29z m33 -34 c0 -19 -5 -29 -15 -29 -16 0 -25 28 -16 51 10 25 31 10 31 -22z"/>
<path d="M4028 143 c6 -2 12 -20 12 -38 0 -18 -6 -36 -12 -38 -7 -3 1 -5 17
-5 17 0 24 2 18 5 -8 2 -13 22 -13 44 0 31 -4 39 -17 38 -11 0 -13 -3 -5 -6z"/>
<path d="M4094 135 c-10 -25 4 -48 26 -42 27 7 25 -12 -2 -23 -14 -5 -17 -9
-7 -9 23 -1 39 20 39 50 0 36 -44 55 -56 24z m42 -6 c10 -17 -13 -36 -27 -22
-12 12 -4 33 11 33 5 0 12 -5 16 -11z"/>
<path d="M1841 114 c0 -11 3 -14 6 -6 3 7 2 16 -1 19 -3 4 -6 -2 -5 -13z"/>
<path d="M1877 124 c-4 -4 -7 -14 -7 -23 0 -13 2 -13 9 -3 6 10 10 6 16 -15
l8 -28 14 34 c8 18 12 36 9 38 -3 3 -8 -7 -12 -22 l-7 -28 -11 27 c-6 15 -14
24 -19 20z"/>
<path d="M1951 114 c0 -11 3 -14 6 -6 3 7 2 16 -1 19 -3 4 -6 -2 -5 -13z"/>
<path d="M1987 124 c-4 -4 -7 -14 -7 -23 0 -13 2 -13 9 -3 6 10 10 6 16 -15
l8 -28 14 34 c8 18 12 36 9 38 -3 3 -8 -7 -12 -22 l-7 -28 -11 27 c-6 15 -14
24 -19 20z"/>
<path d="M2061 114 c0 -11 3 -14 6 -6 3 7 2 16 -1 19 -3 4 -6 -2 -5 -13z"/>
<path d="M2097 124 c-4 -4 -7 -14 -7 -23 0 -13 2 -13 9 -3 6 10 10 6 16 -15
l8 -28 14 34 c8 18 12 36 9 38 -3 3 -8 -7 -12 -22 l-7 -28 -11 27 c-6 15 -14
24 -19 20z"/>
<path d="M2205 120 c-8 -14 3 -30 21 -30 20 0 18 -18 -3 -23 -15 -3 -14 -4 1
-3 27 1 32 26 7 33 -26 7 -27 20 -3 26 15 4 15 5 0 6 -9 0 -20 -3 -23 -9z"/>
<path d="M2352 105 c0 -16 2 -22 5 -12 2 9 2 23 0 30 -3 6 -5 -1 -5 -18z"/>
<path d="M2403 95 c0 -22 2 -30 4 -17 2 12 2 30 0 40 -3 9 -5 -1 -4 -23z"/>
<path d="M2542 118 c-22 -22 -14 -35 19 -30 21 3 29 9 27 21 -4 20 -30 25 -46
9z m38 -8 c0 -5 -9 -10 -21 -10 -11 0 -17 5 -14 10 3 6 13 10 21 10 8 0 14 -4
14 -10z"/>
<path d="M2611 90 c1 -27 3 -29 6 -10 2 14 11 30 20 37 13 10 13 12 -6 10 -17
-1 -21 -7 -20 -37z"/>
<path d="M2665 120 c-8 -14 3 -30 21 -30 20 0 18 -18 -3 -23 -15 -3 -14 -4 1
-3 27 1 32 26 7 33 -26 7 -27 20 -3 26 15 4 15 5 0 6 -9 0 -20 -3 -23 -9z"/>
<path d="M2793 123 c-7 -2 -13 -17 -12 -31 l1 -27 7 24 c8 30 29 39 38 15 4
-11 0 -22 -12 -30 -20 -15 -16 -18 9 -8 9 3 16 16 16 29 0 18 -22 40 -33 34
-1 0 -8 -3 -14 -6z"/>
<path d="M2873 123 c-7 -2 -13 -15 -13 -28 0 -22 18 -36 43 -34 7 0 2 4 -10 9
-13 5 -23 16 -23 25 0 9 10 20 23 25 12 5 15 9 7 9 -8 -1 -21 -3 -27 -6z"/>
<path d="M3063 123 c-7 -2 -13 -15 -13 -28 0 -22 18 -36 43 -34 7 0 2 4 -10 9
-13 5 -23 16 -23 25 0 9 10 20 23 25 12 5 15 9 7 9 -8 -1 -21 -3 -27 -6z"/>
<path d="M3153 119 c9 -5 17 -16 17 -24 0 -8 -8 -19 -17 -24 -20 -12 -13 -14
11 -5 32 12 13 65 -22 64 -4 0 1 -5 11 -11z"/>
<path d="M3201 91 c1 -36 1 -36 8 -6 8 40 38 46 44 8 4 -28 4 -28 3 2 -1 26
-5 30 -28 31 -26 1 -28 -2 -27 -35z"/>
<path d="M3270 126 c0 -2 7 -7 16 -10 8 -3 12 -2 9 4 -6 10 -25 14 -25 6z"/>
<path d="M3122 95 c0 -16 2 -22 5 -12 2 9 2 23 0 30 -3 6 -5 -1 -5 -18z"/>
<path d="M3558 110 c29 -12 24 -32 -9 -41 -20 -6 -21 -7 -4 -8 11 0 27 4 35 9
19 12 2 44 -26 47 -14 2 -13 0 4 -7z"/>
<path d="M3878 110 c29 -12 24 -32 -9 -41 -20 -6 -21 -7 -4 -8 11 0 27 4 35 9
19 12 2 44 -26 47 -14 2 -13 0 4 -7z"/>
<path d="M3501 92 c-1 -7 -11 -17 -23 -22 -13 -5 -16 -9 -8 -9 23 -1 43 15 37
30 -4 11 -6 11 -6 1z"/>
<path d="M1850 76 c0 -9 5 -16 10 -16 6 0 10 4 10 9 0 6 -4 13 -10 16 -5 3
-10 -1 -10 -9z"/>
<path d="M1960 76 c0 -9 5 -16 10 -16 6 0 10 4 10 9 0 6 -4 13 -10 16 -5 3
-10 -1 -10 -9z"/>
<path d="M2070 76 c0 -9 5 -16 10 -16 6 0 10 4 10 9 0 6 -4 13 -10 16 -5 3
-10 -1 -10 -9z"/>
<path d="M2368 63 c7 -3 16 -2 19 1 4 3 -2 6 -13 5 -11 0 -14 -3 -6 -6z"/>
<path d="M2558 63 c7 -3 16 -2 19 1 4 3 -2 6 -13 5 -11 0 -14 -3 -6 -6z"/>
<path d="M2748 63 c7 -3 16 -2 19 1 4 3 -2 6 -13 5 -11 0 -14 -3 -6 -6z"/>
</g>
</svg>
