<?xml version="1.0" standalone="no"?>
<!DOCTYPE svg PUBLIC "-//W3C//DTD SVG 20010904//EN"
 "http://www.w3.org/TR/2001/REC-SVG-20010904/DTD/svg10.dtd">
<svg version="1.0" xmlns="http://www.w3.org/2000/svg"
 width="600.000000pt" height="424.000000pt" viewBox="0 0 600.000000 424.000000"
 preserveAspectRatio="xMidYMid meet">

<g transform="translate(0.000000,424.000000) scale(0.100000,-0.100000)"
fill="#000000" stroke="none">
<path d="M1 4193 c1 -39 2 -43 9 -23 4 14 9 21 9 15 2 -16 21 18 21 38 0 10
-8 17 -20 17 -17 0 -20 -6 -19 -47z"/>
<path d="M96 4224 c-3 -9 -6 -32 -6 -52 0 -46 -21 -214 -27 -209 -2 3 1 51 6
108 5 57 8 105 6 107 -2 2 -8 -6 -14 -17 -15 -27 -31 -111 -21 -111 3 0 3 -30
-2 -67 -6 -40 -6 -68 0 -72 5 -3 8 -21 7 -38 -5 -89 -4 -86 -20 -73 -18 15
-21 -1 -5 -31 6 -11 7 -25 3 -32 -12 -19 -13 -59 -18 -499 l-5 -418 28 0 29 0
12 168 c19 257 24 449 12 469 -9 15 -11 14 -11 -12 -1 -16 -4 -25 -6 -18 -6
14 23 324 31 331 3 3 5 -14 5 -38 0 -44 12 -46 24 -5 6 25 -1 -48 -10 -95 -4
-25 -3 -32 4 -25 19 17 35 156 29 250 -2 50 -1 77 3 60 7 -27 8 -25 9 18 1 34
-2 46 -11 41 -8 -5 -9 -2 -5 10 4 10 7 22 7 27 0 6 3 8 8 6 4 -3 6 45 5 106
-2 62 -3 115 -3 120 0 14 -58 7 -64 -9z m-39 -861 c-3 -10 -5 -2 -5 17 0 19 2
27 5 18 2 -10 2 -26 0 -35z m-20 -190 c-3 -10 -5 -2 -5 17 0 19 2 27 5 18 2
-10 2 -26 0 -35z m-10 -100 c-3 -10 -5 -2 -5 17 0 19 2 27 5 18 2 -10 2 -26 0
-35z m-10 -45 c-3 -8 -6 -5 -6 6 -1 11 2 17 5 13 3 -3 4 -12 1 -19z"/>
<path d="M284 4202 c-21 -25 -33 -52 -37 -84 -8 -58 6 -56 46 6 32 52 33 60 6
53 -33 -9 -16 17 19 29 18 5 37 15 44 22 9 9 5 12 -17 11 -22 0 -39 -11 -61
-37z"/>
<path d="M413 4167 c-7 -43 -13 -106 -12 -140 l1 -62 14 65 c8 36 13 99 12
140 l-3 75 -12 -78z"/>
<path d="M851 4224 c0 -11 3 -14 6 -6 3 7 2 16 -1 19 -3 4 -6 -2 -5 -13z"/>
<path d="M1152 4215 c-7 -14 -12 -40 -12 -57 0 -16 -7 -57 -16 -91 -13 -49
-13 -62 -2 -68 7 -5 18 -7 24 -5 8 3 9 -6 2 -33 -9 -34 -12 -37 -39 -33 -25 4
-29 1 -29 -18 0 -12 -9 -58 -21 -102 -23 -93 -22 -134 3 -132 19 2 18 -14 -3
-80 -5 -16 -9 -38 -9 -50 0 -11 -12 -30 -27 -43 -25 -19 -25 -21 -6 -17 20 6
21 4 11 -33 -8 -35 -13 -40 -41 -41 -62 -2 -102 -9 -122 -19 -20 -11 -50 -91
-47 -128 0 -10 -3 -24 -7 -30 -4 -5 -11 -20 -14 -32 -8 -33 18 -29 32 5 7 15
39 51 71 80 55 49 63 53 98 48 20 -3 39 -6 42 -6 3 0 -3 -7 -14 -15 -10 -7
-15 -18 -12 -24 4 -5 1 -13 -5 -17 -7 -4 -10 -3 -7 2 4 5 -7 10 -23 11 -16 1
-29 -2 -29 -7 0 -6 9 -10 20 -10 11 0 20 -5 20 -11 0 -6 -9 -9 -19 -6 -13 3
-23 -3 -31 -22 -31 -65 -40 -91 -31 -91 5 0 18 23 30 50 12 28 26 50 32 50 6
0 7 -4 4 -10 -15 -25 22 4 40 30 11 17 28 30 38 30 11 0 17 8 17 25 0 17 -6
25 -17 25 -15 0 -16 2 -3 10 9 5 17 5 21 -1 3 -5 17 -1 32 11 21 17 27 18 27
7 0 -8 -11 -22 -25 -31 -14 -9 -23 -21 -20 -26 3 -5 -7 -17 -22 -27 -49 -31
-71 -59 -36 -46 12 5 15 2 10 -10 -6 -16 3 -21 40 -20 18 1 4 -25 -18 -32 -10
-4 -19 -11 -19 -16 0 -5 -5 -9 -10 -9 -6 0 -3 11 6 25 18 28 9 32 -23 10 -16
-12 -22 -12 -26 -2 -4 9 -6 9 -6 -1 -1 -7 -12 -28 -26 -46 -14 -18 -25 -40
-25 -48 0 -9 -7 -29 -16 -44 l-16 -29 7 40 c3 22 8 49 11 60 4 16 3 17 -5 5
-6 -8 -11 -23 -11 -32 0 -21 -8 -22 -44 -8 -16 6 -26 17 -26 30 0 11 -7 20
-16 20 -8 0 -12 -4 -9 -10 3 -5 -1 -10 -9 -10 -20 0 -23 -6 -31 -70 -6 -44 -5
-53 6 -43 7 7 12 28 11 48 -1 32 1 35 28 35 17 0 39 -9 49 -19 14 -14 21 -16
25 -8 2 7 5 2 5 -10 1 -25 -15 -39 -22 -21 -3 7 -6 -2 -7 -19 -4 -50 -4 -51
-22 -65 -25 -20 -49 -118 -28 -118 6 0 10 18 10 40 0 29 4 40 15 40 8 0 15 -6
15 -12 1 -7 10 5 22 27 14 26 17 40 9 43 -13 4 -5 22 11 22 6 0 8 -13 6 -29
-4 -24 -1 -29 14 -26 16 4 18 -1 12 -33 -7 -41 -21 -94 -36 -132 -8 -19 -12
-21 -17 -10 -3 8 -16 15 -29 14 -18 -1 -20 1 -11 13 7 7 9 16 5 20 -3 3 -6 1
-6 -6 0 -9 -9 -12 -25 -9 -20 4 -26 1 -31 -18 -5 -19 -11 -22 -34 -18 -24 5
-28 2 -35 -23 -4 -15 -8 -59 -10 -96 -2 -54 -6 -71 -21 -81 -10 -8 -28 -37
-39 -65 -13 -34 -22 -47 -28 -38 -5 7 -6 2 -3 -15 4 -17 1 -30 -7 -35 -7 -4
-19 -27 -25 -50 -13 -43 -26 -54 -35 -30 -2 6 -8 9 -12 5 -4 -4 0 -14 9 -23
20 -21 20 -29 0 -21 -11 4 -14 1 -9 -13 3 -10 -2 -41 -11 -67 -19 -57 -38 -84
-24 -33 6 19 15 113 20 209 6 96 12 189 15 205 2 17 -5 -7 -16 -53 -16 -64
-24 -81 -33 -73 -7 6 -16 8 -19 4 -13 -12 -7 -44 8 -49 19 -8 19 -28 -2 -117
l-16 -72 -13 65 c-7 36 -19 80 -27 99 -11 26 -12 41 -4 58 9 20 7 26 -11 39
-23 16 -31 71 -12 90 6 6 3 28 -10 64 -14 37 -16 57 -9 66 5 7 7 24 3 39 -7
27 -7 27 -20 -11 -7 -21 -11 -40 -9 -43 3 -2 -4 -11 -15 -18 -11 -8 -18 -18
-15 -23 3 -4 -11 -32 -30 -61 -19 -30 -35 -64 -35 -76 0 -13 -9 -63 -19 -111
-11 -48 -22 -118 -26 -157 -8 -81 -31 -172 -47 -181 -11 -7 -3 294 8 341 5 20
5 20 -10 1 -9 -11 -16 -26 -16 -33 0 -7 -4 -13 -10 -13 -5 0 -10 -16 -10 -35
0 -20 -12 -82 -26 -138 -20 -80 -23 -108 -15 -130 10 -26 13 -27 83 -27 40 0
96 -3 123 -6 l51 -6 17 103 c21 127 21 153 2 169 -21 17 -4 34 25 25 21 -7 21
-12 19 -119 -1 -62 1 -118 5 -124 3 -6 4 -23 0 -37 -6 -26 -6 -26 45 -24 42 2
52 6 57 23 3 12 12 35 19 51 6 17 17 48 24 70 29 93 65 174 74 168 6 -3 7 -1
3 5 -4 6 -2 21 4 32 7 13 7 20 0 20 -5 0 -10 5 -10 11 0 5 10 9 21 7 17 -2 23
3 26 22 2 14 6 32 10 40 3 8 8 26 10 40 6 33 31 72 43 65 6 -4 7 1 3 11 -4 12
-3 15 5 10 7 -4 12 -1 12 9 0 9 -5 13 -10 10 -14 -9 -13 1 6 43 58 134 56 133
90 107 16 -12 17 -16 5 -24 -12 -8 -12 -12 -2 -25 8 -10 9 -16 3 -16 -6 0 -17
9 -25 20 -13 19 -14 18 -27 -20 -7 -22 -18 -40 -23 -40 -15 0 0 -71 22 -101
l20 -27 -30 -159 c-17 -87 -35 -181 -39 -209 -4 -29 -20 -105 -35 -170 -14
-66 -31 -140 -37 -167 -5 -26 -14 -49 -18 -52 -9 -6 -24 67 -22 107 1 14 -3
39 -9 55 -7 15 -11 68 -9 117 2 105 -9 110 -46 21 -29 -72 -28 -65 -6 -66 14
0 13 -2 -4 -9 -26 -10 -35 -69 -34 -200 1 -47 -3 -100 -9 -119 -6 -19 -8 -52
-5 -72 7 -41 -12 -135 -29 -146 -7 -4 -9 21 -5 83 3 49 3 116 -1 149 l-6 60
-18 -49 c-9 -27 -17 -68 -17 -92 0 -24 -6 -47 -14 -53 -8 -7 -18 -26 -21 -42
-4 -16 -11 -31 -16 -34 -5 -4 -9 -17 -9 -30 0 -14 -15 -82 -33 -152 -19 -70
-39 -148 -45 -173 -6 -25 -14 -54 -18 -65 -6 -14 9 -6 47 25 61 51 70 61 63
72 -3 5 0 7 7 6 9 -2 13 9 12 37 -1 25 1 30 4 15 3 -14 10 -28 16 -32 6 -4
-11 -38 -44 -88 -30 -46 -53 -92 -52 -104 2 -19 2 -19 -5 -2 -8 17 -9 17 -25
2 -9 -10 -17 -23 -17 -31 0 -24 12 -45 22 -39 5 3 12 -4 15 -16 5 -18 11 -10
34 42 16 35 29 79 29 99 0 24 7 42 23 56 32 28 148 301 141 333 -3 19 -2 21 4
7 7 -17 9 -16 20 8 7 14 10 30 7 35 -3 5 3 17 13 27 10 10 23 29 29 43 13 29
78 253 130 445 19 72 41 153 48 180 l14 50 -5 -70 c-3 -38 -8 -73 -10 -77 -3
-4 -1 -16 5 -25 11 -20 14 -15 25 37 15 74 57 215 66 224 7 7 10 -3 10 -34 0
-51 8 -45 38 27 20 47 21 54 7 87 -21 49 -19 57 5 21 14 -22 20 -25 20 -12 0
9 -5 26 -12 37 -15 24 -4 37 17 20 11 -9 15 -9 15 -1 0 18 -21 55 -36 64 -14
8 -8 37 10 49 6 4 19 5 29 2 25 -8 22 22 -5 40 l-21 15 18 98 c18 97 24 139
43 280 7 52 18 83 40 115 16 24 32 60 36 81 7 37 7 37 57 37 31 0 48 4 44 10
-3 6 -18 7 -33 3 -26 -6 -25 -4 16 41 47 52 49 62 8 47 -32 -13 -34 -21 -3
-14 17 4 14 0 -13 -20 -19 -14 -44 -35 -56 -47 -19 -20 -59 -19 -52 1 10 28
84 117 92 109 5 -5 18 -5 31 0 13 5 26 6 29 3 3 -4 6 -1 6 7 0 9 -9 11 -32 6
l-32 -6 29 32 c66 73 64 72 74 46 l10 -23 0 23 c1 13 6 32 11 43 10 17 8 18
-15 9 -42 -16 -68 -31 -94 -54 l-25 -21 22 31 c28 41 52 61 52 44 0 -31 83 46
85 80 1 9 13 32 28 52 38 49 34 55 -13 16 -26 -21 -39 -39 -36 -51 2 -9 0 -14
-5 -11 -6 3 -19 -6 -30 -20 -11 -14 -26 -26 -34 -26 -7 0 -18 -14 -25 -30 -7
-17 -27 -42 -44 -55 -50 -40 -75 -68 -70 -77 3 -4 -2 -5 -10 -2 -14 5 -14 9 3
33 10 14 21 53 25 86 5 44 13 67 31 85 30 31 34 51 5 25 -24 -21 -24 -16 -8
70 9 47 17 64 27 62 20 -3 35 64 25 111 l-8 37 -7 -45 c-4 -25 -4 -9 -1 35 2
44 5 98 6 119 1 22 7 41 14 43 6 3 12 18 12 34 0 16 5 29 11 29 6 0 9 6 6 14
-3 7 -1 18 4 23 5 5 12 30 15 56 l7 47 -35 0 c-28 0 -37 -5 -46 -25z m-25
-337 c-3 -8 -6 -5 -6 6 -1 11 2 17 5 13 3 -3 4 -12 1 -19z m-137 -737 c0 -5
-7 -14 -15 -21 -12 -10 -15 -10 -15 2 0 8 3 18 7 21 9 10 23 9 23 -2z m-34
-68 c-10 -10 -19 5 -10 18 6 11 8 11 12 0 2 -7 1 -15 -2 -18z m-201 -353 c3
-5 1 -10 -4 -10 -6 0 -11 5 -11 10 0 6 2 10 4 10 3 0 8 -4 11 -10z m122 -22
c-3 -8 -6 -5 -6 6 -1 11 2 17 5 13 3 -3 4 -12 1 -19z m73 -219 c0 -5 -7 -9
-15 -9 -15 0 -20 12 -9 23 8 8 24 -1 24 -14z m-358 -637 c12 -10 17 -28 16
-54 -1 -29 -4 -35 -10 -24 -5 9 -17 16 -26 16 -10 0 -23 5 -30 12 -12 12 -17
60 -6 71 8 7 35 -2 56 -21z m27 -179 c0 -25 -1 -25 -8 -8 -5 11 -7 23 -4 28 8
14 13 7 12 -20z m-49 -83 c0 -11 -4 -20 -9 -20 -14 0 -23 18 -16 30 10 17 25
11 25 -10z m-162 -212 c-3 -34 -20 -42 -26 -13 -5 22 5 45 18 45 7 0 10 -14 8
-32z"/>
<path d="M1810 4206 c0 -18 -2 -49 -6 -67 l-5 -34 15 34 c18 37 21 101 6 101
-5 0 -10 -15 -10 -34z"/>
<path d="M1926 4231 c-4 -5 -9 -31 -13 -58 -6 -44 -5 -47 10 -34 10 7 17 24
17 37 0 12 5 26 10 29 15 9 12 35 -4 35 -8 0 -17 -4 -20 -9z"/>
<path d="M1972 4173 c-7 -38 -15 -88 -18 -111 -4 -24 -13 -46 -20 -49 -8 -3
-14 -20 -14 -38 0 -19 -4 -37 -10 -40 -5 -3 -10 -29 -10 -57 0 -42 3 -49 16
-44 9 3 23 6 33 6 14 0 17 12 19 86 1 55 7 97 17 117 9 18 19 69 22 115 5 69
4 82 -9 82 -10 0 -18 -20 -26 -67z"/>
<path d="M2540 4210 c0 -16 -4 -49 -10 -72 -25 -110 -76 -415 -90 -548 -6 -52
-14 -118 -19 -147 -5 -31 -4 -56 2 -62 5 -5 5 -17 -2 -29 -6 -11 -11 -32 -11
-46 0 -13 -6 -27 -12 -29 -7 -3 -4 -6 8 -6 11 -1 25 -6 32 -13 6 -6 15 -9 18
-5 4 4 20 98 35 209 16 112 33 232 39 268 5 36 15 117 21 180 6 63 15 156 20
205 12 125 12 125 -11 125 -16 0 -20 -7 -20 -30z"/>
<path d="M21 4133 c0 -25 1 -26 9 -8 12 27 12 35 0 35 -5 0 -10 -12 -9 -27z"/>
<path d="M1606 4103 c-5 -26 -9 -101 -7 -132 1 -8 4 -11 8 -8 7 8 17 167 10
167 -3 0 -8 -12 -11 -27z"/>
<path d="M1437 3960 c-3 -85 -4 -157 -1 -159 2 -2 10 11 18 30 11 27 12 57 5
149 -5 63 -11 120 -13 125 -1 6 -5 -60 -9 -145z"/>
<path d="M2143 4058 c-47 -50 -100 -208 -70 -208 25 0 57 13 57 22 0 5 -4 7
-9 3 -6 -3 1 22 15 55 13 34 22 65 19 70 -4 6 -2 10 3 10 15 0 22 28 14 50 -8
21 -8 21 -29 -2z"/>
<path d="M1815 4047 c-4 -15 -11 -27 -15 -27 -12 0 -32 -154 -20 -158 15 -5
12 -23 -7 -44 -15 -17 -15 -18 10 -18 38 0 70 34 63 68 -3 15 -7 62 -8 105 -2
85 -12 117 -23 74z"/>
<path d="M450 4003 c0 -23 5 -45 10 -48 13 -8 13 55 0 75 -7 11 -10 4 -10 -27z"/>
<path d="M392 3935 c0 -16 2 -22 5 -12 2 9 2 23 0 30 -3 6 -5 -1 -5 -18z"/>
<path d="M961 3944 c0 -11 3 -14 6 -6 3 7 2 16 -1 19 -3 4 -6 -2 -5 -13z"/>
<path d="M276 3847 c3 -10 9 -15 12 -12 3 3 0 11 -7 18 -10 9 -11 8 -5 -6z"/>
<path d="M726 3798 c-9 -12 -16 -33 -16 -45 0 -18 6 -23 25 -23 23 0 25 4 25
45 0 50 -11 57 -34 23z"/>
<path d="M2330 3810 l-35 -7 40 -1 c22 0 54 4 70 8 l30 8 -35 0 c-19 -1 -51
-4 -70 -8z"/>
<path d="M2210 3799 c-43 -11 -159 -14 -188 -5 -11 4 -23 2 -27 -4 -4 -6 7
-10 29 -10 36 0 36 0 36 -45 0 -58 -22 -111 -49 -118 -33 -8 -43 16 -39 91 l3
69 -73 2 c-60 1 -80 -2 -110 -21 -27 -16 -33 -18 -23 -5 8 10 9 17 3 17 -6 0
-14 -5 -18 -11 -3 -6 -14 -9 -23 -6 -9 2 -22 -2 -29 -10 -17 -18 -52 -17 -52
2 0 13 -5 12 -28 -5 -16 -12 -35 -22 -43 -23 -8 -2 -20 -6 -26 -10 -7 -5 -17
-6 -22 -3 -10 7 -127 -60 -138 -78 -18 -27 -11 -34 21 -20 17 8 48 21 68 30
21 9 36 20 33 25 -3 4 20 20 50 35 59 27 87 27 38 -1 -29 -17 -18 -14 57 15
93 36 93 36 88 -2 -6 -56 15 -62 36 -11 18 43 45 63 83 63 13 0 15 -12 11 -79
-4 -71 -2 -81 16 -97 25 -22 146 -27 146 -6 0 10 20 17 43 13 4 0 7 12 7 28 0
17 5 33 10 36 6 3 10 33 10 66 l0 59 43 1 c23 0 60 6 82 14 45 15 28 18 -25 4z"/>
<path d="M637 3700 c4 -16 8 -18 19 -9 16 13 10 29 -11 29 -8 0 -11 -7 -8 -20z"/>
<path d="M1140 3685 c-8 -9 -8 -15 -2 -15 12 0 26 19 19 26 -2 2 -10 -2 -17
-11z"/>
<path d="M632 3658 c-1 -9 -7 -18 -13 -20 -6 -2 -11 -17 -11 -33 0 -17 -5 -33
-10 -36 -5 -3 -2 -11 6 -18 22 -18 38 19 33 77 -2 26 -4 40 -5 30z"/>
<path d="M1246 3625 c-11 -8 -16 -15 -12 -15 5 0 3 -7 -4 -15 -7 -8 -10 -15
-7 -15 3 0 15 14 27 30 24 34 23 36 -4 15z"/>
<path d="M1683 3633 c9 -2 23 -2 30 0 6 3 -1 5 -18 5 -16 0 -22 -2 -12 -5z"/>
<path d="M1531 3619 c-35 -4 -67 -12 -70 -16 -3 -4 -27 -18 -53 -30 -27 -13
-48 -28 -48 -34 0 -6 20 1 44 15 51 30 212 55 249 39 41 -18 52 -1 12 18 -42
21 -40 20 -134 8z"/>
<path d="M1745 3620 c3 -5 8 -10 11 -10 2 0 4 5 4 10 0 6 -5 10 -11 10 -5 0
-7 -4 -4 -10z"/>
<path d="M1340 3601 c-6 -12 -7 -21 -3 -21 4 0 -3 -9 -17 -20 -14 -11 -20 -20
-14 -20 6 0 17 7 24 15 7 8 19 15 26 15 8 0 13 8 11 20 -5 30 -14 34 -27 11z"/>
<path d="M887 3587 c-3 -8 -1 -19 5 -25 7 -7 6 -17 -2 -32 -6 -12 -9 -24 -6
-27 3 -3 13 11 23 31 15 33 15 38 1 52 -13 13 -16 14 -21 1z"/>
<path d="M1825 3590 c27 -12 43 -12 25 0 -8 5 -22 9 -30 9 -10 0 -8 -3 5 -9z"/>
<path d="M1723 3583 c18 -5 24 -23 7 -23 -6 0 -9 -13 -8 -30 2 -27 28 -45 28
-20 0 6 -5 10 -11 10 -5 0 -7 5 -4 11 12 19 145 -11 145 -32 0 -5 -5 -18 -12
-29 -7 -10 -9 -23 -5 -27 7 -7 20 6 31 32 7 16 27 -18 23 -40 -2 -15 8 -25 40
-41 25 -12 38 -15 32 -8 -9 10 -8 22 1 43 15 37 47 46 80 23 50 -36 67 -35 31
2 -36 37 -48 66 -28 66 7 0 5 5 -3 10 -8 5 -22 10 -30 10 -13 0 -13 -1 0 -10
29 -20 -35 -5 -66 14 l-29 19 25 -29 25 -28 -27 17 c-16 10 -28 13 -28 8 0 -5
-38 6 -85 25 -47 19 -99 33 -117 33 -18 -1 -25 -3 -15 -6z m328 -100 c13 -17
13 -17 -6 -3 -11 8 -22 16 -24 17 -2 2 0 3 6 3 6 0 17 -8 24 -17z"/>
<path d="M2051 3576 c2 -2 21 -8 41 -14 30 -8 36 -8 31 4 -3 8 -19 14 -41 14
-19 0 -33 -2 -31 -4z"/>
<path d="M2796 3538 c-15 -92 -17 -191 -4 -199 16 -10 15 -86 -1 -184 -24
-139 -24 -155 -7 -174 9 -10 16 -24 14 -31 -2 -7 4 -15 12 -18 8 -2 12 -1 8 3
-4 5 -2 15 5 23 8 10 12 56 13 141 0 69 4 195 9 279 6 113 5 152 -3 152 -8 0
-12 -21 -12 -60 0 -37 -4 -60 -11 -60 -7 0 -10 28 -8 85 4 91 -4 113 -15 43z"/>
<path d="M1455 3499 c102 -20 105 -22 85 -60 -9 -16 -7 -19 11 -19 16 0 20 5
16 19 -3 15 1 21 17 23 32 5 -94 48 -135 47 l-34 -2 40 -8z"/>
<path d="M601 3486 c-8 -10 -9 -16 -1 -21 13 -8 30 3 30 21 0 18 -14 18 -29 0z"/>
<path d="M2075 3492 c6 -5 36 -17 67 -27 31 -10 55 -22 53 -25 -3 -4 7 -5 21
-2 35 6 25 23 -22 37 -58 17 -131 28 -119 17z"/>
<path d="M110 3460 c0 -11 4 -20 9 -20 5 0 7 9 4 20 -3 11 -7 20 -9 20 -2 0
-4 -9 -4 -20z"/>
<path d="M434 3443 c-3 -21 -13 -63 -20 -93 -20 -77 -19 -112 4 -108 10 2 18
13 19 28 1 14 5 67 9 118 7 93 1 124 -12 55z"/>
<path d="M1710 3412 c52 -28 94 -55 93 -61 -2 -6 4 -8 14 -4 11 4 14 3 9 -6
-4 -6 -4 -10 1 -9 14 4 57 -23 80 -50 21 -24 23 -25 23 -7 0 31 -10 40 -78 75
-34 17 -60 35 -57 39 2 5 -14 13 -35 20 -23 7 -40 18 -40 26 0 10 -10 15 -27
15 -16 0 -39 3 -53 6 -14 3 18 -17 70 -44z"/>
<path d="M1845 3430 c3 -5 14 -10 23 -10 15 0 15 2 2 10 -20 13 -33 13 -25 0z"/>
<path d="M1442 3415 c4 -4 22 -10 40 -14 26 -5 33 -12 33 -31 0 -19 6 -26 24
-28 19 -3 22 0 17 13 -5 13 -1 15 17 11 12 -3 16 -3 10 0 -7 3 -13 12 -13 19
0 7 -17 16 -37 19 -21 4 -51 9 -68 13 -16 3 -27 2 -23 -2z"/>
<path d="M2090 3406 c0 -2 7 -7 16 -10 8 -3 12 -2 9 4 -6 10 -25 14 -25 6z"/>
<path d="M102 3380 c0 -14 2 -19 5 -12 2 6 2 18 0 25 -3 6 -5 1 -5 -13z"/>
<path d="M570 3386 c0 -8 5 -18 10 -21 6 -3 10 1 10 9 0 8 -4 18 -10 21 -5 3
-10 -1 -10 -9z"/>
<path d="M1368 3383 c6 -2 18 -2 25 0 6 3 1 5 -13 5 -14 0 -19 -2 -12 -5z"/>
<path d="M1864 3368 c-4 -7 -4 -10 1 -6 4 4 16 3 26 -3 11 -5 19 -7 19 -5 0 3
-9 10 -19 16 -15 7 -22 7 -27 -2z"/>
<path d="M1616 3345 c10 -8 24 -14 29 -14 6 0 1 6 -9 14 -11 8 -24 15 -30 15
-5 0 -1 -7 10 -15z"/>
<path d="M1920 3351 c0 -14 86 -61 122 -66 18 -3 26 -2 18 1 -8 4 -21 12 -29
17 -7 6 -19 12 -27 13 -7 1 -25 12 -40 23 -29 22 -44 27 -44 12z"/>
<path d="M1337 3324 c-10 -13 -16 -30 -14 -37 4 -9 6 -9 6 1 1 6 8 12 16 12 8
0 15 7 15 15 0 16 9 19 34 9 8 -3 12 -13 9 -22 -4 -15 -3 -15 6 -2 8 12 6 19
-10 33 -28 23 -40 21 -62 -9z"/>
<path d="M1262 3326 c7 -8 15 -12 17 -11 5 6 -10 25 -20 25 -5 0 -4 -6 3 -14z"/>
<path d="M138 3324 c-7 -7 24 -64 35 -64 12 0 8 45 -5 58 -13 13 -22 15 -30 6z"/>
<path d="M1798 3304 c12 -8 22 -22 22 -30 0 -8 5 -14 10 -14 6 0 10 5 10 10 0
14 -38 50 -52 50 -7 0 -2 -7 10 -16z"/>
<path d="M483 3278 c4 -48 33 -50 34 -3 1 28 -3 35 -18 35 -15 0 -18 -6 -16
-32z"/>
<path d="M1703 3293 c0 -7 5 -12 11 -10 15 5 18 24 3 24 -8 0 -14 -6 -14 -14z"/>
<path d="M1953 3289 c-9 -9 -6 -17 12 -30 13 -11 28 -19 33 -19 5 0 12 -6 15
-14 4 -11 -3 -13 -36 -9 -23 3 -57 9 -75 13 -38 10 -104 2 -96 -11 9 -15 -25
-10 -71 11 -24 11 -65 21 -92 23 -26 2 -55 7 -65 11 -11 5 -18 1 -23 -14 -5
-15 -12 -19 -23 -15 -10 4 -37 9 -61 11 -40 4 -43 3 -30 -12 13 -16 8 -17 -61
-11 -41 4 -95 9 -120 11 -25 3 -36 3 -25 0 11 -2 44 -12 74 -21 35 -10 72 -14
107 -10 51 5 53 5 44 -14 -6 -11 -9 -23 -7 -27 2 -4 0 -38 -5 -77 -5 -38 -10
-86 -12 -105 -2 -19 -6 -46 -9 -60 -3 -14 -8 -46 -11 -72 -4 -38 -3 -48 9 -48
8 0 15 -8 16 -17 2 -37 -3 -79 -13 -97 -10 -19 -2 -86 11 -86 9 0 41 65 41 84
0 7 9 25 20 39 28 35 71 153 64 172 -6 15 20 44 39 45 13 0 7 -88 -12 -168
-10 -44 -34 -111 -53 -149 -32 -65 -33 -71 -17 -81 16 -10 16 -16 4 -69 -24
-110 -25 -123 -11 -123 8 0 19 32 31 95 10 52 22 95 26 95 5 0 9 12 9 26 0 14
5 35 11 46 6 12 13 35 15 52 4 30 12 69 34 156 26 106 32 129 42 178 7 37 15
52 26 52 13 0 10 7 -11 27 -36 36 -61 23 -65 -33 -4 -70 -11 -87 -27 -74 -8 7
-24 10 -36 7 -19 -5 -20 -3 -13 21 5 15 9 57 9 95 0 58 2 67 18 67 11 0 21 9
24 19 7 26 23 31 69 20 22 -4 53 -9 69 -9 19 0 36 -8 45 -20 8 -11 20 -20 27
-20 7 0 37 -11 67 -25 30 -14 62 -22 70 -19 10 4 16 1 16 -8 0 -8 22 -25 49
-37 41 -20 53 -33 82 -87 21 -40 30 -67 24 -72 -5 -4 -11 -14 -13 -22 -4 -23
-31 -90 -58 -145 -14 -27 -27 -61 -28 -75 -7 -53 -31 -120 -43 -120 -8 0 -13
-12 -13 -30 0 -16 -4 -30 -9 -30 -10 0 -27 -39 -23 -54 2 -4 0 -17 -4 -28 -4
-15 -8 -17 -14 -8 -5 8 -10 -3 -15 -30 -4 -23 -3 -45 1 -49 5 -3 17 -22 26
-41 l17 -35 0 48 c1 41 4 49 26 57 14 5 28 17 31 25 4 8 18 16 33 16 25 2 25
2 2 6 -24 5 -24 4 -3 83 9 32 52 177 88 295 9 28 18 65 21 83 l5 34 18 -40
c10 -22 23 -42 28 -46 15 -9 6 31 -13 60 -14 22 -14 25 0 30 12 5 13 10 4 20
-6 7 -8 18 -4 24 3 5 0 13 -9 16 -8 3 -22 16 -30 30 -14 20 -14 23 -1 18 8 -4
15 -10 15 -15 0 -5 5 -9 10 -9 6 0 24 -10 40 -22 16 -12 33 -18 37 -14 4 4 -1
12 -11 18 -10 6 -27 19 -37 29 -11 11 -23 19 -28 19 -5 0 -14 6 -20 14 -7 8
-23 17 -36 20 -14 4 -39 16 -58 29 -18 12 -56 33 -85 47 -51 24 -72 48 -32 35
11 -3 20 -2 20 3 0 5 -32 20 -71 32 -45 15 -67 26 -60 33 6 6 22 5 44 -2 20
-7 57 -11 84 -11 26 1 57 0 67 -2 31 -5 29 19 -3 38 -16 10 -28 21 -25 25 2 4
-1 11 -7 15 -8 5 -9 3 -4 -6 5 -8 3 -11 -6 -8 -8 3 -13 13 -13 22 2 19 1 19
-13 5z m-353 -94 c0 -19 -11 -19 -36 0 -18 14 -18 14 9 15 17 0 27 -5 27 -15z
m270 -27 c0 -11 -28 -10 -51 2 -32 17 -21 28 16 16 19 -6 35 -14 35 -18z m290
-248 c0 -5 -2 -10 -4 -10 -3 0 -8 5 -11 10 -3 6 -1 10 4 10 6 0 11 -4 11 -10z
m-640 -50 c0 -5 -9 -10 -20 -10 -11 0 -20 5 -20 10 0 6 9 10 20 10 11 0 20 -4
20 -10z"/>
<path d="M2240 3270 c14 -11 35 -25 48 -30 12 -5 22 -15 22 -21 0 -8 -6 -7
-17 2 -17 13 -17 12 -4 -6 8 -11 30 -36 49 -56 32 -35 34 -42 39 -123 3 -48
12 -94 19 -104 12 -15 13 -15 14 9 0 27 22 54 33 42 4 -3 7 6 7 21 0 33 14 27
41 -18 10 -17 19 -27 19 -22 0 5 7 3 15 -4 14 -11 14 -10 6 14 -10 26 -4 33
15 19 5 -5 -16 17 -47 47 -60 58 -84 94 -74 110 9 15 -2 12 -19 -6 -9 -8 -16
-10 -16 -4 0 6 -15 27 -32 47 -18 19 -32 39 -31 43 1 4 -19 18 -45 31 -66 33
-70 33 -42 9z m95 -80 c10 -11 16 -20 13 -20 -3 0 -13 9 -23 20 -10 11 -16 20
-13 20 3 0 13 -9 23 -20z m73 -101 c2 -13 8 -28 13 -33 12 -13 12 -36 -1 -36
-12 0 -26 27 -34 68 -4 24 -2 32 7 30 6 -3 14 -15 15 -29z"/>
<path d="M1453 3273 c9 -2 17 -9 17 -14 0 -5 5 -9 11 -9 5 0 8 4 5 9 -4 5 0
12 6 14 7 3 -3 5 -22 5 -19 0 -27 -2 -17 -5z"/>
<path d="M1865 3260 c-19 -8 -19 -9 3 -9 12 -1 22 4 22 9 0 6 -1 10 -2 9 -2 0
-12 -4 -23 -9z"/>
<path d="M1910 3240 c20 -13 33 -13 25 0 -3 6 -14 10 -23 10 -15 0 -15 -2 -2
-10z"/>
<path d="M2390 3242 c0 -5 15 -19 33 -32 l32 -23 -29 31 c-31 34 -36 37 -36
24z"/>
<path d="M386 3203 c-3 -10 -8 -36 -11 -58 l-6 -40 19 24 c14 17 18 31 12 45
-4 12 -5 27 -3 34 3 6 2 12 0 12 -3 0 -8 -8 -11 -17z"/>
<path d="M622 3170 c-14 -23 -16 -40 -3 -40 7 0 23 51 17 57 -1 1 -7 -7 -14
-17z"/>
<path d="M2505 3146 c28 -25 54 -46 59 -46 5 0 7 1 5 3 -2 2 -29 22 -59 46
l-55 43 50 -46z"/>
<path d="M225 3170 c-4 -6 3 -10 14 -10 25 0 27 6 6 13 -8 4 -17 2 -20 -3z"/>
<path d="M1276 3173 c-9 -10 -7 -53 3 -53 11 0 21 49 11 55 -4 2 -10 2 -14 -2z"/>
<path d="M2020 3151 c0 -5 14 -16 30 -25 17 -8 30 -13 30 -11 0 2 -13 13 -30
25 -16 12 -30 17 -30 11z"/>
<path d="M2077 3143 c7 -18 37 -33 50 -25 6 4 -4 14 -22 23 -26 12 -32 13 -28
2z"/>
<path d="M290 3130 c0 -5 5 -10 11 -10 5 0 7 5 4 10 -3 6 -8 10 -11 10 -2 0
-4 -4 -4 -10z"/>
<path d="M2545 3080 c21 -22 41 -40 44 -40 3 0 -13 18 -34 40 -21 22 -41 40
-44 40 -3 0 13 -18 34 -40z"/>
<path d="M1773 3094 c18 -10 27 -23 28 -42 2 -24 2 -25 6 -4 3 13 11 26 19 29
25 9 -3 30 -43 31 l-38 1 28 -15z"/>
<path d="M2590 3082 c6 -13 14 -21 18 -18 3 4 -2 14 -12 24 -18 16 -18 16 -6
-6z"/>
<path d="M1431 3074 c0 -11 3 -14 6 -6 3 7 2 16 -1 19 -3 4 -6 -2 -5 -13z"/>
<path d="M110 3043 c-6 -21 -14 -71 -17 -111 -4 -46 -9 -68 -14 -60 -5 8 -6
-2 -3 -22 4 -19 11 -41 17 -47 12 -16 39 -17 54 -2 14 14 47 4 38 -11 -3 -5 1
-10 9 -10 16 0 20 14 16 58 -1 14 4 22 14 22 8 0 19 8 24 17 8 13 3 20 -22 33
-17 10 -32 27 -34 39 -2 11 -10 21 -18 21 -18 0 -47 66 -41 92 10 35 -12 17
-23 -19z m14 -158 c3 -9 0 -15 -9 -15 -9 0 -12 6 -9 15 4 8 7 15 9 15 2 0 5
-7 9 -15z"/>
<path d="M295 3060 c-3 -5 -1 -10 4 -10 6 0 11 5 11 10 0 6 -2 10 -4 10 -3 0
-8 -4 -11 -10z"/>
<path d="M595 3030 c-4 -23 -5 -43 -2 -46 2 -3 7 14 11 37 4 23 5 44 2 46 -2
2 -7 -14 -11 -37z"/>
<path d="M190 3050 c0 -5 7 -10 15 -10 8 0 15 5 15 10 0 6 -7 10 -15 10 -8 0
-15 -4 -15 -10z"/>
<path d="M475 3050 c-3 -5 -1 -10 4 -10 6 0 11 5 11 10 0 6 -2 10 -4 10 -3 0
-8 -4 -11 -10z"/>
<path d="M2240 3015 c13 -14 26 -25 28 -25 3 0 -5 11 -18 25 -13 14 -26 25
-28 25 -3 0 5 -11 18 -25z"/>
<path d="M2560 3016 c0 -2 7 -9 15 -16 13 -11 14 -10 9 4 -5 14 -24 23 -24 12z"/>
<path d="M537 2992 c-10 -10 -17 -28 -17 -40 0 -25 35 -49 43 -29 3 7 6 5 6
-5 1 -24 -7 -23 -54 9 -28 18 -35 20 -23 7 14 -16 14 -22 4 -36 -7 -10 -22
-18 -32 -19 -17 0 -17 -1 2 -9 11 -4 38 -10 59 -12 35 -3 39 0 47 27 9 33 1
92 -13 101 -5 3 -7 10 -4 15 10 15 -1 10 -18 -9z"/>
<path d="M425 2987 c-6 -7 -11 -22 -12 -33 -1 -20 1 -21 28 -11 24 9 27 14 16
22 -8 5 -16 15 -18 22 -3 8 -7 8 -14 0z"/>
<path d="M1915 2979 c-11 -17 1 -21 15 -4 8 9 8 15 2 15 -6 0 -14 -5 -17 -11z"/>
<path d="M3376 2947 c-9 -23 -16 -52 -16 -64 0 -31 -11 -54 -22 -47 -5 3 -16
-3 -24 -15 -8 -12 -22 -21 -30 -21 -8 0 -14 -9 -14 -19 0 -11 -9 -22 -19 -26
-23 -7 -34 -44 -19 -62 6 -7 28 -13 49 -13 30 0 39 4 40 18 1 9 2 26 3 37 1
11 3 30 4 43 1 12 8 22 16 22 20 0 60 83 53 110 -3 11 -2 34 3 50 13 46 -5 36
-24 -13z"/>
<path d="M1233 2968 c-11 -14 -43 -94 -43 -106 0 -4 14 20 30 52 28 57 34 81
13 54z"/>
<path d="M3442 2945 c0 -16 2 -22 5 -12 2 9 2 23 0 30 -3 6 -5 -1 -5 -18z"/>
<path d="M747 2946 c-4 -10 -5 -21 -2 -24 9 -9 17 6 13 25 -3 17 -4 17 -11 -1z"/>
<path d="M2673 2948 c2 -8 17 -32 34 -52 31 -38 49 -88 33 -94 -4 -2 8 -26 26
-54 19 -28 33 -57 30 -63 -7 -19 28 -65 42 -56 10 6 8 23 -11 79 -13 39 -30
78 -37 87 -7 8 -10 23 -7 34 3 14 -12 36 -54 77 -32 31 -57 50 -56 42z"/>
<path d="M1882 2920 c-12 -16 -22 -33 -22 -38 0 -6 -10 -17 -23 -25 -15 -10
-29 -36 -40 -76 -14 -49 -22 -62 -41 -67 -17 -4 -29 -19 -40 -49 -10 -24 -23
-49 -31 -55 -8 -6 -12 -17 -9 -25 3 -7 -10 -29 -30 -48 -39 -39 -67 -90 -87
-159 -12 -42 -17 -48 -41 -48 -34 0 -54 -31 -38 -60 6 -11 14 -20 19 -20 5 0
6 -11 3 -25 -2 -14 0 -25 5 -25 16 0 32 22 26 36 -3 8 1 14 9 14 22 0 29 -12
17 -26 -6 -7 -9 -19 -7 -25 7 -21 70 135 73 181 2 25 13 65 24 90 l21 45 -5
-40 c-3 -22 -8 -92 -11 -155 -6 -134 -8 -142 -29 -133 -12 4 -13 8 -5 13 6 4
10 20 8 36 l-3 29 -19 -39 c-11 -21 -19 -44 -19 -52 0 -7 -6 -15 -13 -18 -6
-2 -20 -25 -29 -50 -19 -50 -14 -116 10 -116 18 0 55 48 55 72 0 29 31 83 39
69 10 -15 20 -4 55 66 15 28 34 54 42 57 30 12 64 6 85 -15 18 -18 21 -31 18
-87 -1 -37 -2 -91 -1 -120 2 -49 4 -53 24 -50 26 3 33 27 49 167 8 74 7 87 -9
115 -24 41 -65 60 -132 61 -30 0 -58 5 -62 10 -5 6 -8 5 -8 -2 0 -7 -5 -13
-11 -13 -11 0 -9 19 7 103 4 20 2 27 -10 27 -9 0 -16 2 -16 4 0 15 53 105 71
122 12 10 30 37 41 59 10 22 30 59 43 83 19 33 23 48 15 62 -15 28 -13 60 4
54 14 -5 39 37 51 89 9 35 4 34 -23 -3z"/>
<path d="M2270 2920 c20 -13 33 -13 25 0 -3 6 -14 10 -23 10 -15 0 -15 -2 -2
-10z"/>
<path d="M887 2904 c-4 -4 -7 -14 -7 -23 0 -11 3 -12 11 -4 6 6 10 16 7 23 -2
6 -7 8 -11 4z"/>
<path d="M2501 2901 c-10 -6 -10 -10 -1 -16 13 -8 24 -1 19 14 -3 6 -10 7 -18
2z"/>
<path d="M1135 2880 c3 -5 8 -10 11 -10 2 0 4 5 4 10 0 6 -5 10 -11 10 -5 0
-7 -4 -4 -10z"/>
<path d="M2355 2870 c10 -11 20 -20 23 -20 3 0 -3 9 -13 20 -10 11 -20 20 -23
20 -3 0 3 -9 13 -20z"/>
<path d="M2650 2883 c0 -4 5 -15 10 -23 8 -13 10 -13 10 2 0 9 -4 20 -10 23
-5 3 -10 3 -10 -2z"/>
<path d="M2333 2849 c24 -33 25 -36 13 -84 -13 -51 -11 -79 5 -69 5 3 6 -1 3
-9 -3 -8 -1 -18 5 -22 7 -3 11 3 12 17 1 13 2 28 4 33 1 6 3 27 3 49 2 35 4
38 25 32 17 -4 13 3 -18 29 -63 55 -83 64 -52 24z"/>
<path d="M724 2846 c-7 -29 0 -56 15 -56 10 0 7 67 -3 77 -3 3 -8 -6 -12 -21z"/>
<path d="M857 2853 c-4 -3 -7 -13 -7 -22 1 -13 3 -13 11 2 11 19 8 33 -4 20z"/>
<path d="M1755 2825 c-5 -11 -12 -22 -16 -25 -3 -3 -9 -21 -13 -40 -3 -19 -3
-28 2 -20 4 8 15 27 25 42 10 15 17 35 14 45 -4 17 -5 16 -12 -2z"/>
<path d="M2412 2824 c9 -9 21 -15 27 -13 6 2 -2 10 -17 17 -25 11 -25 11 -10
-4z"/>
<path d="M2546 2827 c3 -10 9 -15 12 -12 3 3 0 11 -7 18 -10 9 -11 8 -5 -6z"/>
<path d="M2681 2820 c14 -31 19 -36 19 -24 0 6 -7 19 -16 30 -14 18 -14 18 -3
-6z"/>
<path d="M422 2821 c-10 -6 -10 -10 3 -21 10 -8 15 -9 15 -1 0 6 7 11 16 11 8
0 12 5 9 10 -7 12 -25 13 -43 1z"/>
<path d="M1166 2815 c-9 -26 -7 -32 5 -12 6 10 9 21 6 23 -2 3 -7 -2 -11 -11z"/>
<path d="M2587 2800 c3 -11 9 -20 15 -20 5 0 4 9 -2 20 -6 11 -12 20 -14 20
-2 0 -2 -9 1 -20z"/>
<path d="M509 2788 c11 -29 27 -34 34 -9 6 24 0 31 -24 31 -15 0 -17 -4 -10
-22z"/>
<path d="M2239 2800 c-1 -8 0 -23 1 -34 1 -10 -3 -16 -8 -12 -5 3 -7 -5 -4
-19 5 -26 16 -32 27 -14 5 7 14 4 26 -7 22 -20 34 -14 25 13 -10 30 -65 90
-67 73z"/>
<path d="M2810 2796 c0 -2 8 -10 18 -17 15 -13 16 -12 3 4 -13 16 -21 21 -21
13z"/>
<path d="M3015 2760 c-20 -38 -23 -54 -34 -143 -6 -58 -5 -69 11 -84 10 -9 20
-14 22 -12 6 6 26 156 28 212 2 60 -6 68 -27 27z"/>
<path d="M295 2770 c-3 -5 -1 -10 4 -10 6 0 11 5 11 10 0 6 -2 10 -4 10 -3 0
-8 -4 -11 -10z"/>
<path d="M606 2758 c-19 -67 -36 -141 -36 -155 1 -33 16 8 29 77 7 36 15 71
17 78 2 6 1 12 -2 12 -2 0 -6 -6 -8 -12z"/>
<path d="M2 2453 c1 -170 3 -290 5 -268 5 53 12 73 21 58 4 -6 6 30 6 80 -1
51 4 151 12 222 7 72 13 149 13 173 1 40 0 42 -29 42 l-30 0 2 -307z"/>
<path d="M1230 2739 c-9 -16 -9 -28 1 -51 11 -27 10 -32 -5 -44 -15 -10 -17
-23 -13 -71 6 -76 21 -130 44 -155 10 -11 17 -22 16 -24 -5 -7 41 -93 51 -97
6 -3 21 -1 32 4 17 6 20 13 17 33 -3 14 -9 26 -14 26 -5 0 -9 7 -9 16 0 19
-27 48 -32 34 -2 -7 -11 -5 -22 3 -30 22 -14 49 25 42 29 -5 31 -4 25 17 -3
13 -6 29 -6 37 0 10 -3 11 -13 2 -16 -13 -43 11 -49 44 -2 17 2 20 30 17 17
-1 32 3 32 9 0 5 -4 7 -10 4 -5 -3 -18 -1 -29 4 -14 8 -20 8 -23 -1 -5 -13
-28 -2 -28 13 0 6 5 7 11 4 6 -5 9 5 8 27 -4 56 0 90 11 83 21 -13 8 11 -15
28 -23 17 -25 17 -35 -4z"/>
<path d="M2465 2750 c3 -5 8 -10 11 -10 2 0 4 5 4 10 0 6 -5 10 -11 10 -5 0
-7 -4 -4 -10z"/>
<path d="M2496 2745 c4 -9 16 -21 28 -27 19 -10 19 -9 -3 16 -28 30 -33 32
-25 11z"/>
<path d="M1126 2723 c-6 -14 -5 -15 5 -6 7 7 10 15 7 18 -3 3 -9 -2 -12 -12z"/>
<path d="M2565 2730 c3 -5 8 -10 11 -10 2 0 4 5 4 10 0 6 -5 10 -11 10 -5 0
-7 -4 -4 -10z"/>
<path d="M141 2711 c-8 -5 -17 -31 -20 -58 -7 -53 -30 -66 -43 -23 -5 16 -6
11 -2 -15 3 -22 7 -40 7 -41 1 -1 13 -4 27 -7 21 -5 28 -1 39 25 16 36 26 128
14 128 -4 0 -15 -4 -22 -9z"/>
<path d="M2240 2693 c0 -7 9 -27 19 -45 10 -18 22 -50 25 -71 5 -26 20 -51 47
-78 38 -38 39 -39 35 -13 -3 15 -9 30 -14 33 -5 3 -28 42 -52 86 -45 85 -60
107 -60 88z"/>
<path d="M2549 2687 c8 -9 15 -30 17 -45 2 -26 2 -26 -12 -8 -8 11 -14 26 -14
33 0 7 -4 13 -10 13 -5 0 -10 -4 -10 -8 0 -13 67 -88 73 -82 9 8 -21 82 -39
99 -17 15 -17 15 -5 -2z"/>
<path d="M2635 2650 c8 -49 23 -95 29 -89 8 8 -14 113 -25 123 -8 8 -9 -1 -4
-34z"/>
<path d="M436 2618 c12 -77 23 -87 22 -20 -1 45 -5 62 -15 62 -10 0 -12 -10
-7 -42z"/>
<path d="M2700 2616 c0 -14 4 -27 9 -30 5 -4 12 -25 16 -49 11 -62 22 -78 30
-44 6 22 10 25 21 16 11 -9 14 -8 14 5 0 9 -7 16 -15 16 -8 0 -15 9 -15 19 0
11 -9 23 -20 26 -13 4 -20 15 -20 30 0 13 -4 27 -10 30 -6 3 -10 -5 -10 -19z"/>
<path d="M2850 2611 c0 -5 7 -12 16 -15 14 -5 15 -4 4 9 -14 17 -20 19 -20 6z"/>
<path d="M3560 2590 c0 -5 4 -10 9 -10 6 0 13 5 16 10 3 6 -1 10 -9 10 -9 0
-16 -4 -16 -10z"/>
<path d="M2856 2570 c9 -35 33 -78 33 -60 0 8 -9 31 -20 50 -15 26 -18 29 -13
10z"/>
<path d="M2904 2559 c10 -15 12 -28 6 -45 -8 -19 -5 -24 13 -30 45 -15 48 -13
27 19 -12 18 -24 40 -27 49 -3 9 -11 19 -19 22 -13 5 -13 3 0 -15z m45 -74 c0
-5 -6 -1 -14 9 -8 11 -15 24 -15 30 0 5 7 1 15 -10 8 -10 14 -23 14 -29z"/>
<path d="M1902 2546 c-12 -16 -30 -26 -45 -26 -21 0 -29 -10 -52 -65 -16 -36
-31 -65 -35 -65 -4 0 -12 -11 -18 -25 -6 -14 -7 -25 -2 -25 14 0 70 62 76 85
3 11 25 35 49 53 24 18 46 44 50 59 9 35 1 39 -23 9z"/>
<path d="M1385 2517 c2 -27 9 -56 14 -64 13 -24 6 56 -8 87 -10 22 -11 19 -6
-23z"/>
<path d="M2620 2544 c0 -3 10 -18 21 -33 21 -29 22 -50 4 -123 -5 -19 -3 -28
5 -28 7 0 22 -10 33 -22 l20 -23 -6 40 c-4 33 -4 36 5 18 7 -15 7 -35 0 -63
-6 -23 -6 -42 -1 -46 5 -3 9 2 9 12 0 9 7 22 16 28 14 11 13 19 -10 86 -31 86
-31 94 -10 86 14 -5 15 -4 4 9 -7 8 -16 12 -21 9 -5 -3 -9 2 -9 10 0 8 -13 21
-30 30 -16 8 -30 12 -30 10z"/>
<path d="M551 2528 c0 -9 -4 -25 -7 -35 -5 -17 -5 -17 6 0 6 10 9 25 7 35 -4
15 -5 15 -6 0z"/>
<path d="M2370 2525 c0 -8 4 -15 10 -15 5 0 7 7 4 15 -4 8 -8 15 -10 15 -2 0
-4 -7 -4 -15z"/>
<path d="M3896 2504 c-10 -25 -7 -74 4 -74 6 0 10 20 10 45 0 47 -4 55 -14 29z"/>
<path d="M2290 2484 c0 -16 5 -36 10 -44 7 -11 9 -4 6 24 -6 47 -16 60 -16 20z"/>
<path d="M694 2458 c-10 -29 -6 -57 13 -83 13 -18 14 -14 11 43 -3 64 -11 78
-24 40z"/>
<path d="M2950 2449 c0 -5 5 -7 10 -4 6 3 10 8 10 11 0 2 -4 4 -10 4 -5 0 -10
-5 -10 -11z"/>
<path d="M2353 2428 c-29 -17 -33 -25 -33 -60 0 -31 -4 -41 -20 -45 -14 -4
-20 -14 -20 -35 0 -21 6 -31 20 -35 16 -4 20 -14 20 -48 0 -37 3 -42 19 -38
10 2 25 -3 35 -12 15 -15 16 -13 16 38 0 41 -4 56 -16 61 -14 5 -12 10 11 28
22 17 29 19 36 7 5 -8 9 -18 9 -23 0 -5 2 -7 5 -4 13 13 -8 58 -26 58 -16 0
-18 8 -18 61 1 33 0 61 -2 63 -2 2 -19 -6 -36 -16z m7 -141 c0 -5 -4 -5 -10
-2 -5 3 -10 14 -10 23 0 15 2 15 10 2 5 -8 10 -19 10 -23z"/>
<path d="M2458 2442 c-15 -6 -15 -10 -4 -37 8 -16 17 -39 21 -50 5 -16 8 -17
15 -5 6 8 10 30 10 48 0 19 5 32 13 32 8 0 7 4 -3 10 -17 11 -28 11 -52 2z"/>
<path d="M4374 2419 c3 -17 6 -41 7 -53 1 -19 2 -18 9 4 6 20 8 15 9 -26 1
-37 6 -56 21 -69 20 -18 20 -17 20 78 l0 97 -36 0 c-36 0 -36 -1 -30 -31z"/>
<path d="M92 2415 c0 -16 2 -22 5 -12 2 9 2 23 0 30 -3 6 -5 -1 -5 -18z"/>
<path d="M2537 2418 c-9 -7 -17 -31 -19 -53 -3 -35 -6 -40 -30 -43 -35 -4 -35
-12 1 -51 24 -26 30 -42 34 -94 2 -34 8 -73 12 -86 6 -18 5 -22 -4 -16 -7 4
-2 -12 11 -36 28 -50 48 -56 62 -18 7 22 5 31 -17 55 -15 16 -28 38 -29 49 -6
83 -3 109 12 100 15 -9 36 48 29 75 -4 14 -7 42 -8 62 -2 66 -18 83 -54 56z"/>
<path d="M2960 2411 c0 -6 4 -13 10 -16 6 -3 7 1 4 9 -7 18 -14 21 -14 7z"/>
<path d="M3563 2413 c-8 -2 -13 -22 -13 -45 0 -31 -4 -41 -20 -45 -30 -8 -24
-20 14 -27 19 -4 36 -11 38 -16 5 -15 51 -18 65 -4 23 23 14 34 -27 34 -33 0
-40 3 -40 19 0 11 5 23 10 26 13 8 13 45 -1 45 -5 0 -7 5 -4 10 7 11 -2 12
-22 3z"/>
<path d="M3878 2414 c-5 -4 -8 -17 -8 -30 0 -12 -6 -25 -12 -27 -8 -3 -6 -6 5
-6 10 -1 20 5 23 13 8 20 1 60 -8 50z"/>
<path d="M1070 2372 c0 -18 9 -51 21 -73 22 -45 38 -46 20 -2 -6 15 -12 37
-14 48 -1 11 -8 29 -15 40 -10 18 -11 17 -12 -13z"/>
<path d="M562 2370 c0 -14 2 -19 5 -12 2 6 2 18 0 25 -3 6 -5 1 -5 -13z"/>
<path d="M2840 2374 c0 -8 5 -12 10 -9 6 4 8 11 5 16 -9 14 -15 11 -15 -7z"/>
<path d="M3363 2369 c21 -11 44 -18 50 -16 15 5 -46 37 -70 37 -11 -1 -3 -9
20 -21z"/>
<path d="M2130 2370 c19 -13 30 -13 30 0 0 6 -10 10 -22 10 -19 0 -20 -2 -8
-10z"/>
<path d="M3070 2358 c0 -4 14 -8 30 -8 17 0 30 2 30 4 0 2 -13 6 -30 8 -16 3
-30 1 -30 -4z"/>
<path d="M4160 2360 c0 -5 5 -10 10 -10 6 0 10 5 10 10 0 6 -4 10 -10 10 -5 0
-10 -4 -10 -10z"/>
<path d="M1396 2347 c3 -10 9 -15 12 -12 3 3 0 11 -7 18 -10 9 -11 8 -5 -6z"/>
<path d="M2980 2346 c0 -7 11 -29 24 -49 13 -19 27 -44 30 -55 4 -11 13 -26
22 -33 12 -10 13 -9 8 5 -7 18 7 21 23 5 8 -8 13 -8 17 0 4 6 4 11 -1 11 -16
1 60 30 78 30 24 0 25 30 2 31 -73 6 -103 4 -103 -6 0 -13 -35 -13 -47 -1 -4
4 -1 11 6 15 18 11 8 26 -29 45 -23 11 -30 12 -30 2z"/>
<path d="M77 2343 c-4 -3 -6 -22 -6 -42 1 -27 3 -30 6 -11 3 14 9 29 14 35 18
18 4 36 -14 18z"/>
<path d="M2658 2322 c-22 -4 -23 -31 -4 -58 19 -25 28 -14 24 28 -2 26 -7 33
-20 30z"/>
<path d="M2844 2295 c7 -23 17 -35 29 -35 16 0 17 2 3 15 -8 8 -18 24 -21 35
-3 11 -10 20 -14 20 -4 0 -3 -16 3 -35z"/>
<path d="M3305 2316 c-54 -24 -77 -58 -72 -107 5 -50 31 -75 85 -84 62 -10 84
-23 80 -47 -2 -12 -10 -24 -18 -26 -13 -5 -13 -3 -1 12 13 15 13 19 0 27 -26
16 -59 11 -59 -11 0 -11 7 -20 16 -20 8 0 12 -5 8 -11 -6 -11 -40 -8 -90 6
-17 5 -23 1 -28 -19 -3 -14 -7 -29 -9 -32 -3 -10 82 -34 119 -34 31 0 93 17
106 29 3 3 3 25 -2 49 -7 40 -6 44 16 54 13 6 24 14 24 18 0 15 -48 50 -77 56
-25 5 -31 2 -36 -15 -6 -24 -32 -20 -41 7 -3 9 -11 25 -18 34 -11 15 -10 21 6
35 17 17 18 17 13 1 -5 -13 2 -20 31 -28 20 -5 44 -10 52 -10 26 0 61 -31 76
-66 9 -22 21 -34 34 -34 10 0 23 -6 27 -13 4 -8 23 -22 41 -32 17 -11 32 -22
32 -26 0 -7 62 -39 75 -39 3 0 5 12 3 28 -2 19 -9 28 -25 30 -33 5 -53 40 -53
94 0 44 -3 50 -32 68 -18 10 -34 17 -36 15 -2 -2 -8 -28 -12 -57 -7 -53 -8
-53 -9 -11 -1 52 -38 95 -57 68 -15 -20 -25 -19 -81 11 -26 14 -39 23 -28 20
77 -18 81 -18 93 9 16 34 15 42 -3 42 -8 0 -12 -4 -9 -9 4 -5 -9 -8 -27 -6
-22 2 -34 8 -34 18 0 20 -42 23 -80 6z"/>
<path d="M4128 2309 c-49 -25 -58 -45 -58 -123 0 -64 1 -66 25 -66 26 0 27 3
40 81 9 56 70 77 117 40 15 -13 33 -18 46 -14 26 6 27 16 6 49 -36 54 -110 68
-176 33z"/>
<path d="M1970 2196 c0 -141 14 -190 57 -207 15 -5 32 -8 40 -5 7 3 13 1 13
-4 0 -6 11 -10 25 -10 19 0 25 5 25 23 0 27 -17 47 -40 47 -24 0 -50 32 -50
61 0 13 0 59 0 102 0 76 0 77 -26 77 -32 0 -27 22 7 31 20 6 18 7 -13 8 l-38
1 0 -124z m34 -51 c3 -8 1 -15 -4 -15 -6 0 -10 7 -10 15 0 8 2 15 4 15 2 0 6
-7 10 -15z"/>
<path d="M3852 2308 c7 -20 58 -23 58 -4 0 11 -10 16 -31 16 -20 0 -29 -4 -27
-12z"/>
<path d="M4529 2277 c-17 -23 -37 -46 -45 -50 -18 -10 -18 -37 1 -61 9 -11 11
-25 6 -35 -5 -11 -2 -22 11 -33 12 -12 18 -14 18 -5 1 6 10 1 20 -12 11 -13
20 -20 20 -16 0 4 7 2 15 -5 14 -11 13 -14 -1 -25 -27 -19 2 -55 44 -55 l34 0
-48 68 c-27 37 -56 76 -66 86 -28 31 -22 48 37 110 30 31 55 60 55 65 0 4 -16
8 -35 9 -31 1 -39 -4 -66 -41z"/>
<path d="M1385 2295 c-3 -8 -8 -23 -11 -32 -12 -34 -14 -74 -4 -94 13 -24 61
-49 94 -49 23 0 24 1 13 33 -7 17 -21 39 -32 48 -17 15 -18 20 -6 42 18 34 6
67 -25 67 -14 0 -27 -7 -29 -15z"/>
<path d="M2791 2300 c3 -22 -12 -70 -22 -70 -5 0 -12 14 -16 30 -4 24 -8 28
-19 19 -8 -6 -14 -21 -14 -33 0 -17 -2 -19 -11 -6 -8 11 -9 6 -5 -20 3 -19 8
-59 12 -87 4 -29 10 -53 15 -53 5 0 9 -12 10 -27 1 -33 17 -79 18 -51 1 14 5
13 27 -7 28 -26 76 -33 103 -16 8 5 15 22 17 38 2 26 1 26 -8 6 -13 -28 -58
-34 -83 -11 -17 16 -17 18 -1 18 9 0 15 4 11 10 -3 5 -12 7 -19 4 -10 -4 -15
6 -18 32 -3 29 -1 38 13 41 20 6 16 23 -14 65 l-20 27 27 31 c22 27 25 35 14
49 -7 9 -14 18 -16 21 -2 3 -3 -2 -1 -10z"/>
<path d="M1010 2286 c0 -14 20 -36 32 -36 17 0 7 38 -12 43 -12 3 -20 0 -20
-7z"/>
<path d="M2170 2282 c0 -17 23 -52 34 -52 2 0 1 14 -3 32 -7 36 -31 51 -31 20z"/>
<path d="M2908 2227 c4 -50 3 -52 -22 -53 -66 -4 -72 -34 -7 -34 20 0 42 -5
47 -10 13 -13 44 -2 44 16 0 13 -33 83 -55 116 -9 14 -11 7 -7 -35z"/>
<path d="M3746 2254 c-12 -31 -5 -51 27 -82 l32 -31 3 42 c4 58 10 75 30 79 9
2 -6 5 -35 5 -38 1 -53 -2 -57 -13z"/>
<path d="M921 2100 c-41 -83 -78 -150 -82 -150 -24 0 -39 -166 -20 -230 7 -24
8 -23 19 15 7 22 12 44 12 48 0 5 9 20 19 33 25 32 37 100 21 119 -7 9 -9 22
-5 32 5 10 15 38 24 62 20 57 35 61 47 14 14 -55 36 -57 28 -2 l-7 43 23 -22
c13 -12 25 -21 26 -19 1 1 -4 31 -12 66 -8 35 -13 68 -11 75 4 11 37 -91 37
-114 0 -24 55 -164 58 -148 2 9 -4 33 -13 53 -11 28 -12 41 -4 51 13 16 3 84
-12 84 -6 0 -8 4 -5 9 3 5 -3 20 -15 34 -11 15 -20 28 -19 29 1 8 -25 68 -30
68 -3 0 -38 -68 -79 -150z"/>
<path d="M1261 2219 c-14 -18 -19 -35 -14 -40 5 -5 14 5 22 26 7 21 17 33 23
29 7 -4 8 -2 4 4 -10 16 -9 16 -35 -19z"/>
<path d="M1050 2224 c1 -11 7 -30 15 -44 l14 -25 1 31 c0 17 -7 37 -15 44 -12
10 -15 9 -15 -6z"/>
<path d="M1756 2215 c-4 -11 32 -61 38 -54 2 2 7 18 10 34 6 27 4 30 -19 30
-13 0 -27 -5 -29 -10z"/>
<path d="M2440 2225 c0 -17 33 -78 37 -68 2 6 -3 25 -12 42 -14 28 -25 39 -25
26z"/>
<path d="M2660 2212 c0 -10 6 -26 13 -37 13 -17 14 -17 19 1 3 11 2 26 -1 34
-9 22 -31 23 -31 2z"/>
<path d="M4378 2179 c-1 -28 0 -53 5 -56 4 -2 7 21 7 51 0 70 -7 73 -12 5z"/>
<path d="M2170 2202 c0 -12 9 -26 21 -32 32 -18 35 -3 6 26 -26 25 -27 26 -27
6z"/>
<path d="M3032 2165 c3 -14 1 -28 -3 -31 -5 -3 -9 0 -9 7 0 7 -3 9 -6 6 -4 -4
-2 -12 3 -19 6 -7 14 -38 17 -68 8 -65 13 -75 45 -83 22 -6 23 -4 17 36 -4 22
-11 46 -16 53 -6 6 -12 24 -14 40 -4 35 -23 84 -32 84 -3 0 -4 -11 -2 -25z"/>
<path d="M1507 2161 c11 -30 15 -32 29 -14 19 25 17 31 -10 31 -18 0 -23 -5
-19 -17z"/>
<path d="M1814 2168 c-17 -26 -54 -124 -60 -158 -4 -19 -12 -42 -19 -50 -15
-19 -36 -79 -66 -190 -13 -47 -26 -87 -29 -90 -6 -5 -28 -53 -54 -112 -9 -21
-19 -38 -23 -38 -23 1 -35 22 -39 66 -7 90 -27 185 -38 181 -14 -5 -42 -120
-90 -369 -8 -38 -18 -74 -23 -80 -6 -7 -13 -38 -17 -68 -8 -69 -35 -199 -46
-225 -17 -40 -30 -89 -30 -111 0 -28 -19 -33 -22 -6 0 9 -2 64 -3 123 -1 61
-7 115 -15 128 -10 19 -9 28 1 47 10 20 10 27 -3 41 -9 10 -18 29 -21 43 -9
53 -6 -88 4 -149 6 -40 6 -68 1 -73 -11 -11 -7 -61 10 -150 8 -42 8 -61 0 -71
-16 -19 -27 -123 -14 -131 7 -4 13 11 18 39 3 25 10 48 15 50 10 7 3 -83 -9
-116 -11 -28 -17 -125 -14 -218 2 -56 1 -63 -14 -57 -13 5 -14 3 -7 -6 15 -20
4 -98 -13 -91 -10 4 -14 -4 -14 -30 0 -20 -5 -39 -11 -43 -13 -8 -9 78 4 87 5
4 4 16 -3 29 -12 22 -11 41 10 135 6 28 11 55 11 60 0 17 -19 99 -30 128 -21
55 -9 160 16 144 7 -5 2 87 -6 101 0 1 -1 9 -1 17 0 18 -16 20 -18 3 0 -7 -3
-42 -5 -78 -5 -61 -20 -120 -31 -120 -3 0 -5 44 -5 97 1 54 0 105 -2 113 -3
11 3 14 20 12 23 -2 23 -1 8 16 -9 10 -21 42 -27 72 -6 30 -16 69 -21 86 -5
17 -9 48 -9 68 0 33 2 37 15 26 8 -6 19 -9 25 -5 13 8 9 67 -7 105 -10 24 -11
23 -36 -30 -14 -30 -28 -66 -32 -80 -4 -14 -11 -29 -15 -35 -3 -5 -15 -32 -25
-59 -15 -40 -15 -50 -4 -57 11 -8 10 -13 -8 -28 -13 -11 -23 -26 -23 -35 0 -8
-11 -50 -25 -93 -13 -44 -29 -103 -34 -133 -5 -30 -9 -43 -10 -27 0 15 -5 27
-11 27 -5 0 -10 14 -10 30 0 31 -7 34 -46 24 -15 -4 -20 -12 -17 -24 3 -10 0
-21 -6 -24 -7 -5 -7 -13 1 -26 10 -15 9 -23 -6 -39 -10 -11 -23 -18 -28 -15
-4 3 -8 2 -7 -3 1 -4 1 -19 0 -33 -1 -20 -3 -22 -11 -10 -7 12 -10 8 -10 -14
0 -35 -73 -116 -99 -109 -13 3 -16 -6 -18 -56 -3 -62 2 -71 26 -48 11 10 12 4
6 -33 -3 -25 -12 -65 -20 -90 -27 -92 -27 -100 -3 -109 23 -8 23 -7 30 78 4
47 13 102 20 121 17 44 40 80 52 80 12 0 0 -181 -13 -189 -5 -3 -13 -19 -16
-34 -6 -21 -2 -33 16 -52 13 -13 32 -25 43 -25 16 0 18 5 13 37 -6 38 11 174
23 183 11 9 52 174 52 210 -1 19 -4 54 -7 78 -5 29 -3 47 6 59 12 14 15 10 20
-38 3 -30 13 -101 22 -159 9 -58 18 -123 21 -145 4 -44 -3 147 -9 236 -4 64 6
91 22 57 6 -13 22 -48 37 -78 32 -67 32 -84 4 -112 -20 -20 -23 -33 -23 -109
0 -86 -11 -119 -40 -119 -19 0 -25 24 -25 96 0 35 -4 64 -9 64 -11 0 -17 -24
-31 -130 -6 -47 -12 -95 -14 -108 -3 -21 0 -23 32 -20 32 3 37 7 45 38 8 30
10 32 19 16 5 -10 8 -26 5 -37 -3 -12 0 -19 9 -19 12 0 14 11 9 58 l-6 57 46
34 c39 29 50 33 65 23 20 -12 30 1 30 42 0 12 6 31 14 42 14 18 15 18 21 -9 4
-15 4 -37 1 -50 -23 -79 -37 -136 -42 -165 l-5 -32 113 0 c111 0 114 1 116 22
7 78 59 309 90 398 3 10 2 12 -5 5 -5 -5 -18 -36 -27 -68 -10 -31 -23 -57 -28
-57 -32 0 46 255 92 305 16 17 49 50 74 75 25 25 46 49 46 53 0 17 -31 4 -61
-25 -22 -22 -30 -27 -26 -14 4 11 12 40 18 64 15 66 47 136 69 150 17 10 20
10 21 -5 0 -18 13 12 44 105 14 42 15 58 6 80 -9 22 -8 36 7 75 10 27 25 56
34 66 8 10 18 36 22 57 4 21 21 71 38 109 17 39 35 81 40 95 6 14 16 39 22 55
17 40 35 92 48 135 6 19 14 38 19 41 11 6 1 39 -11 39 -5 0 -8 48 -9 106 0
110 -3 125 -17 102z m-254 -665 c0 -8 -7 -29 -14 -46 -8 -18 -25 -61 -36 -97
-12 -36 -25 -69 -30 -75 -4 -5 -14 -30 -20 -55 -7 -25 -23 -67 -36 -95 -12
-27 -26 -70 -29 -95 -4 -25 -13 -55 -21 -67 -8 -12 -14 -33 -14 -47 0 -14 -5
-28 -12 -32 -7 -5 -9 -2 -6 8 4 9 9 37 13 64 8 65 45 235 55 254 4 9 11 34 15
57 3 23 15 52 26 64 10 12 19 34 19 49 0 15 3 30 8 34 4 4 7 11 8 14 12 82 15
88 45 84 17 -3 29 -10 29 -19z m-506 -309 c13 -5 14 -23 10 -112 -5 -122 -12
-165 -25 -156 -9 5 -13 274 -5 274 2 0 11 -3 20 -6z m-244 -503 c0 -6 -4 -13
-10 -16 -5 -3 -10 1 -10 9 0 9 5 16 10 16 6 0 10 -4 10 -9z m320 -136 c0 -23
-11 -42 -44 -74 -43 -42 -44 -43 -55 -22 -14 25 0 91 35 167 13 28 24 57 25
65 1 26 39 -106 39 -136z m160 -220 c0 -17 -4 -23 -15 -19 -11 5 -12 11 -4 25
13 26 19 24 19 -6z"/>
<path d="M3180 2145 c-7 -14 -17 -25 -21 -25 -5 0 -6 -7 -3 -15 4 -8 1 -15 -5
-15 -6 0 -11 -9 -11 -20 0 -11 5 -20 10 -20 6 0 9 -6 8 -12 -2 -7 6 -14 18
-16 16 -2 24 5 34 27 7 17 18 31 25 31 17 0 2 69 -17 81 -20 13 -23 11 -38
-16z"/>
<path d="M3083 2126 c1 -19 7 -32 13 -29 6 2 9 15 6 29 -7 38 -21 38 -19 0z"/>
<path d="M2442 2138 c-6 -6 -12 -25 -12 -41 0 -22 4 -28 16 -23 9 3 22 6 30 6
18 0 18 15 1 32 -8 7 -16 19 -18 26 -3 10 -7 10 -17 0z"/>
<path d="M1683 2119 c3 -13 1 -29 -5 -36 -6 -7 -8 -13 -4 -13 4 0 0 -13 -9
-30 -24 -47 -20 -60 20 -60 l36 0 -3 77 c-3 67 -6 78 -22 81 -15 3 -18 0 -13
-19z"/>
<path d="M3948 2097 c-3 -41 -4 -42 -46 -47 -40 -5 -42 -6 -29 -24 10 -14 28
-19 70 -21 49 -1 57 1 66 22 9 21 16 93 8 93 -1 0 -16 4 -34 9 l-32 9 -3 -41z"/>
<path d="M837 2113 c-4 -3 -7 -13 -7 -22 1 -13 3 -13 11 2 11 19 8 33 -4 20z"/>
<path d="M1380 2102 c0 -25 19 -42 48 -42 20 0 22 4 16 23 -12 38 -64 54 -64
19z"/>
<path d="M1320 2087 c0 -8 7 -14 15 -14 11 0 12 4 4 14 -6 7 -13 13 -15 13 -2
0 -4 -6 -4 -13z"/>
<path d="M2330 2088 c0 -4 7 -8 16 -8 8 0 13 -4 10 -9 -3 -4 6 -6 20 -3 25 4
26 3 23 -39 l-4 -44 38 -3 c38 -3 38 -3 35 30 -2 24 -9 34 -23 36 -11 2 -30
13 -42 25 -22 20 -73 30 -73 15z"/>
<path d="M1197 2070 c-3 -11 -3 -20 -1 -20 2 0 8 9 14 20 6 11 7 20 2 20 -6 0
-12 -9 -15 -20z"/>
<path d="M2180 2073 c8 -3 26 -15 40 -27 l25 -21 -24 28 c-14 15 -32 27 -40
26 -14 0 -14 -1 -1 -6z"/>
<path d="M4070 2063 c0 -49 75 -101 126 -89 l27 7 -22 20 c-11 11 -21 23 -21
28 0 4 -19 14 -42 21 -24 8 -49 18 -55 23 -9 7 -13 4 -13 -10z"/>
<path d="M4274 2062 c0 -14 6 -17 25 -14 23 5 23 6 6 18 -25 18 -31 18 -31 -4z"/>
<path d="M2686 2055 c4 -8 8 -15 10 -15 2 0 4 7 4 15 0 8 -4 15 -10 15 -5 0
-7 -7 -4 -15z"/>
<path d="M1356 2038 c-11 -42 -8 -51 18 -44 17 4 26 1 30 -10 9 -25 8 -27 -19
-22 -24 5 -25 4 -19 -31 4 -20 7 -37 8 -38 1 -1 23 30 49 70 l46 72 -42 12
c-57 17 -64 16 -71 -9z"/>
<path d="M1140 2001 c0 -25 6 -27 13 -6 4 8 2 17 -3 20 -6 4 -10 -3 -10 -14z"/>
<path d="M1266 1998 c-35 -54 -76 -160 -76 -198 0 -22 -4 -40 -8 -40 -14 0 3
-90 20 -106 14 -14 21 -7 67 68 54 87 59 113 39 179 -9 33 -9 42 5 57 15 16
15 20 1 40 -19 28 -30 28 -48 0z"/>
<path d="M3734 2008 c3 -24 17 -38 37 -38 25 0 24 8 -3 31 -27 22 -37 24 -34
7z"/>
<path d="M48 2003 c7 -3 16 -2 19 1 4 3 -2 6 -13 5 -11 0 -14 -3 -6 -6z"/>
<path d="M118 2003 c7 -3 16 -2 19 1 4 3 -2 6 -13 5 -11 0 -14 -3 -6 -6z"/>
<path d="M801 1994 c0 -11 3 -14 6 -6 3 7 2 16 -1 19 -3 4 -6 -2 -5 -13z"/>
<path d="M2185 2000 c-3 -5 1 -10 10 -10 9 0 13 5 10 10 -3 6 -8 10 -10 10 -2
0 -7 -4 -10 -10z"/>
<path d="M1477 1986 c-4 -10 -1 -13 9 -9 15 6 19 23 5 23 -5 0 -11 -7 -14 -14z"/>
<path d="M2625 1990 c-3 -5 1 -10 10 -10 9 0 13 5 10 10 -3 6 -8 10 -10 10 -2
0 -7 -4 -10 -10z"/>
<path d="M2715 1959 c4 -24 11 -52 16 -61 5 -9 9 -37 9 -61 0 -62 10 -105 25
-111 11 -4 10 3 -2 31 -11 28 -13 58 -9 127 5 85 5 89 -8 56 l-14 -35 -1 42
c-1 23 -6 45 -12 49 -8 5 -9 -6 -4 -37z"/>
<path d="M64 1938 c-5 -24 -9 -68 -9 -98 0 -63 -16 -80 -30 -32 -5 17 -13 32
-17 32 -12 0 -10 -114 2 -126 7 -7 7 -39 0 -100 -5 -49 -10 -266 -10 -483 l1
-393 22 18 c27 24 44 43 59 69 6 11 -4 5 -23 -13 -32 -32 -55 -28 -28 4 7 9
14 23 15 32 2 8 7 18 12 21 12 8 39 94 47 151 4 25 14 56 23 70 9 14 33 75 53
135 24 72 43 111 53 113 9 2 16 0 16 -4 0 -7 -32 -118 -122 -419 -45 -150 -56
-187 -62 -217 -4 -15 -20 -43 -36 -62 -22 -25 -30 -44 -30 -72 0 -30 3 -36 11
-24 8 11 9 8 5 -15 -9 -44 -16 -114 -10 -90 3 11 10 24 15 30 5 5 9 17 9 26 0
9 10 45 21 80 12 35 21 74 20 86 0 12 4 25 9 28 6 3 10 17 10 30 0 13 4 26 9
29 5 3 12 25 15 49 4 23 15 57 26 75 11 18 20 46 20 62 0 16 4 39 9 52 17 42
24 63 27 83 1 11 16 60 33 110 17 49 31 97 31 107 0 9 5 20 10 23 6 4 10 14 8
23 -1 10 3 33 9 52 6 19 21 69 33 110 12 41 30 100 40 130 26 76 36 206 15
214 -8 3 -12 12 -9 20 4 11 13 12 37 5 17 -5 31 -8 32 -6 1 1 5 28 8 60 l6 57
-29 0 c-25 0 -29 -4 -35 -40 -4 -22 -10 -38 -15 -35 -16 10 -32 -26 -36 -81
-2 -30 -9 -64 -14 -74 -6 -10 -10 -34 -10 -54 0 -35 -13 -55 -25 -36 -8 13 14
202 25 215 5 6 8 31 7 55 -2 55 -8 58 -144 59 l-101 1 -8 -42z m253 -390 c-19
-62 -38 -124 -41 -138 -3 -14 -12 -34 -20 -45 -13 -17 -17 -18 -25 -6 -5 8 -5
21 -1 30 5 9 26 68 46 131 20 63 44 133 53 155 15 38 16 38 19 13 2 -14 -12
-77 -31 -140z m-92 105 c-2 -16 -9 -68 -16 -118 -14 -106 -34 -143 -25 -45 6
59 21 145 31 178 8 23 15 12 10 -15z m65 -52 c0 -6 -4 -13 -10 -16 -5 -3 -10
1 -10 9 0 9 5 16 10 16 6 0 10 -4 10 -9z"/>
<path d="M990 1947 c0 -19 5 -39 10 -42 6 -3 10 -21 10 -38 0 -50 14 -63 33
-33 10 14 17 30 17 36 0 16 -30 70 -51 93 -19 21 -19 21 -19 -16z"/>
<path d="M469 1969 c0 -2 -2 -20 -4 -39 l-4 -35 10 34 c6 18 8 36 5 39 -3 3
-6 3 -7 1z"/>
<path d="M1555 1960 c-10 -16 4 -82 16 -75 12 8 12 72 0 80 -5 3 -13 0 -16 -5z"/>
<path d="M1990 1959 c0 -5 5 -7 10 -4 6 3 10 8 10 11 0 2 -4 4 -10 4 -5 0 -10
-5 -10 -11z"/>
<path d="M2475 1960 c-11 -4 -32 -5 -47 -3 -23 5 -28 2 -29 -16 -2 -66 0 -98
7 -116 11 -28 46 -75 56 -75 15 0 8 45 -11 76 -14 23 -16 35 -8 43 17 17 37
13 37 -9 0 -34 26 -22 45 20 15 32 16 45 7 65 -12 26 -23 29 -57 15z"/>
<path d="M2780 1958 c0 -9 5 -20 10 -23 13 -8 13 5 0 25 -8 13 -10 13 -10 -2z"/>
<path d="M2110 1957 c0 -15 28 -75 38 -81 13 -7 -11 61 -26 76 -7 7 -12 9 -12
5z"/>
<path d="M3070 1936 c0 -14 11 -41 24 -61 14 -20 27 -41 29 -48 2 -7 8 -9 12
-5 4 4 3 13 -3 20 -14 18 -33 90 -21 83 5 -4 9 -3 9 2 0 14 -15 28 -32 31 -13
2 -18 -4 -18 -22z"/>
<path d="M3274 1923 c-11 -14 -27 -26 -36 -26 -9 0 -16 -3 -16 -6 1 -3 -2 -14
-7 -24 -5 -13 1 -38 20 -78 29 -60 45 -74 45 -40 0 10 11 26 25 35 14 9 25 24
25 34 0 10 6 24 13 30 6 7 12 33 12 57 1 44 0 45 -30 45 -22 0 -37 -8 -51 -27z"/>
<path d="M1446 1924 c-4 -9 -4 -19 -1 -22 2 -3 7 3 11 12 4 9 4 19 1 22 -2 3
-7 -3 -11 -12z"/>
<path d="M2971 1923 c-10 -11 -10 -18 -2 -26 14 -14 23 -4 19 21 -3 18 -5 18
-17 5z"/>
<path d="M3177 1889 c7 -7 15 -10 18 -7 3 3 -2 9 -12 12 -14 6 -15 5 -6 -5z"/>
<path d="M3846 1891 c-3 -5 1 -11 9 -15 8 -3 15 -1 15 4 0 13 -18 22 -24 11z"/>
<path d="M1349 1773 c-93 -145 -107 -177 -101 -225 3 -32 8 -38 28 -38 20 0
24 5 25 33 0 17 6 59 13 92 l13 60 6 -39 c7 -46 0 -122 -16 -154 -8 -17 -8
-25 1 -34 9 -9 12 -8 12 4 0 8 7 21 15 28 8 7 15 25 15 40 0 15 6 33 14 39 11
9 13 26 9 65 -5 46 -2 57 16 75 12 12 25 20 30 17 4 -3 8 0 8 7 1 7 4 26 8 43
5 22 3 35 -7 45 -8 7 -12 23 -10 36 2 13 3 23 0 23 -2 0 -37 -53 -79 -117z"/>
<path d="M3920 1882 c0 -5 7 -16 16 -23 14 -12 16 -11 13 5 -4 20 -29 35 -29
18z"/>
<path d="M2272 1866 c7 -8 15 -12 17 -11 5 6 -10 25 -20 25 -5 0 -4 -6 3 -14z"/>
<path d="M3400 1856 c12 -34 2 -66 -22 -66 -21 0 -21 -7 -3 -75 9 -35 -7 -48
-41 -30 -16 8 -35 15 -41 15 -7 0 -13 5 -13 12 0 6 -3 9 -6 5 -3 -3 4 -24 17
-46 19 -35 21 -46 12 -75 -9 -29 -8 -38 5 -48 8 -7 23 -25 32 -40 14 -24 19
-26 34 -15 17 13 17 15 2 45 -16 32 -16 32 14 62 17 17 40 30 50 30 17 0 20 7
20 39 0 22 -5 43 -10 46 -7 4 -9 31 -7 68 5 65 -7 97 -35 97 -14 0 -16 -4 -8
-24z"/>
<path d="M1336 1843 c-6 -14 -5 -15 5 -6 7 7 10 15 7 18 -3 3 -9 -2 -12 -12z"/>
<path d="M2280 1820 c0 -23 38 -70 56 -70 7 0 16 13 22 28 8 23 7 29 -4 29 -8
0 -14 -6 -14 -14 0 -7 -4 -13 -8 -13 -14 0 -32 23 -32 42 0 10 -4 18 -10 18
-5 0 -10 -9 -10 -20z"/>
<path d="M3635 1830 c4 -6 11 -8 16 -5 14 9 11 15 -7 15 -8 0 -12 -5 -9 -10z"/>
<path d="M4074 1811 c0 -12 6 -17 18 -13 10 2 18 6 18 8 0 2 -8 8 -18 13 -14
7 -18 6 -18 -8z"/>
<path d="M412 1800 c0 -14 2 -19 5 -12 2 6 2 18 0 25 -3 6 -5 1 -5 -13z"/>
<path d="M1120 1793 c0 -18 5 -33 10 -33 13 0 13 30 0 50 -7 11 -10 7 -10 -17z"/>
<path d="M2253 1804 c-3 -8 -1 -20 6 -27 8 -8 11 -4 11 16 0 30 -7 35 -17 11z"/>
<path d="M2571 1798 c-9 -23 0 -51 19 -63 6 -3 10 -17 10 -31 0 -30 18 -31 29
-1 7 16 4 27 -10 40 -11 10 -19 31 -19 47 0 35 -17 40 -29 8z"/>
<path d="M2810 1806 c0 -8 4 -17 9 -20 5 -4 7 3 4 14 -6 23 -13 26 -13 6z"/>
<path d="M2910 1811 c0 -12 39 -35 46 -28 3 2 -7 12 -21 21 -14 9 -25 12 -25
7z"/>
<path d="M3880 1813 c0 -3 8 -24 18 -44 12 -28 23 -39 40 -39 20 0 22 4 16 23
-11 35 -37 66 -56 67 -10 0 -18 -3 -18 -7z"/>
<path d="M767 1802 c-16 -23 17 -307 33 -297 9 6 7 39 -10 175 -5 47 -11 96
-13 110 -1 17 -5 21 -10 12z"/>
<path d="M1059 1792 c-8 -12 -19 -22 -26 -22 -15 0 -19 -125 -4 -135 5 -3 12
-18 16 -33 3 -15 21 -42 40 -61 l34 -33 -8 30 c-5 16 -18 51 -30 77 -26 58
-26 59 -2 52 18 -4 19 -3 5 35 -10 29 -11 44 -2 57 7 12 8 23 1 36 -10 17 -11
17 -24 -3z"/>
<path d="M2182 1805 c2 -6 12 -32 22 -58 17 -42 17 -51 5 -73 -13 -24 -11 -28
15 -51 37 -31 44 -23 17 20 -11 19 -19 36 -16 38 2 3 6 19 10 37 4 24 2 32
-10 32 -8 0 -15 6 -15 13 0 7 -7 22 -16 33 -8 10 -14 14 -12 9z"/>
<path d="M3166 1743 c5 -56 -7 -93 -31 -93 -11 0 -13 -8 -9 -30 12 -57 -63
-57 -81 0 -3 10 -13 21 -22 24 -29 12 -37 -9 -25 -67 13 -66 -4 -156 -37 -191
-20 -21 -22 -35 -22 -137 -1 -114 14 -188 39 -197 6 -2 14 9 18 25 9 39 34 86
41 79 8 -8 34 59 40 104 3 19 11 42 18 50 6 8 15 23 18 33 6 17 23 21 61 17
18 -2 18 0 -3 25 -22 28 -29 75 -11 75 6 0 10 6 10 13 0 7 9 30 20 52 25 50
29 125 7 159 -9 14 -14 32 -11 40 3 8 -1 27 -9 43 -15 27 -15 27 -11 -24z"/>
<path d="M2972 1768 c6 -18 55 -44 65 -34 10 9 -33 46 -54 46 -8 0 -13 -6 -11
-12z"/>
<path d="M3580 1717 c0 -33 -7 -51 -31 -80 -17 -20 -37 -37 -45 -37 -8 0 -14
-10 -14 -24 0 -14 -4 -28 -10 -31 -5 -3 -14 -24 -20 -45 -6 -22 -15 -40 -19
-40 -5 0 -14 -12 -20 -27 -8 -21 -7 -42 3 -88 8 -33 12 -63 10 -67 -9 -14 -36
-9 -71 13 -25 15 -31 25 -24 32 6 6 11 19 11 30 0 16 -5 18 -30 12 -19 -4 -37
-2 -46 6 -29 24 -26 -1 4 -35 21 -24 33 -50 37 -83 4 -26 16 -63 26 -81 10
-18 19 -43 19 -55 0 -12 11 -48 24 -80 19 -47 25 -55 35 -43 9 11 8 28 -4 76
-15 59 -15 63 5 104 11 23 20 52 20 63 0 30 25 46 73 47 48 1 44 -23 31 179
-6 99 -5 109 13 130 21 22 63 125 63 152 0 8 -9 15 -20 15 -17 0 -20 -7 -20
-43z"/>
<path d="M2900 1742 c-23 -8 -30 -23 -30 -74 0 -26 -4 -50 -10 -53 -5 -3 -10
-11 -10 -18 0 -19 26 26 34 58 10 40 34 65 63 65 13 0 22 4 19 9 -7 11 -47 19
-66 13z"/>
<path d="M3917 1700 c3 -11 9 -20 13 -20 5 0 6 9 3 20 -3 11 -9 20 -13 20 -5
0 -6 -9 -3 -20z"/>
<path d="M2726 1684 c-4 -12 0 -41 9 -65 19 -58 19 -72 -4 -86 -16 -10 -19
-20 -14 -50 3 -21 10 -47 14 -58 7 -17 8 -17 8 -2 1 9 5 17 10 17 13 0 18 -60
7 -91 -7 -19 -4 -32 9 -52 9 -15 21 -27 26 -27 9 0 2 82 -9 110 -16 41 -3 88
21 73 7 -4 8 0 2 13 -9 21 -25 91 -27 114 -1 8 -5 18 -10 21 -5 3 -15 28 -22
55 -10 40 -14 45 -20 28z"/>
<path d="M3062 1689 c2 -7 10 -15 17 -17 8 -3 12 1 9 9 -2 7 -10 15 -17 17 -8
3 -12 -1 -9 -9z"/>
<path d="M1813 1633 c-12 -32 -27 -83 -33 -113 -6 -30 -15 -64 -20 -75 -12
-29 -46 -125 -59 -166 -6 -19 -11 -49 -11 -65 0 -16 -7 -51 -15 -78 -8 -27
-20 -77 -26 -111 -6 -38 -19 -72 -32 -86 -15 -16 -20 -33 -18 -61 1 -21 -7
-65 -18 -98 -12 -33 -21 -71 -21 -84 0 -13 -9 -35 -20 -49 -11 -14 -20 -38
-20 -54 -1 -15 -7 -39 -15 -53 -8 -14 -14 -36 -15 -50 l0 -25 -25 27 c-14 15
-25 34 -25 43 0 20 -17 19 -28 -2 -12 -23 -32 -139 -32 -184 0 -42 31 -75 106
-112 l51 -26 25 38 c14 22 28 55 32 75 4 20 10 36 15 36 9 0 68 81 94 127 9
18 14 33 11 33 -3 0 2 7 10 16 10 9 16 33 16 62 0 26 7 79 16 117 8 39 19 159
24 267 5 109 11 202 14 207 8 12 36 301 36 372 0 30 4 59 10 65 5 5 6 22 2 37
-7 26 -8 24 -29 -30z m-58 -583 c3 -5 1 -10 -4 -10 -6 0 -11 5 -11 10 0 6 2
10 4 10 3 0 8 -4 11 -10z m-28 -215 c-7 -38 -15 -75 -19 -80 -3 -6 -10 -43
-13 -83 -8 -72 -19 -98 -31 -68 -16 42 46 330 67 309 4 -4 3 -39 -4 -78z"/>
<path d="M2370 1663 c0 -11 7 -27 16 -34 15 -12 16 -11 9 11 -10 35 -25 49
-25 23z"/>
<path d="M4680 1660 c0 -11 5 -20 10 -20 6 0 10 9 10 20 0 11 -4 20 -10 20 -5
0 -10 -9 -10 -20z"/>
<path d="M2820 1628 c0 -23 3 -29 9 -19 8 12 4 51 -5 51 -2 0 -4 -15 -4 -32z"/>
<path d="M2080 1635 c-12 -15 -5 -55 11 -55 5 0 9 16 9 35 0 39 -2 41 -20 20z"/>
<path d="M732 1610 c0 -19 2 -27 5 -17 2 9 2 25 0 35 -3 9 -5 1 -5 -18z"/>
<path d="M2515 1628 c-4 -9 -4 -21 -1 -26 8 -13 46 -22 46 -11 0 5 -4 9 -8 9
-5 0 -14 10 -19 23 -10 19 -12 20 -18 5z"/>
<path d="M1170 1616 c0 -8 5 -18 10 -21 6 -3 10 1 10 9 0 8 -4 18 -10 21 -5 3
-10 -1 -10 -9z"/>
<path d="M3976 1608 c14 -48 36 -81 44 -68 11 18 0 52 -23 73 -26 22 -30 22
-21 -5z"/>
<path d="M395 1609 c-4 -6 -5 -12 -2 -15 2 -3 7 2 10 11 7 17 1 20 -8 4z"/>
<path d="M4290 1573 c22 -71 36 -93 72 -113 21 -12 38 -17 38 -12 0 4 -16 31
-36 58 -19 27 -39 59 -44 72 -5 12 -16 22 -24 22 -11 0 -13 -6 -6 -27z"/>
<path d="M2245 1527 c1 -45 14 -75 41 -98 16 -13 17 -11 10 21 -3 19 -11 36
-16 38 -5 2 -12 19 -16 38 -9 49 -19 49 -19 1z"/>
<path d="M2280 1550 c0 -5 7 -10 16 -10 8 0 12 5 9 10 -3 6 -10 10 -16 10 -5
0 -9 -4 -9 -10z"/>
<path d="M2316 1518 c4 -7 11 -28 14 -48 6 -27 9 -31 15 -17 8 19 -12 77 -27
77 -5 0 -6 -5 -2 -12z"/>
<path d="M2556 1501 c-4 -6 -1 -41 6 -78 l13 -68 3 69 c3 65 -7 101 -22 77z"/>
<path d="M1055 1468 c4 -14 -4 -42 -20 -73 -15 -27 -29 -72 -31 -100 l-5 -50
32 60 c17 33 37 70 45 82 17 27 18 44 2 78 -14 31 -30 33 -23 3z"/>
<path d="M2094 1481 c-2 -2 -4 -22 -4 -45 0 -31 3 -37 12 -28 7 7 20 12 29 12
10 0 21 9 24 20 3 11 11 20 16 20 5 0 9 6 9 14 0 10 -12 14 -41 13 -22 -1 -43
-4 -45 -6z"/>
<path d="M4056 1463 c-5 -11 1 -23 16 -34 29 -22 34 -17 18 21 -14 34 -25 38
-34 13z"/>
<path d="M803 1440 c-7 -17 -7 -45 -1 -85 24 -150 3 -298 -58 -416 -12 -23
-12 -28 2 -33 17 -7 14 -55 -13 -160 -8 -32 -12 -60 -9 -63 13 -14 38 82 51
197 8 76 46 240 56 240 8 0 16 -49 23 -145 6 -76 5 -73 16 -54 14 23 -4 176
-23 197 -15 16 -15 24 -1 82 26 113 45 222 40 228 -3 3 -6 -1 -6 -9 -1 -8 -11
-36 -24 -64 l-24 -50 -6 60 c-12 108 -11 103 -23 75z"/>
<path d="M652 1407 c-14 -40 -15 -47 -3 -47 9 0 26 69 19 76 -2 2 -10 -11 -16
-29z"/>
<path d="M1301 1401 c-6 -21 -11 -52 -11 -70 0 -17 -3 -31 -8 -31 -4 0 -6 -17
-5 -37 1 -21 -3 -48 -9 -61 -15 -30 5 -54 20 -25 13 24 42 175 42 219 0 47
-15 50 -29 5z"/>
<path d="M581 1405 c-16 -36 -79 -179 -111 -250 -51 -112 -62 -142 -66 -175
-4 -30 -3 -33 10 -20 24 26 142 203 161 243 17 36 17 41 2 72 -17 35 -11 81
13 110 7 8 10 22 8 32 -4 14 -7 12 -17 -12z"/>
<path d="M704 1417 c-4 -10 -2 -23 3 -28 14 -14 24 13 13 32 -7 11 -10 10 -16
-4z"/>
<path d="M2076 1368 c-4 -15 -26 -183 -32 -242 l-4 -40 25 34 c14 19 25 39 26
44 0 6 4 52 8 101 8 91 6 115 -10 115 -5 0 -11 -6 -13 -12z"/>
<path d="M1151 1343 c0 -16 4 -37 9 -48 6 -15 9 -8 9 28 1 26 -3 47 -9 47 -5
0 -10 -12 -9 -27z"/>
<path d="M2217 1323 c-7 -27 -13 -49 -12 -51 7 -10 37 15 50 41 19 37 19 34
-4 47 -18 9 -21 5 -34 -37z"/>
<path d="M4304 1363 c-13 -4 15 -72 38 -91 24 -20 42 2 35 43 -3 21 -8 40 -11
42 -6 6 -49 10 -62 6z"/>
<path d="M1900 1295 c0 -14 4 -25 9 -25 4 0 6 11 3 25 -2 14 -6 25 -8 25 -2 0
-4 -11 -4 -25z"/>
<path d="M2811 1304 c0 -11 3 -14 6 -6 3 7 2 16 -1 19 -3 4 -6 -2 -5 -13z"/>
<path d="M700 1273 c1 -27 1 -27 15 -9 14 19 12 36 -6 36 -5 0 -9 -12 -9 -27z"/>
<path d="M3710 1290 c0 -5 7 -10 15 -10 8 0 15 5 15 10 0 6 -7 10 -15 10 -8 0
-15 -4 -15 -10z"/>
<path d="M4130 1265 c13 -14 26 -23 28 -20 7 7 -29 45 -41 45 -6 0 0 -11 13
-25z"/>
<path d="M3147 1244 c-4 -4 -7 -23 -7 -41 0 -34 -15 -73 -31 -84 -5 -3 -12
-41 -15 -85 -5 -53 -12 -85 -24 -99 -25 -29 -29 -54 -15 -121 6 -32 10 -67 7
-76 -4 -15 -6 -15 -26 3 l-21 20 -17 -38 c-10 -21 -18 -45 -18 -53 -1 -34 -40
-127 -63 -150 -17 -17 -26 -42 -31 -78 -4 -29 -16 -67 -26 -85 -11 -18 -20
-43 -20 -57 0 -14 -11 -42 -25 -63 l-26 -37 23 0 c32 0 112 59 154 114 22 30
46 49 63 52 16 3 52 30 81 60 29 30 56 54 59 54 4 0 17 18 31 40 27 43 31 45
61 30 10 -6 19 -7 20 -3 9 124 7 174 -7 223 -9 30 -17 98 -19 150 -3 92 -10
127 -35 181 -6 14 -17 52 -23 85 -11 55 -30 77 -50 58z"/>
<path d="M876 1222 c-4 -13 -5 -26 -2 -29 10 -11 18 4 14 29 l-4 23 -8 -23z"/>
<path d="M1130 1225 c0 -8 2 -15 4 -15 2 0 6 7 10 15 3 8 1 15 -4 15 -6 0 -10
-7 -10 -15z"/>
<path d="M2730 1221 c0 -12 -4 -21 -10 -21 -5 0 -10 -20 -10 -43 0 -31 6 -49
20 -62 20 -18 20 -17 20 58 0 42 -4 79 -10 82 -5 3 -10 -3 -10 -14z"/>
<path d="M2772 1200 c0 -19 2 -27 5 -17 2 9 2 25 0 35 -3 9 -5 1 -5 -18z"/>
<path d="M2470 1216 c0 -3 9 -20 19 -38 11 -18 23 -51 27 -72 4 -22 13 -51 21
-65 l15 -26 -7 25 c-4 14 -9 41 -10 60 -2 19 -6 43 -10 53 -4 10 -3 17 4 17
21 0 11 27 -14 38 -27 12 -45 15 -45 8z"/>
<path d="M2866 1204 c-3 -9 -6 -27 -6 -40 0 -14 -4 -22 -10 -19 -5 3 -10 2
-10 -4 0 -5 5 -13 11 -17 8 -5 10 -31 5 -82 -5 -66 -10 -79 -35 -104 -20 -20
-30 -41 -34 -74 -2 -25 -10 -51 -17 -57 -10 -9 -11 -9 -6 1 4 7 2 20 -5 28 -7
9 -13 39 -12 67 0 51 0 52 -13 22 -15 -34 -18 -75 -6 -75 12 0 42 -99 43 -141
1 -31 2 -32 8 -9 7 24 7 24 19 5 10 -17 13 -18 22 -5 15 23 12 43 -5 36 -9 -3
-15 0 -15 9 0 9 6 12 15 9 9 -4 17 1 21 12 18 54 40 104 46 104 3 0 9 14 13
30 4 17 11 30 17 30 13 0 0 152 -13 161 -6 3 -12 25 -15 49 -3 24 -8 49 -12
54 -3 6 3 4 13 -4 17 -14 18 -14 6 8 -14 26 -17 27 -25 6z"/>
<path d="M3659 1179 c-11 -21 -8 -26 25 -53 20 -17 36 -39 36 -49 0 -37 -31
-125 -43 -123 -42 8 -55 19 -61 51 -4 19 -11 37 -16 40 -17 10 -24 -26 -12
-59 25 -71 25 -102 1 -125 -21 -19 -21 -23 -8 -37 12 -11 22 -12 41 -5 22 8
27 7 31 -10 9 -35 -5 -93 -30 -122 -28 -35 -28 -39 -3 -62 11 -10 20 -26 20
-36 0 -27 -22 -69 -36 -69 -25 0 -24 -48 3 -99 l26 -52 -33 -34 c-22 -23 -37
-31 -45 -25 -6 5 -17 5 -24 1 -7 -5 -34 0 -63 11 -27 10 -53 16 -59 13 -12 -8
-12 -55 1 -55 5 0 20 -18 32 -40 l23 -40 123 0 122 0 1 53 c5 231 9 263 34
253 22 -8 26 23 4 34 -14 8 -18 17 -14 31 4 10 -1 29 -9 41 -22 31 -21 136 0
166 13 19 14 28 4 52 -11 27 -8 65 17 183 3 16 1 27 -6 27 -16 0 -13 36 4 50
11 9 15 27 13 59 l-3 46 -42 3 c-35 3 -44 -1 -54 -19z m-129 -924 c0 -9 -10
-16 -27 -16 l-28 -2 28 -4 c34 -5 36 -23 3 -23 -30 0 -40 13 -31 40 8 24 55
28 55 5z"/>
<path d="M3930 1178 c0 -18 18 -34 28 -24 3 4 -2 14 -11 23 -16 16 -17 16 -17
1z"/>
<path d="M2340 1158 c4 -51 -1 -70 -19 -75 -11 -3 -28 -25 -40 -55 -23 -56
-26 -72 -11 -63 14 9 12 -7 -5 -48 -8 -20 -15 -41 -15 -48 0 -12 128 -139 140
-139 15 0 19 45 8 87 -5 23 -8 49 -5 58 4 8 -1 19 -12 25 -20 10 -43 83 -34
107 5 12 9 11 29 -2 15 -10 25 -11 29 -4 4 6 -2 13 -13 16 -14 3 -24 19 -31
48 -14 57 -15 55 13 55 17 0 27 -8 34 -27 15 -38 25 -74 27 -98 2 -11 9 -40
16 -65 l14 -45 5 40 c3 22 -1 69 -8 105 -7 36 -16 83 -20 104 -8 42 -32 62
-32 26 0 -15 -5 -20 -17 -18 -10 2 -17 10 -15 17 1 7 -2 10 -8 6 -5 -3 -10 -1
-10 4 0 6 -5 11 -11 11 -6 0 -10 -10 -9 -22z"/>
<path d="M1130 1151 c0 -5 5 -13 10 -16 6 -3 10 -2 10 4 0 5 -4 13 -10 16 -5
3 -10 2 -10 -4z"/>
<path d="M622 1095 c0 -16 2 -22 5 -12 2 9 2 23 0 30 -3 6 -5 -1 -5 -18z"/>
<path d="M1891 1034 c-12 -49 -31 -123 -41 -164 -21 -81 -24 -110 -12 -109 11
0 72 134 72 158 0 12 7 32 15 44 19 30 21 85 4 126 l-15 35 -23 -90z"/>
<path d="M1150 1098 c0 -7 5 -20 10 -28 8 -12 10 -11 10 7 0 12 -4 25 -10 28
-5 3 -10 0 -10 -7z"/>
<path d="M2114 1085 c-3 -8 -4 -20 -2 -27 3 -7 7 -1 10 15 6 29 1 36 -8 12z"/>
<path d="M4098 1073 c-12 -3 -18 -14 -18 -33 0 -21 6 -29 25 -34 16 -4 25 -13
25 -26 0 -16 7 -20 35 -20 34 0 35 1 35 40 0 29 -4 40 -15 40 -8 0 -15 5 -15
11 0 5 -4 8 -9 5 -5 -3 -11 1 -15 9 -5 15 -16 17 -48 8z"/>
<path d="M482 965 c-70 -102 -72 -107 -73 -167 0 -35 -4 -72 -9 -83 -7 -16 -9
-13 -15 23 -4 23 -10 42 -14 42 -3 0 -19 -24 -35 -53 -93 -169 -109 -201 -97
-205 8 -3 10 -22 7 -65 -4 -43 -3 -54 3 -37 l9 25 1 -27 c1 -18 -4 -28 -13
-28 -7 0 -16 -10 -20 -23 -11 -40 -7 -49 15 -42 16 5 20 3 19 -12 -4 -36 0
-42 38 -53 35 -10 38 -9 65 22 15 18 27 36 27 41 0 15 84 139 130 192 24 27
39 54 36 62 -3 8 -6 17 -6 19 0 14 -20 1 -20 -13 0 -10 -12 -26 -26 -37 -26
-18 -26 -18 -21 0 3 11 11 44 17 74 7 30 16 64 21 75 4 11 13 38 20 60 6 22
16 43 21 46 12 8 -3 100 -16 96 -6 -2 -18 -45 -28 -95 -18 -100 -23 -112 -42
-112 -10 0 -10 11 0 58 15 70 67 219 81 233 7 7 8 22 4 38 -5 14 -6 32 -4 39
10 28 -8 6 -75 -93z m-120 -457 c-6 -6 -15 -9 -18 -5 -4 3 -4 14 0 23 5 13 9
15 18 6 9 -9 9 -15 0 -24z m45 -92 c-15 -44 -39 -62 -31 -24 12 55 28 114 33
123 13 21 11 -62 -2 -99z"/>
<path d="M2040 1003 c-7 -16 -15 -66 -17 -113 -4 -103 9 -83 27 43 14 93 11
114 -10 70z"/>
<path d="M2750 990 c0 -5 5 -10 10 -10 6 0 10 5 10 10 0 6 -4 10 -10 10 -5 0
-10 -4 -10 -10z"/>
<path d="M356 890 c-15 -27 -23 -50 -19 -50 10 0 56 90 50 96 -2 2 -16 -18
-31 -46z"/>
<path d="M2516 931 c-4 -7 -5 -15 -2 -18 9 -9 19 4 14 18 -4 11 -6 11 -12 0z"/>
<path d="M2952 920 c0 -14 2 -19 5 -12 2 6 2 18 0 25 -3 6 -5 1 -5 -13z"/>
<path d="M197 867 c-18 -28 -38 -97 -28 -97 11 0 38 52 46 88 8 38 3 41 -18 9z"/>
<path d="M2527 868 c-5 -16 3 -48 12 -48 4 0 6 14 3 30 -5 33 -8 37 -15 18z"/>
<path d="M4128 852 c-15 -25 -15 -30 3 -62 10 -19 19 -51 20 -70 1 -19 3 -27
6 -17 5 20 33 23 33 3 0 -9 8 -12 25 -8 38 7 34 51 -10 95 -19 19 -35 42 -35
50 0 8 -6 19 -13 25 -10 9 -17 5 -29 -16z"/>
<path d="M2970 855 c0 -8 5 -15 10 -15 6 0 10 7 10 15 0 8 -4 15 -10 15 -5 0
-10 -7 -10 -15z"/>
<path d="M287 853 c-4 -3 -7 -16 -6 -27 0 -19 1 -19 10 3 10 24 8 36 -4 24z"/>
<path d="M3500 844 c0 -9 10 -13 25 -12 14 1 25 5 25 9 0 4 -11 9 -25 11 -17
4 -25 1 -25 -8z"/>
<path d="M2445 840 c4 -6 11 -8 16 -5 14 9 11 15 -7 15 -8 0 -12 -5 -9 -10z"/>
<path d="M2698 800 c-10 -17 -23 -29 -30 -28 -7 2 -12 -2 -11 -9 2 -7 -6 -17
-16 -22 -35 -19 -64 -82 -67 -145 -4 -91 -46 -112 -80 -40 l-16 34 -29 -21
-29 -20 29 -25 c16 -13 36 -24 45 -24 22 0 76 -56 76 -78 0 -19 -36 -83 -53
-94 -16 -10 -27 0 -27 22 0 27 -52 130 -62 124 -4 -3 -8 -34 -8 -69 0 -62 -15
-115 -32 -115 -4 0 -8 5 -8 11 0 17 -40 64 -41 48 0 -8 -2 -25 -5 -37 -3 -18
1 -25 16 -29 21 -5 21 -6 -2 -17 -14 -7 -24 -22 -26 -39 l-3 -27 165 0 166 0
0 39 c0 23 -8 48 -19 62 -17 21 -17 25 -3 63 9 23 23 50 32 61 9 11 24 43 32
70 9 28 20 59 24 69 5 14 4 17 -4 12 -7 -4 -15 0 -18 9 -9 23 6 166 17 159 5
-3 9 -16 9 -28 0 -28 24 -78 33 -70 4 4 2 14 -2 23 -8 13 -13 54 -20 154 -2
16 -17 5 -33 -23z m-223 -522 c-9 -27 -22 -44 -30 -36 -8 7 16 58 27 58 5 0 6
-10 3 -22z"/>
<path d="M2185 777 c-4 -16 -5 -63 -1 -105 3 -42 7 -117 7 -165 2 -87 2 -87
23 -74 14 10 22 27 24 53 2 22 10 46 18 55 21 23 7 112 -32 194 -31 66 -33 68
-39 42z"/>
<path d="M2007 784 c-4 -4 -7 -17 -7 -28 1 -19 1 -20 11 -3 11 19 8 43 -4 31z"/>
<path d="M1874 755 c-4 -14 -4 -29 0 -32 9 -10 36 18 36 38 0 28 -29 23 -36
-6z"/>
<path d="M192 738 c-15 -43 -17 -162 -1 -136 27 48 36 93 25 132 l-11 39 -13
-35z"/>
<path d="M2528 748 c-24 -25 -23 -28 12 -28 31 0 41 19 18 37 -9 7 -19 4 -30
-9z"/>
<path d="M562 665 c0 -16 2 -22 5 -12 2 9 2 23 0 30 -3 6 -5 -1 -5 -18z"/>
<path d="M2873 683 c-7 -2 -13 -12 -13 -22 0 -21 -19 -41 -38 -41 -22 0 -56
-50 -65 -95 -15 -78 -19 -170 -8 -199 11 -28 12 -28 26 -10 8 10 15 41 15 67
0 26 6 60 14 75 7 15 16 45 20 67 11 62 16 75 32 75 8 0 14 6 14 13 0 9 2 9 9
-1 6 -10 10 -8 14 10 9 32 9 68 0 67 -5 0 -14 -3 -20 -6z"/>
<path d="M4160 666 c0 -9 5 -16 10 -16 6 0 10 4 10 9 0 6 -4 13 -10 16 -5 3
-10 -1 -10 -9z"/>
<path d="M4802 660 c0 -14 2 -19 5 -12 2 6 2 18 0 25 -3 6 -5 1 -5 -13z"/>
<path d="M2462 650 c-7 -11 -8 -20 -3 -20 9 0 24 30 18 36 -1 2 -8 -6 -15 -16z"/>
<path d="M1809 613 c-48 -117 -81 -179 -158 -308 -60 -99 -62 -105 -42 -105
13 0 21 9 26 30 9 42 45 42 45 0 0 -30 0 -30 60 -30 l59 0 7 37 c4 21 13 45
21 54 7 9 27 47 43 85 33 76 41 185 18 226 -15 24 -45 58 -53 58 -3 0 -15 -21
-26 -47z"/>
<path d="M152 620 c0 -14 2 -19 5 -12 2 6 2 18 0 25 -3 6 -5 1 -5 -13z"/>
<path d="M3858 589 c3 -32 8 -49 15 -46 20 6 20 61 0 79 -17 16 -18 14 -15
-33z"/>
<path d="M2737 613 c-4 -3 -7 -11 -7 -17 0 -6 5 -5 12 2 6 6 9 14 7 17 -3 3
-9 2 -12 -2z"/>
<path d="M4174 605 c-3 -8 -3 -19 1 -25 11 -18 25 -11 25 15 0 27 -17 34 -26
10z"/>
<path d="M2370 570 c-19 -17 -41 -30 -50 -30 -8 0 -23 -14 -32 -30 -16 -29
-16 -30 0 -21 19 10 130 110 122 110 -3 0 -21 -13 -40 -29z"/>
<path d="M2381 519 c-13 -11 -22 -21 -20 -23 2 -3 15 4 28 15 13 11 22 21 20
23 -2 3 -15 -4 -28 -15z"/>
<path d="M175 473 c-9 -38 -13 -153 -4 -153 9 0 16 32 24 113 5 43 4 67 -3 67
-5 0 -13 -12 -17 -27z"/>
<path d="M3291 482 c-14 -25 -14 -52 -1 -72 15 -22 27 2 25 46 -3 44 -10 51
-24 26z"/>
<path d="M2058 476 c-10 -9 -22 -34 -27 -54 -13 -55 -22 -152 -14 -152 12 0
93 78 93 89 0 6 -6 30 -14 53 -8 24 -16 52 -18 62 -3 19 -4 19 -20 2z"/>
<path d="M2248 413 c-26 -21 -81 -63 -123 -93 -43 -30 -82 -60 -89 -65 -6 -6
-24 -20 -40 -33 -21 -16 -24 -22 -12 -22 9 0 31 13 49 30 17 16 33 27 36 24 3
-2 -5 -11 -17 -20 -31 -22 -27 -34 11 -34 30 0 37 7 82 76 28 42 68 90 90 107
58 46 80 67 69 67 -5 0 -30 -17 -56 -37z"/>
<path d="M548 413 c-22 -26 -73 -132 -66 -138 3 -3 21 -8 40 -11 l35 -6 -1 45
c-1 43 -2 45 -18 30 -10 -9 -15 -20 -12 -24 3 -5 0 -9 -5 -9 -15 0 -14 12 3
35 14 21 47 95 42 95 -2 0 -10 -8 -18 -17z"/>
<path d="M3188 399 c-9 -5 -31 -32 -49 -61 -18 -29 -48 -68 -66 -86 -18 -18
-33 -37 -33 -42 0 -6 26 -10 57 -10 51 0 61 4 90 32 l32 31 10 -24 c5 -13 7
-27 4 -31 -8 -14 14 -8 27 7 7 8 18 15 25 15 13 0 22 31 32 108 6 48 -12 59
-22 13 -3 -15 -19 -41 -36 -57 -28 -26 -30 -27 -46 -11 -15 15 -16 21 -4 50
22 55 23 64 9 70 -8 3 -21 1 -30 -4z"/>
<path d="M2641 344 c0 -11 3 -14 6 -6 3 7 2 16 -1 19 -3 4 -6 -2 -5 -13z"/>
<path d="M4197 347 c-4 -10 -17 -17 -31 -17 -37 0 -56 -10 -56 -30 0 -10 -7
-20 -15 -24 -8 -3 -15 -10 -15 -16 0 -16 53 -12 80 7 14 10 27 15 29 13 7 -7
23 59 18 73 -2 6 -6 3 -10 -6z"/>
<path d="M143 230 l-11 -30 88 0 c73 0 89 3 94 17 8 19 -9 32 -44 34 -46 2
-65 -3 -87 -24 -20 -18 -23 -18 -23 -4 0 9 5 17 11 17 5 0 7 5 4 10 -11 17
-20 11 -32 -20z"/>
<path d="M1398 203 c6 -2 18 -2 25 0 6 3 1 5 -13 5 -14 0 -19 -2 -12 -5z"/>
<path d="M2272 110 c0 -41 2 -47 7 -25 9 43 38 45 44 3 l5 -33 -2 35 c-1 28
-5 35 -21 35 -11 0 -23 9 -27 20 -3 11 -6 -4 -6 -35z"/>
<path d="M2932 110 c0 -30 2 -47 5 -37 4 17 6 17 31 1 l27 -17 -20 22 c-19 22
-19 23 0 37 10 8 14 14 8 14 -6 0 -17 -7 -24 -17 -13 -15 -15 -13 -20 18 -5
27 -6 23 -7 -21z"/>
<path d="M2432 109 c2 -33 7 -44 21 -45 12 -1 13 -1 2 3 -16 5 -21 49 -6 55 5
2 2 9 -6 16 -12 12 -14 8 -11 -29z"/>
<path d="M2482 110 c2 -34 7 -45 21 -46 12 -1 13 -1 2 3 -22 7 -20 53 3 54 13
0 14 2 2 6 -8 3 -18 11 -23 17 -4 6 -6 -9 -5 -34z"/>
<path d="M2732 109 c2 -33 7 -44 21 -45 12 -1 13 -1 2 3 -16 5 -21 49 -6 55 5
2 2 9 -6 16 -12 12 -14 8 -11 -29z"/>
<path d="M3468 143 c6 -2 12 -20 12 -38 0 -18 -6 -36 -12 -38 -7 -3 1 -5 17
-5 17 0 24 2 18 5 -8 2 -13 22 -13 44 0 31 -4 39 -17 38 -11 0 -13 -3 -5 -6z"/>
<path d="M3552 143 c26 -4 26 -4 12 -40 -8 -19 -13 -37 -11 -40 3 -2 9 9 15
24 5 15 13 36 17 46 6 14 2 17 -26 16 -30 -2 -30 -3 -7 -6z"/>
<path d="M3628 143 c6 -2 18 -2 25 0 6 3 1 5 -13 5 -14 0 -19 -2 -12 -5z"/>
<path d="M3708 143 c6 -2 12 -20 12 -38 0 -18 -6 -36 -12 -38 -7 -3 1 -5 17
-5 17 0 24 2 18 5 -8 2 -13 22 -13 44 0 31 -4 39 -17 38 -11 0 -13 -3 -5 -6z"/>
<path d="M3783 143 c-7 -2 -13 -14 -12 -26 0 -22 0 -22 9 1 10 24 25 29 36 10
4 -6 -2 -18 -12 -26 -16 -13 -17 -14 -1 -9 25 9 21 -12 -5 -23 -16 -6 -18 -9
-7 -9 24 -1 41 24 37 56 -3 27 -20 37 -45 26z"/>
<path d="M3878 143 c26 -5 29 -19 5 -27 -14 -4 -14 -4 2 -3 29 3 25 32 -5 34
-22 1 -22 1 -2 -4z"/>
<path d="M3942 141 c-22 -13 -10 -46 16 -45 29 1 28 -14 0 -26 -16 -6 -18 -9
-7 -9 24 -1 41 24 37 56 -3 29 -23 39 -46 24z m33 -22 c0 -7 -8 -15 -17 -17
-18 -3 -25 18 -11 32 10 10 28 1 28 -15z"/>
<path d="M4028 143 c6 -2 12 -20 12 -38 0 -18 -6 -36 -12 -38 -7 -3 1 -5 17
-5 17 0 24 2 18 5 -8 2 -13 22 -13 44 0 31 -4 39 -17 38 -11 0 -13 -3 -5 -6z"/>
<path d="M4108 143 c6 -2 18 -2 25 0 6 3 1 5 -13 5 -14 0 -19 -2 -12 -5z"/>
<path d="M1846 100 c7 -38 11 -46 19 -38 3 3 -2 20 -10 39 l-16 34 7 -35z"/>
<path d="M1877 123 c-4 -3 -7 -13 -7 -22 1 -13 3 -13 11 2 11 19 8 33 -4 20z"/>
<path d="M1956 100 c7 -38 11 -46 19 -38 3 3 -2 20 -10 39 l-16 34 7 -35z"/>
<path d="M1987 123 c-4 -3 -7 -13 -7 -22 1 -13 3 -13 11 2 11 19 8 33 -4 20z"/>
<path d="M2066 100 c7 -38 11 -46 19 -38 3 3 -2 20 -10 39 l-16 34 7 -35z"/>
<path d="M2097 123 c-4 -3 -7 -13 -7 -22 1 -13 3 -13 11 2 11 19 8 33 -4 20z"/>
<path d="M2134 105 c-5 -20 -9 -23 -15 -13 -5 7 -9 9 -9 3 0 -5 4 -16 9 -23 6
-10 11 -5 20 19 6 18 9 34 7 37 -3 2 -8 -8 -12 -23z"/>
<path d="M2205 120 c-8 -14 3 -30 21 -30 20 0 18 -18 -3 -23 -15 -3 -14 -4 1
-3 27 1 32 26 7 33 -26 7 -27 20 -3 26 15 4 15 5 0 6 -9 0 -20 -3 -23 -9z"/>
<path d="M2353 98 c2 -28 6 -33 30 -34 25 -1 27 2 26 35 -1 36 -1 36 -8 6 -9
-42 -38 -45 -45 -6 l-6 31 3 -32z"/>
<path d="M2542 118 c-17 -17 -15 -45 4 -52 28 -11 40 -5 14 7 l-25 11 28 4
c18 2 27 9 26 20 0 11 -3 12 -6 5 -2 -7 -14 -13 -26 -13 -22 1 -22 1 -3 15 11
8 15 15 10 15 -6 0 -15 -5 -22 -12z"/>
<path d="M2611 90 c1 -27 3 -29 6 -10 2 14 11 30 20 37 13 10 13 12 -6 10 -17
-1 -21 -7 -20 -37z"/>
<path d="M2665 120 c-8 -14 3 -30 21 -30 20 0 18 -18 -3 -23 -15 -3 -14 -4 1
-3 27 1 32 26 7 33 -26 7 -27 20 -3 26 15 4 15 5 0 6 -9 0 -20 -3 -23 -9z"/>
<path d="M2793 123 c-18 -7 -16 -50 2 -57 24 -9 45 4 45 29 0 18 -22 40 -33
34 -1 0 -8 -3 -14 -6z m34 -19 c8 -21 -13 -42 -28 -27 -13 13 -5 43 11 43 6 0
13 -7 17 -16z"/>
<path d="M2873 123 c-7 -2 -13 -15 -13 -28 0 -22 18 -36 43 -34 7 0 2 4 -10 9
-13 5 -23 16 -23 25 0 9 10 20 23 25 12 5 15 9 7 9 -8 -1 -21 -3 -27 -6z"/>
<path d="M3063 123 c-7 -2 -13 -15 -13 -28 0 -22 18 -36 43 -34 7 0 2 4 -10 9
-13 5 -23 16 -23 25 0 9 10 20 23 25 12 5 15 9 7 9 -8 -1 -21 -3 -27 -6z"/>
<path d="M3201 91 c1 -36 1 -36 8 -6 8 40 38 46 44 8 4 -28 4 -28 3 2 -1 26
-5 30 -28 31 -26 1 -28 -2 -27 -35z"/>
<path d="M3282 116 c7 -8 15 -12 17 -11 5 6 -10 25 -20 25 -5 0 -4 -6 3 -14z"/>
<path d="M3121 99 c-1 -15 5 -29 14 -33 26 -9 45 5 44 33 l-1 26 -7 -25 c-4
-14 -13 -25 -21 -25 -8 0 -17 11 -21 25 l-7 25 -1 -26z"/>
<path d="M3638 109 c29 -11 24 -31 -9 -40 -14 -4 -17 -7 -7 -8 28 -2 48 10 48
29 0 17 -20 31 -43 29 -7 0 -1 -4 11 -10z"/>
<path d="M4118 109 c29 -11 24 -31 -9 -40 -14 -4 -17 -7 -7 -8 28 -2 48 10 48
29 0 17 -20 31 -43 29 -7 0 -1 -4 11 -10z"/>
<path d="M1910 94 c0 -16 -2 -17 -10 -4 -5 8 -10 11 -10 5 0 -5 4 -16 9 -24 7
-11 10 -9 16 8 4 13 4 25 1 28 -3 4 -6 -2 -6 -13z"/>
<path d="M2020 94 c0 -16 -2 -17 -10 -4 -5 8 -10 11 -10 5 0 -5 4 -16 9 -24 7
-11 10 -9 16 8 4 13 4 25 1 28 -3 4 -6 -2 -6 -13z"/>
<path d="M3897 88 c-3 -9 -16 -18 -29 -21 -19 -4 -20 -4 -3 -5 27 -2 48 13 43
29 -3 10 -6 9 -11 -3z"/>
</g>
</svg>
